{
.appVersion = "1181";
DisplayStrings = (
"ã/ecaron xs/oneeighth \012/Lslash/lslash Øø/upArrow/notequal \012\012t",
"35ß/Germandbls/germandbls.sc \012\01253R/Germandbls/three.osf/r.sc/germandbls.sc/b.sc \012\012NNCANN\012OO/Placeholder AOO\012ii/Placeholder Aii\012",
"/slashshortcomb.case/Lslash/slashshortcomb.sc/lslash.sc/slashshortcomb/lslash \012OOAOO\012ØØAØØ\012/a.sc/a.sc/oslash.sc/a.sc/a.sc \012/a.sc/a.sc/o.sc/a.sc/a.sc \012\012Øø/oslash.sc",
"/oslash.sc",
"\012/iacute_j.loclNLD/f_i/f_j/f_l/fi/fl/I_J.loclNLD/i_j.loclNLD \012\012/f_j ord nn/f_j nnoo/f_j oo\012fjord nnfjnnoofjoo\012\012nnijnnooijoo\012/f_j  /i_j.loclNLD  /f_i \012fj ij fi",
"/lj olj",
"aD/DZ/DZcaron/LJ/Lj/NJ/Nj/backslash DZ.....LJ...NJNj\012\012/Iacute_J.loclNLD/dz/dzcaron/lj/iacute_j.loclNLD/f_i/f_j/f_l/fi \012/fl/I_J.loclNLD/i_j.loclNLD/dz.sc/dzcaron.sc/iacute_j.loclNLD.sc/i_j.loclNLD.sc/nj.sc \012\012",

glyphs = (
{
glyphname = A;
layers = (
{
anchors = (
{
name = bottom;
position = "{566, 0}";
},
{
name = ogonek;
position = "{1104, 0}";
},
{
name = top;
position = "{566, 1520}";
}
);
background = {
paths = (
{
closed = 1;
nodes = (
"186 0 LINE",
"186 728 LINE",
"942 728 LINE",
"942 0 LINE",
"1010 0 LINE",
"1010 1480 LINE",
"942 1480 LINE",
"942 794 LINE",
"186 794 LINE",
"186 1480 LINE",
"118 1480 LINE",
"118 0 LINE"
);
}
);
};
color = -1;
layerId = "ECFF4977-BDCC-4836-B4AC-1801CF0EB460";
paths = (
{
closed = 1;
nodes = (
"98 0 LINE",
"576 1440 LINE",
"552 1440 LINE",
"1030 0 LINE",
"1104 0 LINE",
"608 1480 LINE",
"522 1480 LINE",
"26 0 LINE"
);
},
{
closed = 1;
nodes = (
"884 528 LINE",
"864 594 LINE",
"266 594 LINE",
"246 528 LINE"
);
}
);
width = 1130;
},
{
anchors = (
{
name = bottom;
position = "{650, 0}";
},
{
name = ogonek;
position = "{1308, 0}";
},
{
name = top;
position = "{650, 1520}";
}
);
background = {
paths = (
{
closed = 1;
nodes = (
"370 0 LINE",
"664 1294 LINE",
"628 1294 LINE",
"922 0 LINE",
"1306 0 LINE",
"942 1480 LINE",
"354 1480 LINE",
"-10 0 LINE"
);
},
{
closed = 1;
nodes = (
"1050 344 LINE",
"978 674 LINE",
"316 674 LINE",
"244 344 LINE"
);
}
);
};
color = -1;
layerId = "C8FFBC04-9D7C-494A-A42D-BACB8E26599D";
paths = (
{
closed = 1;
nodes = (
"372 0 LINE",
"664 1306 LINE",
"628 1306 LINE",
"924 0 LINE",
"1308 0 LINE",
"944 1480 LINE",
"356 1480 LINE",
"-8 0 LINE"
);
},
{
closed = 1;
nodes = (
"1052 344 LINE",
"980 674 LINE",
"318 674 LINE",
"246 344 LINE"
);
}
);
width = 1300;
}
);
leftKerningGroup = A;
note = "\012    520\012  ";
rightKerningGroup = A;
unicode = 0041;
userData = {
com.typemytype.robofont.layerData = {
};
};
},
{
glyphname = Aringacute;
layers = (
{
background = {
paths = (
{
closed = 1;
nodes = (
"22 0 LINE",
"88 0 LINE",
"244 498 LINE",
"798 498 LINE",
"954 0 LINE",
"1020 0 LINE",
"1020 12 LINE",
"626 1272 LINE",
"672 1308 OFFCURVE",
"696 1368 OFFCURVE",
"696 1436 CURVE SMOOTH",
"696 1528 OFFCURVE",
"652 1606 OFFCURVE",
"568 1628 CURVE",
"698 1820 LINE",
"622 1820 LINE",
"490 1634 LINE",
"392 1622 OFFCURVE",
"342 1536 OFFCURVE",
"342 1436 CURVE SMOOTH",
"342 1366 OFFCURVE",
"366 1304 OFFCURVE",
"414 1268 CURVE",
"22 12 LINE"
);
},
{
closed = 1;
nodes = (
"518 1304 CURVE SMOOTH",
"448 1304 OFFCURVE",
"410 1362 OFFCURVE",
"410 1436 CURVE SMOOTH",
"410 1510 OFFCURVE",
"446 1568 OFFCURVE",
"518 1568 CURVE SMOOTH",
"590 1568 OFFCURVE",
"628 1510 OFFCURVE",
"628 1436 CURVE SMOOTH",
"628 1362 OFFCURVE",
"588 1304 OFFCURVE"
);
},
{
closed = 1;
nodes = (
"264 566 LINE",
"454 1172 LINE",
"474 1242 LINE",
"568 1242 LINE",
"588 1172 LINE",
"776 566 LINE"
);
}
);
};
color = -1;
components = (
{
name = A;
},
{
alignment = -1;
name = ringcomb_acutecomb.case;
transform = "{1, 0, 0, 1, 170, -180}";
}
);
layerId = "ECFF4977-BDCC-4836-B4AC-1801CF0EB460";
width = 1130;
},
{
background = {
paths = (
{
closed = 1;
nodes = (
"358 0 LINE",
"430 312 LINE",
"856 312 LINE",
"930 0 LINE",
"1296 0 LINE",
"1296 14 LINE",
"946 1362 LINE",
"974 1406 OFFCURVE",
"988 1460 OFFCURVE",
"988 1520 CURVE SMOOTH",
"988 1634 OFFCURVE",
"934 1726 OFFCURVE",
"844 1778 CURVE",
"1020 2060 LINE",
"632 2060 LINE",
"550 1822 LINE",
"392 1792 OFFCURVE",
"294 1678 OFFCURVE",
"294 1520 CURVE SMOOTH",
"294 1456 OFFCURVE",
"310 1402 OFFCURVE",
"340 1354 CURVE",
"-8 14 LINE",
"-8 0 LINE"
);
},
{
closed = 1;
nodes = (
"584 980 LINE",
"628 1196 LINE",
"660 1196 LINE",
"704 980 LINE",
"780 636 LINE",
"506 636 LINE"
);
},
{
closed = 1;
nodes = (
"558 1388 OFFCURVE",
"502 1440 OFFCURVE",
"502 1520 CURVE SMOOTH",
"502 1600 OFFCURVE",
"556 1652 OFFCURVE",
"640 1652 CURVE SMOOTH",
"724 1652 OFFCURVE",
"780 1600 OFFCURVE",
"780 1520 CURVE SMOOTH",
"780 1442 OFFCURVE",
"724 1388 OFFCURVE",
"640 1388 CURVE SMOOTH"
);
}
);
};
color = -1;
components = (
{
name = A;
},
{
name = ringcomb_acutecomb.case;
transform = "{1, 0, 0, 1, 50, 0}";
}
);
layerId = "C8FFBC04-9D7C-494A-A42D-BACB8E26599D";
width = 1300;
}
);
leftKerningGroup = A;
rightKerningGroup = A;
unicode = 01FA;
},
{
glyphname = AE;
layers = (
{
anchors = (
{
name = bottom;
position = "{852, 0}";
},
{
name = top;
position = "{790, 1520}";
}
);
background = {
anchors = (
{
name = topUC;
position = "{962, 1520}";
}
);
paths = (
{
closed = 1;
nodes = (
"1510 0 LINE",
"1510 66 LINE",
"830 66 LINE",
"830 1414 LINE",
"1500 1414 LINE",
"1500 1480 LINE",
"762 1480 LINE",
"762 0 LINE"
);
},
{
closed = 1;
nodes = (
"1410 728 LINE",
"1410 794 LINE",
"822 794 LINE",
"822 728 LINE"
);
},
{
closed = 1;
nodes = (
"874 594 LINE",
"276 594 LINE",
"256 528 LINE",
"894 528 LINE"
);
},
{
closed = 1;
nodes = (
"532 1480 LINE",
"36 0 LINE",
"108 0 LINE",
"586 1440 LINE",
"562 1440 LINE",
"1040 0 LINE",
"1114 0 LINE",
"618 1480 LINE"
);
}
);
};
color = -1;
layerId = "ECFF4977-BDCC-4836-B4AC-1801CF0EB460";
paths = (
{
closed = 1;
nodes = (
"98 0 LINE",
"580 1414 LINE",
"798 1414 LINE",
"798 1480 LINE",
"534 1480 LINE",
"26 0 LINE"
);
},
{
closed = 1;
nodes = (
"824 528 LINE",
"824 594 LINE",
"268 594 LINE",
"248 528 LINE"
);
},
{
closed = 1;
nodes = (
"1512 0 LINE",
"1512 66 LINE",
"884 66 LINE",
"824 1414 LINE",
"1502 1414 LINE",
"1502 1480 LINE",
"754 1480 LINE",
"818 0 LINE"
);
},
{
closed = 1;
nodes = (
"1412 728 LINE",
"1412 794 LINE",
"836 794 LINE",
"836 728 LINE"
);
}
);
width = 1546;
},
{
anchors = (
{
name = bottom;
position = "{954, 0}";
},
{
name = top;
position = "{954, 1520}";
}
);
background = {
paths = (
{
closed = 1;
nodes = (
"378 0 LINE",
"638 1142 LINE",
"968 1142 LINE",
"968 1480 LINE",
"356 1480 LINE",
"-8 0 LINE"
);
},
{
closed = 1;
nodes = (
"958 344 LINE",
"958 674 LINE",
"318 674 LINE",
"246 344 LINE"
);
},
{
closed = 1;
nodes = (
"1784 0 LINE",
"1784 338 LINE",
"1244 338 LINE",
"1174 1142 LINE",
"1774 1142 LINE",
"1774 1480 LINE",
"782 1480 LINE",
"890 0 LINE"
);
},
{
closed = 1;
nodes = (
"1670 588 LINE",
"1670 922 LINE",
"1078 922 LINE",
"1078 588 LINE"
);
}
);
};
color = -1;
layerId = "C8FFBC04-9D7C-494A-A42D-BACB8E26599D";
paths = (
{
closed = 1;
nodes = (
"378 0 LINE",
"638 1146 LINE",
"968 1146 LINE",
"968 1480 LINE",
"356 1480 LINE",
"-8 0 LINE"
);
},
{
closed = 1;
nodes = (
"958 342 LINE",
"958 676 LINE",
"318 676 LINE",
"246 342 LINE"
);
},
{
closed = 1;
nodes = (
"1784 0 LINE",
"1784 334 LINE",
"1244 334 LINE",
"1174 1146 LINE",
"1774 1146 LINE",
"1774 1480 LINE",
"782 1480 LINE",
"890 0 LINE"
);
},
{
closed = 1;
nodes = (
"1670 588 LINE",
"1670 922 LINE",
"1078 922 LINE",
"1078 588 LINE"
);
}
);
width = 1842;
}
);
leftKerningGroup = A;
rightKerningGroup = E;
unicode = 00C6;
},
{
glyphname = B;
layers = (
{
anchors = (
{
name = bottom;
position = "{564, 0}";
},
{
name = top;
position = "{564, 1480}";
}
);
background = {
paths = (
{
closed = 1;
nodes = (
"850 -10 OFFCURVE",
"1014 126 OFFCURVE",
"1014 390 CURVE SMOOTH",
"1014 596 OFFCURVE",
"906 744 OFFCURVE",
"660 770 CURVE",
"660 756 LINE",
"900 792 OFFCURVE",
"972 950 OFFCURVE",
"972 1114 CURVE SMOOTH",
"972 1374 OFFCURVE",
"824 1494 OFFCURVE",
"476 1494 CURVE SMOOTH",
"348 1494 OFFCURVE",
"250 1482 OFFCURVE",
"164 1466 CURVE",
"164 4 LINE",
"258 -6 OFFCURVE",
"350 -10 OFFCURVE",
"448 -10 CURVE SMOOTH"
);
},
{
closed = 1;
nodes = (
"378 56 OFFCURVE",
"302 58 OFFCURVE",
"232 66 CURVE",
"232 1410 LINE",
"302 1422 OFFCURVE",
"374 1428 OFFCURVE",
"472 1428 CURVE SMOOTH",
"786 1428 OFFCURVE",
"902 1338 OFFCURVE",
"902 1114 CURVE SMOOTH",
"902 912 OFFCURVE",
"806 794 OFFCURVE",
"486 794 CURVE SMOOTH",
"216 794 LINE",
"216 728 LINE",
"526 728 LINE SMOOTH",
"816 728 OFFCURVE",
"944 612 OFFCURVE",
"944 386 CURVE SMOOTH",
"944 160 OFFCURVE",
"810 56 OFFCURVE",
"450 56 CURVE SMOOTH"
);
}
);
};
color = -1;
layerId = "ECFF4977-BDCC-4836-B4AC-1801CF0EB460";
paths = (
{
closed = 1;
nodes = (
"850 -10 OFFCURVE",
"1014 126 OFFCURVE",
"1014 390 CURVE SMOOTH",
"1014 596 OFFCURVE",
"906 744 OFFCURVE",
"664 772 CURVE",
"664 758 LINE",
"900 792 OFFCURVE",
"972 950 OFFCURVE",
"972 1114 CURVE SMOOTH",
"972 1374 OFFCURVE",
"824 1494 OFFCURVE",
"476 1494 CURVE SMOOTH",
"348 1494 OFFCURVE",
"250 1482 OFFCURVE",
"164 1466 CURVE",
"164 4 LINE",
"258 -6 OFFCURVE",
"350 -10 OFFCURVE",
"448 -10 CURVE SMOOTH"
);
},
{
closed = 1;
nodes = (
"378 56 OFFCURVE",
"302 58 OFFCURVE",
"232 66 CURVE",
"232 1410 LINE",
"302 1422 OFFCURVE",
"374 1428 OFFCURVE",
"472 1428 CURVE SMOOTH",
"786 1428 OFFCURVE",
"902 1338 OFFCURVE",
"902 1114 CURVE SMOOTH",
"902 912 OFFCURVE",
"806 794 OFFCURVE",
"486 794 CURVE SMOOTH",
"216 794 LINE",
"216 728 LINE",
"526 728 LINE SMOOTH",
"816 728 OFFCURVE",
"944 612 OFFCURVE",
"944 386 CURVE SMOOTH",
"944 160 OFFCURVE",
"810 56 OFFCURVE",
"450 56 CURVE SMOOTH"
);
}
);
width = 1090;
},
{
anchors = (
{
name = bottom;
position = "{616, 0}";
},
{
name = top;
position = "{616, 1480}";
}
);
background = {
paths = (
{
closed = 1;
nodes = (
"1002 -20 OFFCURVE",
"1216 130 OFFCURVE",
"1216 418 CURVE SMOOTH",
"1216 632 OFFCURVE",
"1094 738 OFFCURVE",
"934 768 CURVE",
"934 756 LINE",
"1078 792 OFFCURVE",
"1174 920 OFFCURVE",
"1174 1082 CURVE SMOOTH",
"1174 1374 OFFCURVE",
"974 1500 OFFCURVE",
"550 1500 CURVE SMOOTH",
"400 1500 OFFCURVE",
"224 1480 OFFCURVE",
"88 1450 CURVE",
"88 14 LINE",
"210 -6 OFFCURVE",
"382 -20 OFFCURVE",
"500 -20 CURVE SMOOTH"
);
},
{
closed = 1;
nodes = (
"568 282 OFFCURVE",
"530 284 OFFCURVE",
"474 288 CURVE",
"474 1186 LINE",
"522 1194 OFFCURVE",
"564 1198 OFFCURVE",
"616 1198 CURVE SMOOTH",
"752 1198 OFFCURVE",
"804 1156 OFFCURVE",
"804 1054 CURVE SMOOTH",
"804 954 OFFCURVE",
"754 912 OFFCURVE",
"604 912 CURVE SMOOTH",
"442 912 LINE",
"442 598 LINE",
"630 598 LINE SMOOTH",
"780 598 OFFCURVE",
"846 552 OFFCURVE",
"846 442 CURVE SMOOTH",
"846 328 OFFCURVE",
"784 282 OFFCURVE",
"612 282 CURVE SMOOTH"
);
}
);
};
color = -1;
layerId = "C8FFBC04-9D7C-494A-A42D-BACB8E26599D";
paths = (
{
closed = 1;
nodes = (
"1002 -20 OFFCURVE",
"1216 130 OFFCURVE",
"1216 418 CURVE SMOOTH",
"1216 632 OFFCURVE",
"1094 738 OFFCURVE",
"934 768 CURVE",
"934 756 LINE",
"1078 792 OFFCURVE",
"1174 920 OFFCURVE",
"1174 1082 CURVE SMOOTH",
"1174 1374 OFFCURVE",
"974 1500 OFFCURVE",
"550 1500 CURVE SMOOTH",
"400 1500 OFFCURVE",
"224 1480 OFFCURVE",
"88 1450 CURVE",
"88 14 LINE",
"210 -6 OFFCURVE",
"382 -20 OFFCURVE",
"500 -20 CURVE SMOOTH"
);
},
{
closed = 1;
nodes = (
"568 280 OFFCURVE",
"528 282 OFFCURVE",
"470 286 CURVE",
"470 1188 LINE",
"520 1196 OFFCURVE",
"564 1200 OFFCURVE",
"616 1200 CURVE SMOOTH",
"754 1200 OFFCURVE",
"806 1158 OFFCURVE",
"806 1054 CURVE SMOOTH",
"806 952 OFFCURVE",
"756 910 OFFCURVE",
"604 910 CURVE SMOOTH",
"438 910 LINE",
"438 598 LINE",
"630 598 LINE SMOOTH",
"782 598 OFFCURVE",
"848 552 OFFCURVE",
"848 442 CURVE SMOOTH",
"848 326 OFFCURVE",
"786 280 OFFCURVE",
"612 280 CURVE SMOOTH"
);
}
);
width = 1242;
}
);
leftKerningGroup = H;
rightKerningGroup = B;
unicode = 0042;
userData = {
com.typemytype.robofont.layerData = {
};
};
},
{
glyphname = C;
layers = (
{
anchors = (
{
name = bottom;
position = "{598, 0}";
},
{
name = top;
position = "{588, 1520}";
}
);
background = {
paths = (
{
closed = 1;
nodes = (
"1940 -18 OFFCURVE",
"2034 4 OFFCURVE",
"2112 32 CURVE",
"2112 100 LINE",
"2010 64 OFFCURVE",
"1928 48 OFFCURVE",
"1832 48 CURVE SMOOTH",
"1546 48 OFFCURVE",
"1370 200 OFFCURVE",
"1370 742 CURVE SMOOTH",
"1370 1270 OFFCURVE",
"1538 1432 OFFCURVE",
"1840 1432 CURVE SMOOTH",
"1930 1432 OFFCURVE",
"2012 1424 OFFCURVE",
"2112 1390 CURVE",
"2112 1458 LINE",
"2026 1484 OFFCURVE",
"1934 1498 OFFCURVE",
"1848 1498 CURVE SMOOTH",
"1500 1498 OFFCURVE",
"1298 1304 OFFCURVE",
"1298 738 CURVE SMOOTH",
"1298 164 OFFCURVE",
"1506 -18 OFFCURVE",
"1834 -18 CURVE SMOOTH"
);
},
{
closed = 1;
nodes = (
"874 -18 OFFCURVE",
"1066 182 OFFCURVE",
"1066 740 CURVE SMOOTH",
"1066 1298 OFFCURVE",
"878 1498 OFFCURVE",
"582 1498 CURVE SMOOTH",
"286 1498 OFFCURVE",
"98 1298 OFFCURVE",
"98 740 CURVE SMOOTH",
"98 182 OFFCURVE",
"290 -18 OFFCURVE",
"582 -18 CURVE SMOOTH"
);
},
{
closed = 1;
nodes = (
"334 48 OFFCURVE",
"170 206 OFFCURVE",
"170 744 CURVE SMOOTH",
"170 1274 OFFCURVE",
"334 1432 OFFCURVE",
"582 1432 CURVE SMOOTH",
"830 1432 OFFCURVE",
"994 1274 OFFCURVE",
"994 736 CURVE SMOOTH",
"994 206 OFFCURVE",
"830 48 OFFCURVE",
"582 48 CURVE SMOOTH"
);
}
);
};
color = -1;
layerId = "ECFF4977-BDCC-4836-B4AC-1801CF0EB460";
paths = (
{
closed = 1;
nodes = (
"740 -18 OFFCURVE",
"834 4 OFFCURVE",
"912 32 CURVE",
"912 100 LINE",
"810 64 OFFCURVE",
"728 48 OFFCURVE",
"632 48 CURVE SMOOTH",
"346 48 OFFCURVE",
"170 200 OFFCURVE",
"170 742 CURVE SMOOTH",
"170 1270 OFFCURVE",
"338 1432 OFFCURVE",
"640 1432 CURVE SMOOTH",
"730 1432 OFFCURVE",
"812 1424 OFFCURVE",
"912 1390 CURVE",
"912 1458 LINE",
"826 1484 OFFCURVE",
"734 1498 OFFCURVE",
"648 1498 CURVE SMOOTH",
"300 1498 OFFCURVE",
"98 1304 OFFCURVE",
"98 738 CURVE SMOOTH",
"98 164 OFFCURVE",
"306 -18 OFFCURVE",
"634 -18 CURVE SMOOTH"
);
}
);
width = 930;
},
{
anchors = (
{
name = bottom;
position = "{688, 0}";
},
{
name = top;
position = "{688, 1520}";
}
);
background = {
paths = (
{
closed = 1;
nodes = (
"874 -20 OFFCURVE",
"992 -2 OFFCURVE",
"1068 28 CURVE",
"1068 356 LINE",
"978 328 OFFCURVE",
"894 310 OFFCURVE",
"828 310 CURVE SMOOTH",
"578 310 OFFCURVE",
"464 410 OFFCURVE",
"464 740 CURVE SMOOTH",
"464 1060 OFFCURVE",
"586 1170 OFFCURVE",
"828 1170 CURVE SMOOTH",
"912 1170 OFFCURVE",
"992 1158 OFFCURVE",
"1068 1142 CURVE",
"1068 1470 LINE",
"984 1490 OFFCURVE",
"888 1500 OFFCURVE",
"792 1500 CURVE SMOOTH",
"330 1500 OFFCURVE",
"54 1254 OFFCURVE",
"54 736 CURVE SMOOTH",
"54 198 OFFCURVE",
"318 -20 OFFCURVE",
"770 -20 CURVE SMOOTH"
);
}
);
};
color = -1;
layerId = "C8FFBC04-9D7C-494A-A42D-BACB8E26599D";
paths = (
{
closed = 1;
nodes = (
"874 -20 OFFCURVE",
"992 -2 OFFCURVE",
"1068 28 CURVE",
"1068 356 LINE",
"978 328 OFFCURVE",
"894 310 OFFCURVE",
"828 310 CURVE SMOOTH",
"578 310 OFFCURVE",
"464 410 OFFCURVE",
"464 740 CURVE SMOOTH",
"464 1060 OFFCURVE",
"586 1170 OFFCURVE",
"828 1170 CURVE SMOOTH",
"912 1170 OFFCURVE",
"992 1158 OFFCURVE",
"1068 1142 CURVE",
"1068 1470 LINE",
"984 1490 OFFCURVE",
"888 1500 OFFCURVE",
"792 1500 CURVE SMOOTH",
"330 1500 OFFCURVE",
"54 1254 OFFCURVE",
"54 736 CURVE SMOOTH",
"54 198 OFFCURVE",
"318 -20 OFFCURVE",
"770 -20 CURVE SMOOTH"
);
}
);
width = 1102;
}
);
leftKerningGroup = O;
rightKerningGroup = C;
unicode = 0043;
userData = {
com.typemytype.robofont.layerData = {
};
};
},
{
glyphname = D;
layers = (
{
anchors = (
{
name = bottom;
position = "{516, 0}";
},
{
name = center;
position = "{578, 740}";
},
{
name = stroke;
position = "{164, 762}";
},
{
name = top;
position = "{516, 1520}";
}
);
background = {
paths = (
{
closed = 1;
nodes = (
"232 0 LINE",
"232 526 LINE",
"290 520 OFFCURVE",
"346 518 OFFCURVE",
"408 518 CURVE SMOOTH",
"790 518 OFFCURVE",
"962 686 OFFCURVE",
"962 1004 CURVE SMOOTH",
"962 1340 OFFCURVE",
"790 1494 OFFCURVE",
"450 1494 CURVE SMOOTH",
"348 1494 OFFCURVE",
"250 1482 OFFCURVE",
"164 1468 CURVE",
"164 0 LINE"
);
},
{
closed = 1;
nodes = (
"352 584 OFFCURVE",
"292 586 OFFCURVE",
"232 594 CURVE",
"232 1412 LINE",
"302 1422 OFFCURVE",
"374 1428 OFFCURVE",
"450 1428 CURVE SMOOTH",
"750 1428 OFFCURVE",
"890 1300 OFFCURVE",
"890 1000 CURVE SMOOTH",
"890 718 OFFCURVE",
"740 584 OFFCURVE",
"414 584 CURVE SMOOTH"
);
}
);
};
color = -1;
layerId = "ECFF4977-BDCC-4836-B4AC-1801CF0EB460";
paths = (
{
closed = 1;
nodes = (
"834 -10 OFFCURVE",
"1058 206 OFFCURVE",
"1058 740 CURVE SMOOTH",
"1058 1258 OFFCURVE",
"852 1494 OFFCURVE",
"442 1494 CURVE SMOOTH",
"348 1494 OFFCURVE",
"250 1482 OFFCURVE",
"164 1468 CURVE",
"164 4 LINE",
"268 -6 OFFCURVE",
"338 -10 OFFCURVE",
"414 -10 CURVE SMOOTH"
);
},
{
closed = 1;
nodes = (
"354 56 OFFCURVE",
"298 58 OFFCURVE",
"232 66 CURVE",
"232 1412 LINE",
"302 1422 OFFCURVE",
"374 1428 OFFCURVE",
"438 1428 CURVE SMOOTH",
"816 1428 OFFCURVE",
"986 1224 OFFCURVE",
"986 740 CURVE SMOOTH",
"986 246 OFFCURVE",
"798 56 OFFCURVE",
"416 56 CURVE SMOOTH"
);
}
);
width = 1156;
},
{
anchors = (
{
name = bottom;
position = "{638, 0}";
},
{
name = center;
position = "{652, 740}";
},
{
name = stroke;
position = "{88, 762}";
},
{
name = top;
position = "{618, 1520}";
}
);
background = {
paths = (
{
closed = 1;
nodes = (
"1014 -20 OFFCURVE",
"1278 212 OFFCURVE",
"1278 740 CURVE SMOOTH",
"1278 1264 OFFCURVE",
"1028 1500 OFFCURVE",
"526 1500 CURVE SMOOTH",
"370 1500 OFFCURVE",
"224 1480 OFFCURVE",
"88 1450 CURVE",
"88 2 LINE",
"208 -12 OFFCURVE",
"348 -20 OFFCURVE",
"472 -20 CURVE SMOOTH"
);
},
{
closed = 1;
nodes = (
"558 306 OFFCURVE",
"524 306 OFFCURVE",
"480 308 CURVE",
"480 1166 LINE",
"504 1172 OFFCURVE",
"546 1176 OFFCURVE",
"574 1176 CURVE SMOOTH",
"760 1176 OFFCURVE",
"878 1078 OFFCURVE",
"878 740 CURVE SMOOTH",
"878 404 OFFCURVE",
"768 306 OFFCURVE",
"580 306 CURVE SMOOTH"
);
}
);
};
color = -1;
layerId = "C8FFBC04-9D7C-494A-A42D-BACB8E26599D";
paths = (
{
closed = 1;
nodes = (
"1014 -20 OFFCURVE",
"1278 212 OFFCURVE",
"1278 740 CURVE SMOOTH",
"1278 1264 OFFCURVE",
"1028 1500 OFFCURVE",
"526 1500 CURVE SMOOTH",
"370 1500 OFFCURVE",
"224 1480 OFFCURVE",
"88 1450 CURVE",
"88 2 LINE",
"208 -12 OFFCURVE",
"348 -20 OFFCURVE",
"472 -20 CURVE SMOOTH"
);
},
{
closed = 1;
nodes = (
"558 306 OFFCURVE",
"524 306 OFFCURVE",
"480 308 CURVE",
"480 1166 LINE",
"504 1172 OFFCURVE",
"546 1176 OFFCURVE",
"574 1176 CURVE SMOOTH",
"756 1176 OFFCURVE",
"874 1078 OFFCURVE",
"874 740 CURVE SMOOTH",
"874 404 OFFCURVE",
"764 306 OFFCURVE",
"580 306 CURVE SMOOTH"
);
}
);
width = 1332;
}
);
leftKerningGroup = H;
rightKerningGroup = O;
unicode = 0044;
userData = {
com.typemytype.robofont.layerData = {
};
};
},
{
glyphname = Eth;
layers = (
{
background = {
components = (
{
name = D;
transform = "{1, 0, 0, 1, 20, 0}";
}
);
paths = (
{
closed = 1;
nodes = (
"22 702 LINE",
"596 702 LINE",
"596 770 LINE",
"22 770 LINE"
);
}
);
};
color = -1;
components = (
{
alignment = 1;
name = D;
},
{
name = strokeshortcomb.D;
transform = "{1, 0, 0, 1, -296, -318}";
}
);
layerId = "ECFF4977-BDCC-4836-B4AC-1801CF0EB460";
width = 1156;
},
{
background = {
components = (
{
name = D;
transform = "{1, 0, 0, 1, 10, 0}";
}
);
paths = (
{
closed = 1;
nodes = (
"644 602 LINE",
"644 892 LINE",
"-38 892 LINE",
"-38 602 LINE"
);
}
);
};
color = -1;
components = (
{
alignment = 1;
name = D;
},
{
name = strokeshortcomb.D;
transform = "{1, 0, 0, 1, -248, -338}";
}
);
layerId = "C8FFBC04-9D7C-494A-A42D-BACB8E26599D";
width = 1332;
}
);
leftKerningGroup = H;
rightKerningGroup = O;
unicode = 00D0;
},
{
glyphname = Dcroat;
layers = (
{
background = {
components = (
{
name = D;
transform = "{1, 0, 0, 1, 9, 0}";
}
);
paths = (
{
closed = 1;
nodes = (
"0 702 LINE",
"574 702 LINE",
"574 770 LINE",
"0 770 LINE"
);
}
);
};
color = -1;
components = (
{
name = Eth;
}
);
layerId = "ECFF4977-BDCC-4836-B4AC-1801CF0EB460";
width = 1156;
},
{
background = {
components = (
{
name = Eth;
}
);
};
color = -1;
components = (
{
name = Eth;
}
);
layerId = "C8FFBC04-9D7C-494A-A42D-BACB8E26599D";
width = 1332;
}
);
leftKerningGroup = H;
rightKerningGroup = O;
unicode = 0110;
},
{
glyphname = E;
layers = (
{
anchors = (
{
name = bottom;
position = "{556, 0}";
},
{
name = ogonek;
position = "{912, 0}";
},
{
name = top;
position = "{556, 1520}";
},
{
name = topleft;
position = "{36, 1480}";
}
);
background = {
anchors = (
{
name = bottom;
position = "{556, 0}";
},
{
name = ogonek;
position = "{898, 0}";
},
{
name = topUC;
position = "{516, 1520}";
}
);
paths = (
{
closed = 1;
nodes = (
"232 0 LINE",
"232 728 LINE",
"988 728 LINE",
"988 0 LINE",
"1056 0 LINE",
"1056 1480 LINE",
"988 1480 LINE",
"988 794 LINE",
"232 794 LINE",
"232 1480 LINE",
"164 1480 LINE",
"164 0 LINE"
);
}
);
};
color = -1;
layerId = "ECFF4977-BDCC-4836-B4AC-1801CF0EB460";
paths = (
{
closed = 1;
nodes = (
"912 0 LINE",
"912 66 LINE",
"232 66 LINE",
"232 1414 LINE",
"902 1414 LINE",
"902 1480 LINE",
"164 1480 LINE",
"164 0 LINE"
);
},
{
closed = 1;
nodes = (
"812 728 LINE",
"812 794 LINE",
"224 794 LINE",
"224 728 LINE"
);
}
);
width = 946;
},
{
anchors = (
{
name = bottom;
position = "{596, 0}";
},
{
name = ogonek;
position = "{1070, 0}";
},
{
name = top;
position = "{596, 1520}";
},
{
name = topleft;
position = "{36, 1480}";
}
);
background = {
paths = (
{
closed = 1;
nodes = (
"1070 0 LINE",
"1070 338 LINE",
"474 338 LINE",
"474 1142 LINE",
"1060 1142 LINE",
"1060 1480 LINE",
"88 1480 LINE",
"88 0 LINE"
);
},
{
closed = 1;
nodes = (
"956 588 LINE",
"956 922 LINE",
"366 922 LINE",
"366 588 LINE"
);
}
);
};
color = -1;
layerId = "C8FFBC04-9D7C-494A-A42D-BACB8E26599D";
paths = (
{
closed = 1;
nodes = (
"1070 0 LINE",
"1070 334 LINE",
"474 334 LINE",
"474 1146 LINE",
"1060 1146 LINE",
"1060 1480 LINE",
"88 1480 LINE",
"88 0 LINE"
);
},
{
closed = 1;
nodes = (
"956 588 LINE",
"956 922 LINE",
"366 922 LINE",
"366 588 LINE"
);
}
);
width = 1128;
}
);
leftKerningGroup = H;
rightKerningGroup = E;
unicode = 0045;
userData = {
com.typemytype.robofont.layerData = {
};
};
},
{
glyphname = F;
layers = (
{
background = {
paths = (
{
closed = 1;
nodes = (
"912 0 LINE",
"912 66 LINE",
"232 66 LINE",
"232 1414 LINE",
"902 1414 LINE",
"902 1480 LINE",
"164 1480 LINE",
"164 0 LINE"
);
},
{
closed = 1;
nodes = (
"812 728 LINE",
"812 794 LINE",
"224 794 LINE",
"224 728 LINE"
);
}
);
};
color = -1;
layerId = "ECFF4977-BDCC-4836-B4AC-1801CF0EB460";
paths = (
{
closed = 1;
nodes = (
"232 0 LINE",
"232 1414 LINE",
"892 1414 LINE",
"892 1480 LINE",
"164 1480 LINE",
"164 0 LINE"
);
},
{
closed = 1;
nodes = (
"802 728 LINE",
"802 794 LINE",
"224 794 LINE",
"224 728 LINE"
);
}
);
width = 910;
},
{
background = {
paths = (
{
closed = 1;
nodes = (
"480 0 LINE",
"480 1134 LINE",
"1060 1134 LINE",
"1060 1480 LINE",
"88 1480 LINE",
"88 0 LINE"
);
},
{
closed = 1;
nodes = (
"962 534 LINE",
"962 880 LINE",
"366 880 LINE",
"366 534 LINE"
);
}
);
};
color = -1;
layerId = "C8FFBC04-9D7C-494A-A42D-BACB8E26599D";
paths = (
{
closed = 1;
nodes = (
"480 0 LINE",
"480 1142 LINE",
"1060 1142 LINE",
"1060 1480 LINE",
"88 1480 LINE",
"88 0 LINE"
);
},
{
closed = 1;
nodes = (
"962 538 LINE",
"962 876 LINE",
"366 876 LINE",
"366 538 LINE"
);
}
);
width = 1070;
}
);
leftKerningGroup = H;
rightKerningGroup = F;
unicode = 0046;
userData = {
com.typemytype.robofont.layerData = {
};
};
},
{
glyphname = G;
layers = (
{
anchors = (
{
name = bottom;
position = "{618, 0}";
},
{
name = top;
position = "{618, 1520}";
}
);
background = {
paths = (
{
closed = 1;
nodes = (
"810 -10 OFFCURVE",
"880 -4 OFFCURVE",
"978 14 CURVE",
"978 720 LINE",
"910 720 LINE",
"910 40 LINE",
"932 76 LINE",
"868 62 OFFCURVE",
"802 56 OFFCURVE",
"732 56 CURVE SMOOTH",
"350 56 OFFCURVE",
"170 212 OFFCURVE",
"170 738 CURVE SMOOTH",
"170 1272 OFFCURVE",
"360 1432 OFFCURVE",
"678 1432 CURVE SMOOTH",
"770 1432 OFFCURVE",
"860 1422 OFFCURVE",
"960 1390 CURVE",
"960 1458 LINE",
"874 1484 OFFCURVE",
"774 1498 OFFCURVE",
"684 1498 CURVE SMOOTH",
"322 1498 OFFCURVE",
"98 1308 OFFCURVE",
"98 738 CURVE SMOOTH",
"98 174 OFFCURVE",
"310 -10 OFFCURVE",
"730 -10 CURVE SMOOTH"
);
}
);
};
color = -1;
layerId = "ECFF4977-BDCC-4836-B4AC-1801CF0EB460";
paths = (
{
closed = 1;
nodes = (
"810 -10 OFFCURVE",
"880 -4 OFFCURVE",
"978 14 CURVE",
"978 720 LINE",
"910 720 LINE",
"910 40 LINE",
"932 76 LINE",
"868 62 OFFCURVE",
"802 56 OFFCURVE",
"732 56 CURVE SMOOTH",
"356 56 OFFCURVE",
"170 218 OFFCURVE",
"170 738 CURVE SMOOTH",
"170 1272 OFFCURVE",
"360 1432 OFFCURVE",
"678 1432 CURVE SMOOTH",
"770 1432 OFFCURVE",
"860 1422 OFFCURVE",
"960 1390 CURVE",
"960 1458 LINE",
"874 1484 OFFCURVE",
"774 1498 OFFCURVE",
"684 1498 CURVE SMOOTH",
"322 1498 OFFCURVE",
"98 1308 OFFCURVE",
"98 738 CURVE SMOOTH",
"98 180 OFFCURVE",
"318 -10 OFFCURVE",
"732 -10 CURVE SMOOTH"
);
}
);
width = 1106;
},
{
anchors = (
{
name = bottom;
position = "{750, 0}";
},
{
name = top;
position = "{750, 1520}";
}
);
background = {
paths = (
{
closed = 1;
nodes = (
"956 -20 OFFCURVE",
"1082 -8 OFFCURVE",
"1196 10 CURVE",
"1196 720 LINE",
"834 720 LINE",
"834 224 LINE",
"952 318 LINE",
"912 312 OFFCURVE",
"856 308 OFFCURVE",
"806 308 CURVE SMOOTH",
"584 308 OFFCURVE",
"460 420 OFFCURVE",
"460 734 CURVE SMOOTH",
"460 1060 OFFCURVE",
"586 1170 OFFCURVE",
"896 1170 CURVE SMOOTH",
"988 1170 OFFCURVE",
"1068 1156 OFFCURVE",
"1158 1136 CURVE",
"1158 1464 LINE",
"1064 1488 OFFCURVE",
"974 1500 OFFCURVE",
"850 1500 CURVE SMOOTH",
"336 1500 OFFCURVE",
"54 1254 OFFCURVE",
"54 740 CURVE SMOOTH",
"54 218 OFFCURVE",
"324 -20 OFFCURVE",
"850 -20 CURVE SMOOTH"
);
}
);
};
color = -1;
layerId = "C8FFBC04-9D7C-494A-A42D-BACB8E26599D";
paths = (
{
closed = 1;
nodes = (
"956 -20 OFFCURVE",
"1082 -8 OFFCURVE",
"1196 10 CURVE",
"1196 720 LINE",
"834 720 LINE",
"834 224 LINE",
"952 318 LINE",
"912 312 OFFCURVE",
"856 308 OFFCURVE",
"806 308 CURVE SMOOTH",
"588 308 OFFCURVE",
"464 420 OFFCURVE",
"464 734 CURVE SMOOTH",
"464 1060 OFFCURVE",
"590 1170 OFFCURVE",
"896 1170 CURVE SMOOTH",
"988 1170 OFFCURVE",
"1068 1156 OFFCURVE",
"1158 1136 CURVE",
"1158 1464 LINE",
"1064 1488 OFFCURVE",
"974 1500 OFFCURVE",
"850 1500 CURVE SMOOTH",
"336 1500 OFFCURVE",
"54 1254 OFFCURVE",
"54 740 CURVE SMOOTH",
"54 218 OFFCURVE",
"324 -20 OFFCURVE",
"850 -20 CURVE SMOOTH"
);
}
);
width = 1280;
}
);
leftKerningGroup = O;
rightKerningGroup = G;
unicode = 0047;
userData = {
com.typemytype.robofont.layerData = {
};
};
},
{
glyphname = H;
layers = (
{
anchors = (
{
name = bottom;
position = "{610, 0}";
},
{
name = center;
position = "{610, 1140}";
},
{
name = top;
position = "{610, 1520}";
},
{
name = topleft;
position = "{36, 1480}";
}
);
background = {
paths = (
{
closed = 1;
nodes = (
"834 -10 OFFCURVE",
"1058 206 OFFCURVE",
"1058 740 CURVE SMOOTH",
"1058 1258 OFFCURVE",
"852 1494 OFFCURVE",
"442 1494 CURVE SMOOTH",
"348 1494 OFFCURVE",
"254 1482 OFFCURVE",
"164 1468 CURVE",
"164 4 LINE",
"268 -6 OFFCURVE",
"338 -10 OFFCURVE",
"414 -10 CURVE SMOOTH"
);
},
{
closed = 1;
nodes = (
"354 56 OFFCURVE",
"298 58 OFFCURVE",
"232 66 CURVE",
"232 1410 LINE",
"308 1422 OFFCURVE",
"374 1428 OFFCURVE",
"438 1428 CURVE SMOOTH",
"816 1428 OFFCURVE",
"986 1224 OFFCURVE",
"986 740 CURVE SMOOTH",
"986 246 OFFCURVE",
"798 56 OFFCURVE",
"416 56 CURVE SMOOTH"
);
}
);
};
color = -1;
layerId = "ECFF4977-BDCC-4836-B4AC-1801CF0EB460";
paths = (
{
closed = 1;
nodes = (
"232 0 LINE",
"232 728 LINE",
"988 728 LINE",
"988 0 LINE",
"1056 0 LINE",
"1056 1480 LINE",
"988 1480 LINE",
"988 794 LINE",
"232 794 LINE",
"232 1480 LINE",
"164 1480 LINE",
"164 0 LINE"
);
}
);
width = 1220;
},
{
anchors = (
{
name = bottom;
position = "{684, 0}";
},
{
name = center;
position = "{684, 1200}";
},
{
name = top;
position = "{684, 1520}";
},
{
name = topleft;
position = "{28, 1480}";
}
);
background = {
paths = (
{
closed = 1;
nodes = (
"1012 -14 OFFCURVE",
"1276 218 OFFCURVE",
"1276 740 CURVE SMOOTH",
"1276 1258 OFFCURVE",
"1026 1494 OFFCURVE",
"524 1494 CURVE SMOOTH",
"394 1494 OFFCURVE",
"228 1476 OFFCURVE",
"86 1444 CURVE",
"86 8 LINE",
"206 -6 OFFCURVE",
"346 -14 OFFCURVE",
"470 -14 CURVE SMOOTH"
);
},
{
closed = 1;
nodes = (
"556 312 OFFCURVE",
"522 312 OFFCURVE",
"478 314 CURVE",
"478 1160 LINE",
"502 1166 OFFCURVE",
"544 1170 OFFCURVE",
"572 1170 CURVE SMOOTH",
"758 1170 OFFCURVE",
"876 1072 OFFCURVE",
"876 740 CURVE SMOOTH",
"876 410 OFFCURVE",
"766 312 OFFCURVE",
"578 312 CURVE SMOOTH"
);
},
{
closed = 1;
nodes = (
"194 0 LINE",
"194 728 LINE",
"1202 728 LINE",
"1202 0 LINE",
"1270 0 LINE",
"1270 1480 LINE",
"1202 1480 LINE",
"1202 794 LINE",
"194 794 LINE",
"194 1480 LINE",
"126 1480 LINE",
"126 0 LINE"
);
}
);
};
color = -1;
layerId = "C8FFBC04-9D7C-494A-A42D-BACB8E26599D";
paths = (
{
closed = 1;
nodes = (
"480 0 LINE",
"480 576 LINE",
"886 576 LINE",
"886 0 LINE",
"1278 0 LINE",
"1278 1480 LINE",
"886 1480 LINE",
"886 934 LINE",
"480 934 LINE",
"480 1480 LINE",
"88 1480 LINE",
"88 0 LINE"
);
}
);
width = 1366;
}
);
leftKerningGroup = H;
rightKerningGroup = H;
unicode = 0048;
userData = {
com.typemytype.robofont.layerData = {
};
};
},
{
glyphname = Hbar;
layers = (
{
background = {
components = (
{
name = H;
transform = "{1, 0, 0, 1, 19, 0}";
}
);
paths = (
{
closed = 1;
nodes = (
"2 1100 LINE",
"1274 1100 LINE",
"1274 1150 LINE",
"2 1150 LINE"
);
}
);
};
color = -1;
components = (
{
name = H;
},
{
name = strokelongcomb.case;
transform = "{1, 0, 0, 1, -8, 60}";
}
);
layerId = "ECFF4977-BDCC-4836-B4AC-1801CF0EB460";
width = 1220;
},
{
background = {
components = (
{
name = H;
},
{
name = strokelongcomb.case;
}
);
};
color = -1;
components = (
{
name = H;
},
{
name = strokelongcomb.case;
transform = "{1, 0, 0, 1, -4, 40}";
}
);
layerId = "C8FFBC04-9D7C-494A-A42D-BACB8E26599D";
width = 1366;
}
);
leftKerningGroup = H;
rightKerningGroup = H;
unicode = 0126;
},
{
glyphname = I;
layers = (
{
anchors = (
{
name = bottom;
position = "{198, 0}";
},
{
name = ogonek;
position = "{232, 0}";
},
{
name = top;
position = "{198, 1520}";
}
);
background = {
anchors = (
{
name = bottom;
position = "{204, 0}";
},
{
name = ogonek;
position = "{232, 0}";
},
{
name = topUC;
position = "{204, 1520}";
}
);
paths = (
{
closed = 1;
nodes = (
"164 0 LINE",
"232 0 LINE",
"232 1480 LINE",
"164 1480 LINE"
);
}
);
};
color = -1;
layerId = "ECFF4977-BDCC-4836-B4AC-1801CF0EB460";
paths = (
{
closed = 1;
nodes = (
"232 0 LINE",
"232 1480 LINE",
"164 1480 LINE",
"164 0 LINE"
);
}
);
width = 396;
},
{
anchors = (
{
name = bottom;
position = "{284, 0}";
},
{
name = ogonek;
position = "{480, 0}";
},
{
name = top;
position = "{284, 1520}";
}
);
background = {
anchors = (
{
name = bottom;
position = "{282, 0}";
},
{
name = ogonek;
position = "{476, 0}";
},
{
name = top;
position = "{282, 1610}";
}
);
paths = (
{
closed = 1;
nodes = (
"476 0 LINE",
"476 1480 LINE",
"86 1480 LINE",
"86 0 LINE"
);
}
);
};
color = -1;
layerId = "C8FFBC04-9D7C-494A-A42D-BACB8E26599D";
paths = (
{
closed = 1;
nodes = (
"480 0 LINE",
"480 1480 LINE",
"88 1480 LINE",
"88 0 LINE"
);
}
);
width = 568;
}
);
leftKerningGroup = H;
rightKerningGroup = H;
unicode = 0049;
userData = {
com.typemytype.robofont.layerData = {
};
};
},
{
glyphname = J;
layers = (
{
anchors = (
{
name = bottom;
position = "{272, 0}";
},
{
name = top;
position = "{198, 1520}";
}
);
background = {
anchors = (
{
name = topUC;
position = "{188, 1520}";
}
);
paths = (
{
closed = 1;
nodes = (
"42 -350 LINE",
"172 -108 OFFCURVE",
"232 114 OFFCURVE",
"232 360 CURVE SMOOTH",
"232 1480 LINE",
"164 1480 LINE",
"164 360 LINE SMOOTH",
"164 100 OFFCURVE",
"132 -24 OFFCURVE",
"-6 -318 CURVE"
);
}
);
};
color = -1;
layerId = "ECFF4977-BDCC-4836-B4AC-1801CF0EB460";
paths = (
{
closed = 1;
nodes = (
"174 -136 OFFCURVE",
"224 22 OFFCURVE",
"232 256 CURVE",
"232 1480 LINE",
"164 1480 LINE",
"164 286 LINE SMOOTH",
"164 36 OFFCURVE",
"114 -116 OFFCURVE",
"-6 -306 CURVE",
"44 -340 LINE"
);
}
);
width = 396;
},
{
anchors = (
{
name = bottom;
position = "{480, 0}";
},
{
name = top;
position = "{284, 1520}";
}
);
background = {
paths = (
{
closed = 1;
nodes = (
"416 -124 OFFCURVE",
"492 80 OFFCURVE",
"492 360 CURVE SMOOTH",
"492 1480 LINE",
"100 1480 LINE",
"100 396 LINE SMOOTH",
"100 112 OFFCURVE",
"66 -56 OFFCURVE",
"-48 -320 CURVE",
"196 -428 LINE"
);
}
);
};
color = -1;
layerId = "C8FFBC04-9D7C-494A-A42D-BACB8E26599D";
paths = (
{
closed = 1;
nodes = (
"410 -132 OFFCURVE",
"480 72 OFFCURVE",
"480 322 CURVE SMOOTH",
"480 1480 LINE",
"88 1480 LINE",
"88 306 LINE SMOOTH",
"88 100 OFFCURVE",
"58 -26 OFFCURVE",
"-50 -182 CURVE",
"206 -350 LINE"
);
}
);
width = 568;
}
);
leftKerningGroup = H;
rightKerningGroup = H;
unicode = 004A;
userData = {
com.typemytype.robofont.layerData = {
};
};
},
{
glyphname = K;
layers = (
{
anchors = (
{
name = bottom;
position = "{556, 0}";
},
{
name = top;
position = "{556, 1480}";
}
);
background = {
paths = (
{
closed = 1;
nodes = (
"1078 0 LINE",
"472 774 LINE",
"472 750 LINE",
"1036 1480 LINE",
"952 1480 LINE",
"398 758 LINE",
"992 0 LINE"
);
},
{
closed = 1;
nodes = (
"232 0 LINE",
"232 1480 LINE",
"164 1480 LINE",
"164 0 LINE"
);
},
{
closed = 1;
nodes = (
"440 728 LINE",
"440 792 LINE",
"216 792 LINE",
"216 728 LINE"
);
}
);
};
color = -1;
layerId = "ECFF4977-BDCC-4836-B4AC-1801CF0EB460";
paths = (
{
closed = 1;
nodes = (
"1078 0 LINE",
"472 774 LINE",
"472 750 LINE",
"1036 1480 LINE",
"956 1480 LINE",
"402 758 LINE",
"996 0 LINE"
);
},
{
closed = 1;
nodes = (
"232 0 LINE",
"232 1480 LINE",
"164 1480 LINE",
"164 0 LINE"
);
},
{
closed = 1;
nodes = (
"444 728 LINE",
"444 792 LINE",
"216 792 LINE",
"216 728 LINE"
);
}
);
width = 1040;
},
{
anchors = (
{
name = bottom;
position = "{646, 0}";
},
{
name = top;
position = "{634, 1480}";
}
);
background = {
paths = (
{
closed = 1;
nodes = (
"1306 0 LINE",
"846 812 LINE",
"842 702 LINE",
"1270 1480 LINE",
"860 1480 LINE",
"462 754 LINE",
"888 0 LINE"
);
},
{
closed = 1;
nodes = (
"478 0 LINE",
"478 1480 LINE",
"86 1480 LINE",
"86 0 LINE"
);
},
{
closed = 1;
nodes = (
"600 576 LINE",
"600 934 LINE",
"426 934 LINE",
"426 576 LINE"
);
}
);
};
color = -1;
layerId = "C8FFBC04-9D7C-494A-A42D-BACB8E26599D";
paths = (
{
closed = 1;
nodes = (
"1308 0 LINE",
"848 816 LINE",
"844 706 LINE",
"1272 1480 LINE",
"866 1480 LINE",
"464 750 LINE",
"890 0 LINE"
);
},
{
closed = 1;
nodes = (
"480 0 LINE",
"480 1480 LINE",
"88 1480 LINE",
"88 0 LINE"
);
},
{
closed = 1;
nodes = (
"602 576 LINE",
"602 934 LINE",
"428 934 LINE",
"428 576 LINE"
);
}
);
width = 1238;
}
);
leftKerningGroup = H;
rightKerningGroup = K;
unicode = 004B;
userData = {
com.typemytype.robofont.layerData = {
};
};
},
{
glyphname = L;
layers = (
{
anchors = (
{
name = bottom;
position = "{526, 0}";
},
{
name = caronalt;
position = "{578, 1616}";
},
{
name = periodcentered;
position = "{640, 774}";
},
{
name = slash;
position = "{198, 774}";
},
{
name = top;
position = "{198, 1520}";
}
);
background = {
anchors = (
{
name = bottom;
position = "{458, 0}";
},
{
name = caronalt;
position = "{666, 1480}";
},
{
name = periodcentered;
position = "{570, 740}";
},
{
name = topUC;
position = "{230, 1520}";
}
);
paths = (
{
closed = 1;
nodes = (
"912 0 LINE",
"912 66 LINE",
"232 66 LINE",
"232 1414 LINE",
"902 1414 LINE",
"902 1480 LINE",
"164 1480 LINE",
"164 0 LINE"
);
},
{
closed = 1;
nodes = (
"812 728 LINE",
"812 794 LINE",
"224 794 LINE",
"224 728 LINE"
);
}
);
};
color = -1;
layerId = "ECFF4977-BDCC-4836-B4AC-1801CF0EB460";
paths = (
{
closed = 1;
nodes = (
"886 0 LINE",
"886 66 LINE",
"232 66 LINE",
"232 1480 LINE",
"164 1480 LINE",
"164 0 LINE"
);
}
);
width = 890;
},
{
anchors = (
{
name = bottom;
position = "{560, 0}";
},
{
name = caronalt;
position = "{676, 1616}";
},
{
name = periodcentered;
position = "{796, 894}";
},
{
name = slash;
position = "{292, 854}";
},
{
name = top;
position = "{292, 1520}";
}
);
background = {
paths = (
{
closed = 1;
nodes = (
"1038 0 LINE",
"1038 346 LINE",
"478 346 LINE",
"478 1480 LINE",
"86 1480 LINE",
"86 0 LINE"
);
}
);
};
color = -1;
layerId = "C8FFBC04-9D7C-494A-A42D-BACB8E26599D";
paths = (
{
closed = 1;
nodes = (
"1032 0 LINE",
"1032 346 LINE",
"480 346 LINE",
"480 1480 LINE",
"88 1480 LINE",
"88 0 LINE"
);
}
);
width = 1036;
}
);
leftKerningGroup = H;
rightKerningGroup = L;
unicode = 004C;
userData = {
com.typemytype.robofont.layerData = {
};
};
},
{
glyphname = Lslash;
layers = (
{
background = {
components = (
{
name = L;
transform = "{1, 0, 0, 1, 25, 0}";
}
);
paths = (
{
closed = 1;
nodes = (
"26 440 LINE",
"474 880 LINE",
"474 974 LINE",
"26 534 LINE"
);
}
);
};
color = -1;
components = (
{
name = L;
},
{
name = slashshortcomb.case;
transform = "{1, 0, 0, 1, -202, 0}";
}
);
layerId = "ECFF4977-BDCC-4836-B4AC-1801CF0EB460";
width = 890;
},
{
background = {
components = (
{
name = L;
transform = "{1, 0, 0, 1, 19, 0}";
},
{
name = slashshortcomb.case;
transform = "{1, 0, 0, 1, -29, 37}";
}
);
};
color = -1;
components = (
{
alignment = -1;
name = L;
transform = "{1, 0, 0, 1, 38, 0}";
},
{
name = slashshortcomb.case;
transform = "{1, 0, 0, 1, -70, 80}";
}
);
layerId = "C8FFBC04-9D7C-494A-A42D-BACB8E26599D";
width = 1074;
}
);
leftKerningGroup = H;
rightKerningGroup = L;
unicode = 0141;
},
{
glyphname = M;
layers = (
{
anchors = (
{
name = bottom;
position = "{758, 0}";
},
{
name = top;
position = "{758, 1480}";
}
);
background = {
paths = (
{
closed = 1;
nodes = (
"236 0 LINE",
"236 1420 LINE",
"198 1420 LINE",
"720 200 LINE",
"796 200 LINE",
"1316 1420 LINE",
"1280 1420 LINE",
"1280 0 LINE",
"1348 0 LINE",
"1348 1480 LINE",
"1272 1480 LINE",
"742 232 LINE",
"776 232 LINE",
"244 1480 LINE",
"168 1480 LINE",
"168 0 LINE"
);
}
);
};
color = -1;
layerId = "ECFF4977-BDCC-4836-B4AC-1801CF0EB460";
paths = (
{
closed = 1;
nodes = (
"234 0 LINE",
"234 1420 LINE",
"198 1420 LINE",
"720 200 LINE",
"796 200 LINE",
"1316 1420 LINE",
"1282 1420 LINE",
"1282 0 LINE",
"1348 0 LINE",
"1348 1480 LINE",
"1272 1480 LINE",
"744 232 LINE",
"776 232 LINE",
"244 1480 LINE",
"168 1480 LINE",
"168 0 LINE"
);
}
);
width = 1516;
},
{
anchors = (
{
name = bottom;
position = "{894, 0}";
},
{
name = top;
position = "{894, 1480}";
}
);
background = {
paths = (
{
closed = 1;
nodes = (
"458 0 LINE",
"458 1088 LINE",
"380 1088 LINE",
"716 220 LINE",
"1020 220 LINE",
"1342 1088 LINE",
"1278 1088 LINE",
"1278 0 LINE",
"1644 0 LINE",
"1644 1480 LINE",
"1160 1480 LINE",
"860 632 LINE",
"890 632 LINE",
"576 1480 LINE",
"92 1480 LINE",
"92 0 LINE"
);
}
);
};
color = -1;
layerId = "C8FFBC04-9D7C-494A-A42D-BACB8E26599D";
paths = (
{
closed = 1;
nodes = (
"456 0 LINE",
"456 1102 LINE",
"380 1102 LINE",
"716 220 LINE",
"1020 220 LINE",
"1342 1102 LINE",
"1280 1102 LINE",
"1280 0 LINE",
"1644 0 LINE",
"1644 1480 LINE",
"1160 1480 LINE",
"860 618 LINE",
"890 618 LINE",
"576 1480 LINE",
"92 1480 LINE",
"92 0 LINE"
);
}
);
width = 1736;
}
);
leftKerningGroup = H;
rightKerningGroup = H;
unicode = 004D;
userData = {
com.typemytype.robofont.layerData = {
};
};
},
{
glyphname = N;
layers = (
{
anchors = (
{
name = bottom;
position = "{624, 0}";
},
{
name = top;
position = "{624, 1520}";
}
);
background = {
paths = (
{
closed = 1;
nodes = (
"232 0 LINE",
"232 1420 LINE",
"198 1420 LINE",
"1008 0 LINE",
"1084 0 LINE",
"1084 1480 LINE",
"1016 1480 LINE",
"1016 60 LINE",
"1050 60 LINE",
"240 1480 LINE",
"164 1480 LINE",
"164 0 LINE"
);
}
);
};
color = -1;
layerId = "ECFF4977-BDCC-4836-B4AC-1801CF0EB460";
paths = (
{
closed = 1;
nodes = (
"230 0 LINE",
"230 1420 LINE",
"198 1420 LINE",
"1008 0 LINE",
"1084 0 LINE",
"1084 1480 LINE",
"1018 1480 LINE",
"1018 60 LINE",
"1050 60 LINE",
"240 1480 LINE",
"164 1480 LINE",
"164 0 LINE"
);
}
);
width = 1248;
},
{
anchors = (
{
name = bottom;
position = "{690, 0}";
},
{
name = top;
position = "{690, 1520}";
}
);
background = {
paths = (
{
closed = 1;
nodes = (
"454 0 LINE",
"454 920 LINE",
"396 920 LINE",
"902 0 LINE",
"1292 0 LINE",
"1292 1480 LINE",
"926 1480 LINE",
"926 560 LINE",
"984 560 LINE",
"478 1480 LINE",
"88 1480 LINE",
"88 0 LINE"
);
}
);
};
color = -1;
layerId = "C8FFBC04-9D7C-494A-A42D-BACB8E26599D";
paths = (
{
closed = 1;
nodes = (
"454 0 LINE",
"454 930 LINE",
"396 930 LINE",
"902 0 LINE",
"1292 0 LINE",
"1292 1480 LINE",
"926 1480 LINE",
"926 550 LINE",
"984 550 LINE",
"478 1480 LINE",
"88 1480 LINE",
"88 0 LINE"
);
}
);
width = 1380;
}
);
leftKerningGroup = H;
rightKerningGroup = H;
unicode = 004E;
userData = {
com.typemytype.robofont.layerData = {
};
};
},
{
glyphname = Eng;
layers = (
{
background = {
paths = (
{
closed = 1;
nodes = (
"1024 -256 OFFCURVE",
"1082 -98 OFFCURVE",
"1082 176 CURVE SMOOTH",
"1082 1080 LINE",
"1014 1080 LINE",
"1014 166 LINE SMOOTH",
"1014 -84 OFFCURVE",
"964 -236 OFFCURVE",
"844 -426 CURVE",
"894 -460 LINE"
);
}
);
};
color = -1;
layerId = "ECFF4977-BDCC-4836-B4AC-1801CF0EB460";
paths = (
{
closed = 1;
nodes = (
"1068 28 LINE",
"240 1480 LINE",
"164 1480 LINE",
"164 0 LINE",
"230 0 LINE",
"230 1420 LINE",
"198 1420 LINE",
"1026 -32 LINE"
);
},
{
closed = 1;
nodes = (
"1026 -256 OFFCURVE",
"1084 -98 OFFCURVE",
"1084 176 CURVE SMOOTH",
"1084 1480 LINE",
"1018 1480 LINE",
"1018 166 LINE SMOOTH",
"1018 -84 OFFCURVE",
"966 -236 OFFCURVE",
"846 -426 CURVE",
"896 -460 LINE"
);
}
);
width = 1248;
},
{
background = {
paths = (
{
closed = 1;
nodes = (
"980 566 LINE",
"478 1480 LINE",
"88 1480 LINE",
"88 0 LINE",
"454 0 LINE",
"454 920 LINE",
"396 920 LINE",
"982 -146 LINE"
);
},
{
closed = 1;
nodes = (
"1224 -258 OFFCURVE",
"1292 -54 OFFCURVE",
"1292 236 CURVE SMOOTH",
"1292 1480 LINE",
"926 1480 LINE",
"926 180 LINE SMOOTH",
"926 -26 OFFCURVE",
"886 -152 OFFCURVE",
"766 -308 CURVE",
"1022 -476 LINE"
);
}
);
};
color = -1;
layerId = "C8FFBC04-9D7C-494A-A42D-BACB8E26599D";
paths = (
{
closed = 1;
nodes = (
"980 556 LINE",
"478 1480 LINE",
"88 1480 LINE",
"88 0 LINE",
"454 0 LINE",
"454 930 LINE",
"396 930 LINE",
"982 -146 LINE"
);
},
{
closed = 1;
nodes = (
"1224 -258 OFFCURVE",
"1292 -54 OFFCURVE",
"1292 236 CURVE SMOOTH",
"1292 1480 LINE",
"926 1480 LINE",
"926 180 LINE SMOOTH",
"926 -26 OFFCURVE",
"886 -152 OFFCURVE",
"766 -308 CURVE",
"1022 -476 LINE"
);
}
);
width = 1380;
}
);
leftKerningGroup = H;
rightKerningGroup = H;
unicode = 014A;
},
{
glyphname = O;
layers = (
{
anchors = (
{
name = bottom;
position = "{582, 0}";
},
{
name = center;
position = "{582, 740}";
},
{
name = ogonek;
position = "{722, 0}";
},
{
name = top;
position = "{582, 1520}";
},
{
name = topleft;
position = "{38, 1480}";
},
{
name = topright;
position = "{722, 1480}";
}
);
background = {
paths = (
{
closed = 1;
nodes = (
"290 1498 OFFCURVE",
"98 1298 OFFCURVE",
"98 740 CURVE SMOOTH",
"98 182 OFFCURVE",
"286 -18 OFFCURVE",
"582 -18 CURVE SMOOTH",
"878 -18 OFFCURVE",
"1066 182 OFFCURVE",
"1066 740 CURVE SMOOTH",
"1066 1298 OFFCURVE",
"874 1498 OFFCURVE",
"582 1498 CURVE SMOOTH"
);
},
{
closed = 1;
nodes = (
"830 1432 OFFCURVE",
"994 1274 OFFCURVE",
"994 736 CURVE SMOOTH",
"994 206 OFFCURVE",
"830 48 OFFCURVE",
"582 48 CURVE SMOOTH",
"334 48 OFFCURVE",
"170 206 OFFCURVE",
"170 744 CURVE SMOOTH",
"170 1274 OFFCURVE",
"334 1432 OFFCURVE",
"582 1432 CURVE SMOOTH"
);
}
);
};
color = -1;
layerId = "ECFF4977-BDCC-4836-B4AC-1801CF0EB460";
paths = (
{
closed = 1;
nodes = (
"878 -18 OFFCURVE",
"1066 182 OFFCURVE",
"1066 740 CURVE SMOOTH",
"1066 1298 OFFCURVE",
"878 1498 OFFCURVE",
"582 1498 CURVE SMOOTH",
"286 1498 OFFCURVE",
"98 1298 OFFCURVE",
"98 740 CURVE SMOOTH",
"98 182 OFFCURVE",
"286 -18 OFFCURVE",
"582 -18 CURVE SMOOTH"
);
},
{
closed = 1;
nodes = (
"334 48 OFFCURVE",
"170 206 OFFCURVE",
"170 744 CURVE SMOOTH",
"170 1274 OFFCURVE",
"334 1432 OFFCURVE",
"582 1432 CURVE SMOOTH",
"830 1432 OFFCURVE",
"994 1274 OFFCURVE",
"994 736 CURVE SMOOTH",
"994 206 OFFCURVE",
"830 48 OFFCURVE",
"582 48 CURVE SMOOTH"
);
}
);
width = 1164;
},
{
anchors = (
{
name = bottom;
position = "{698, 0}";
},
{
name = center;
position = "{698, 740}";
},
{
name = ogonek;
position = "{890, 0}";
},
{
name = top;
position = "{698, 1520}";
},
{
name = topleft;
position = "{42, 1480}";
},
{
name = topright;
position = "{882, 1480}";
}
);
background = {
paths = (
{
closed = 1;
nodes = (
"1078 -20 OFFCURVE",
"1342 204 OFFCURVE",
"1342 740 CURVE SMOOTH",
"1342 1276 OFFCURVE",
"1078 1500 OFFCURVE",
"698 1500 CURVE SMOOTH",
"318 1500 OFFCURVE",
"54 1276 OFFCURVE",
"54 740 CURVE SMOOTH",
"54 204 OFFCURVE",
"318 -20 OFFCURVE",
"698 -20 CURVE SMOOTH"
);
},
{
closed = 1;
nodes = (
"540 304 OFFCURVE",
"454 414 OFFCURVE",
"454 748 CURVE SMOOTH",
"454 1066 OFFCURVE",
"540 1176 OFFCURVE",
"698 1176 CURVE SMOOTH",
"856 1176 OFFCURVE",
"942 1066 OFFCURVE",
"942 732 CURVE SMOOTH",
"942 414 OFFCURVE",
"856 304 OFFCURVE",
"698 304 CURVE SMOOTH"
);
}
);
};
color = -1;
layerId = "C8FFBC04-9D7C-494A-A42D-BACB8E26599D";
paths = (
{
closed = 1;
nodes = (
"1078 -20 OFFCURVE",
"1342 204 OFFCURVE",
"1342 740 CURVE SMOOTH",
"1342 1276 OFFCURVE",
"1078 1500 OFFCURVE",
"698 1500 CURVE SMOOTH",
"318 1500 OFFCURVE",
"54 1276 OFFCURVE",
"54 740 CURVE SMOOTH",
"54 204 OFFCURVE",
"318 -20 OFFCURVE",
"698 -20 CURVE SMOOTH"
);
},
{
closed = 1;
nodes = (
"544 304 OFFCURVE",
"458 414 OFFCURVE",
"458 748 CURVE SMOOTH",
"458 1066 OFFCURVE",
"544 1176 OFFCURVE",
"698 1176 CURVE SMOOTH",
"852 1176 OFFCURVE",
"938 1066 OFFCURVE",
"938 732 CURVE SMOOTH",
"938 414 OFFCURVE",
"852 304 OFFCURVE",
"698 304 CURVE SMOOTH"
);
}
);
width = 1396;
}
);
leftKerningGroup = O;
rightKerningGroup = O;
unicode = 004F;
userData = {
com.typemytype.robofont.layerData = {
};
};
},
{
glyphname = Ohorn;
layers = (
{
anchors = (
{
name = bottom;
position = "{582, 0}";
},
{
name = top;
position = "{582, 1520}";
}
);
background = {
paths = (
{
closed = 1;
nodes = (
"872 -18 OFFCURVE",
"1064 182 OFFCURVE",
"1064 740 CURVE SMOOTH",
"1064 1298 OFFCURVE",
"876 1498 OFFCURVE",
"580 1498 CURVE SMOOTH",
"284 1498 OFFCURVE",
"96 1298 OFFCURVE",
"96 740 CURVE SMOOTH",
"96 182 OFFCURVE",
"288 -18 OFFCURVE",
"580 -18 CURVE SMOOTH"
);
},
{
closed = 1;
nodes = (
"332 48 OFFCURVE",
"168 206 OFFCURVE",
"168 744 CURVE SMOOTH",
"168 1274 OFFCURVE",
"332 1432 OFFCURVE",
"580 1432 CURVE SMOOTH",
"828 1432 OFFCURVE",
"992 1274 OFFCURVE",
"992 736 CURVE SMOOTH",
"992 206 OFFCURVE",
"828 48 OFFCURVE",
"580 48 CURVE SMOOTH"
);
},
{
closed = 1;
nodes = (
"836 1414 LINE SMOOTH",
"964 1414 OFFCURVE",
"1064 1494 OFFCURVE",
"1064 1642 CURVE SMOOTH",
"1064 1702 OFFCURVE",
"1056 1740 OFFCURVE",
"1040 1786 CURVE",
"974 1786 LINE",
"988 1740 OFFCURVE",
"998 1700 OFFCURVE",
"998 1644 CURVE SMOOTH",
"998 1528 OFFCURVE",
"920 1480 OFFCURVE",
"820 1480 CURVE SMOOTH",
"758 1480 OFFCURVE",
"662 1498 OFFCURVE",
"580 1498 CURVE",
"788 1414 LINE"
);
}
);
};
color = -1;
layerId = "ECFF4977-BDCC-4836-B4AC-1801CF0EB460";
paths = (
{
closed = 1;
nodes = (
"874 -18 OFFCURVE",
"1066 182 OFFCURVE",
"1066 740 CURVE SMOOTH",
"1066 1108 OFFCURVE",
"984 1322 OFFCURVE",
"842 1422 CURVE",
"832 1410 LINE",
"966 1410 OFFCURVE",
"1066 1490 OFFCURVE",
"1066 1632 CURVE SMOOTH",
"1066 1692 OFFCURVE",
"1058 1730 OFFCURVE",
"1042 1776 CURVE",
"976 1776 LINE",
"990 1730 OFFCURVE",
"1000 1690 OFFCURVE",
"1000 1634 CURVE SMOOTH",
"1000 1524 OFFCURVE",
"922 1476 OFFCURVE",
"822 1476 CURVE SMOOTH",
"744 1476 OFFCURVE",
"690 1498 OFFCURVE",
"582 1498 CURVE SMOOTH",
"286 1498 OFFCURVE",
"98 1298 OFFCURVE",
"98 740 CURVE SMOOTH",
"98 182 OFFCURVE",
"290 -18 OFFCURVE",
"582 -18 CURVE SMOOTH"
);
},
{
closed = 1;
nodes = (
"334 48 OFFCURVE",
"170 206 OFFCURVE",
"170 744 CURVE SMOOTH",
"170 1274 OFFCURVE",
"334 1432 OFFCURVE",
"582 1432 CURVE SMOOTH",
"830 1432 OFFCURVE",
"994 1274 OFFCURVE",
"994 736 CURVE SMOOTH",
"994 206 OFFCURVE",
"830 48 OFFCURVE",
"582 48 CURVE SMOOTH"
);
}
);
width = 1164;
},
{
anchors = (
{
name = bottom;
position = "{698, 0}";
},
{
name = top;
position = "{698, 1520}";
}
);
background = {
paths = (
{
closed = 1;
nodes = (
"1084 -20 OFFCURVE",
"1342 204 OFFCURVE",
"1342 740 CURVE SMOOTH",
"1342 1060 OFFCURVE",
"1248 1270 OFFCURVE",
"1090 1384 CURVE",
"1030 1304 LINE",
"1222 1304 OFFCURVE",
"1362 1384 OFFCURVE",
"1362 1612 CURVE SMOOTH",
"1362 1672 OFFCURVE",
"1358 1726 OFFCURVE",
"1342 1776 CURVE",
"1076 1776 LINE",
"1088 1724 OFFCURVE",
"1092 1678 OFFCURVE",
"1092 1636 CURVE SMOOTH",
"1092 1518 OFFCURVE",
"1040 1480 OFFCURVE",
"946 1480 CURVE SMOOTH",
"862 1480 OFFCURVE",
"804 1500 OFFCURVE",
"698 1500 CURVE SMOOTH",
"318 1500 OFFCURVE",
"54 1276 OFFCURVE",
"54 740 CURVE SMOOTH",
"54 204 OFFCURVE",
"312 -20 OFFCURVE",
"698 -20 CURVE SMOOTH"
);
},
{
closed = 1;
nodes = (
"540 304 OFFCURVE",
"454 414 OFFCURVE",
"454 748 CURVE SMOOTH",
"454 1066 OFFCURVE",
"540 1176 OFFCURVE",
"698 1176 CURVE SMOOTH",
"856 1176 OFFCURVE",
"942 1066 OFFCURVE",
"942 732 CURVE SMOOTH",
"942 414 OFFCURVE",
"856 304 OFFCURVE",
"698 304 CURVE SMOOTH"
);
}
);
};
color = -1;
layerId = "C8FFBC04-9D7C-494A-A42D-BACB8E26599D";
paths = (
{
closed = 1;
nodes = (
"1084 -20 OFFCURVE",
"1342 204 OFFCURVE",
"1342 740 CURVE SMOOTH",
"1342 1060 OFFCURVE",
"1248 1270 OFFCURVE",
"1090 1384 CURVE",
"1030 1304 LINE",
"1222 1304 OFFCURVE",
"1362 1384 OFFCURVE",
"1362 1612 CURVE SMOOTH",
"1362 1672 OFFCURVE",
"1358 1726 OFFCURVE",
"1342 1776 CURVE",
"1076 1776 LINE",
"1088 1724 OFFCURVE",
"1092 1678 OFFCURVE",
"1092 1636 CURVE SMOOTH",
"1092 1518 OFFCURVE",
"1040 1480 OFFCURVE",
"946 1480 CURVE SMOOTH",
"862 1480 OFFCURVE",
"804 1500 OFFCURVE",
"698 1500 CURVE SMOOTH",
"318 1500 OFFCURVE",
"54 1276 OFFCURVE",
"54 740 CURVE SMOOTH",
"54 204 OFFCURVE",
"312 -20 OFFCURVE",
"698 -20 CURVE SMOOTH"
);
},
{
closed = 1;
nodes = (
"544 304 OFFCURVE",
"458 414 OFFCURVE",
"458 748 CURVE SMOOTH",
"458 1066 OFFCURVE",
"544 1176 OFFCURVE",
"698 1176 CURVE SMOOTH",
"852 1176 OFFCURVE",
"938 1066 OFFCURVE",
"938 732 CURVE SMOOTH",
"938 414 OFFCURVE",
"852 304 OFFCURVE",
"698 304 CURVE SMOOTH"
);
}
);
width = 1396;
}
);
leftKerningGroup = O;
rightKerningGroup = O;
unicode = 01A0;
},
{
glyphname = Ohorntilde;
layers = (
{
color = -1;
layerId = "ECFF4977-BDCC-4836-B4AC-1801CF0EB460";
paths = (
{
closed = 1;
nodes = (
"874 -18 OFFCURVE",
"1066 182 OFFCURVE",
"1066 740 CURVE SMOOTH",
"1066 1108 OFFCURVE",
"984 1322 OFFCURVE",
"842 1422 CURVE",
"832 1410 LINE",
"966 1410 OFFCURVE",
"1066 1490 OFFCURVE",
"1066 1632 CURVE SMOOTH",
"1066 1692 OFFCURVE",
"1058 1730 OFFCURVE",
"1042 1776 CURVE",
"976 1776 LINE",
"990 1730 OFFCURVE",
"1000 1690 OFFCURVE",
"1000 1634 CURVE SMOOTH",
"1000 1524 OFFCURVE",
"922 1476 OFFCURVE",
"822 1476 CURVE SMOOTH",
"744 1476 OFFCURVE",
"690 1498 OFFCURVE",
"582 1498 CURVE SMOOTH",
"286 1498 OFFCURVE",
"98 1298 OFFCURVE",
"98 740 CURVE SMOOTH",
"98 182 OFFCURVE",
"290 -18 OFFCURVE",
"582 -18 CURVE SMOOTH"
);
},
{
closed = 1;
nodes = (
"334 48 OFFCURVE",
"170 206 OFFCURVE",
"170 744 CURVE SMOOTH",
"170 1274 OFFCURVE",
"334 1432 OFFCURVE",
"582 1432 CURVE SMOOTH",
"830 1432 OFFCURVE",
"994 1274 OFFCURVE",
"994 736 CURVE SMOOTH",
"994 206 OFFCURVE",
"830 48 OFFCURVE",
"582 48 CURVE SMOOTH"
);
},
{
closed = 1;
nodes = (
"768 1696 OFFCURVE",
"814 1720 OFFCURVE",
"844 1758 CURVE",
"844 1824 LINE",
"806 1776 OFFCURVE",
"766 1752 OFFCURVE",
"710 1752 CURVE SMOOTH",
"628 1752 OFFCURVE",
"554 1830 OFFCURVE",
"454 1830 CURVE SMOOTH",
"396 1830 OFFCURVE",
"350 1806 OFFCURVE",
"320 1768 CURVE",
"320 1702 LINE",
"358 1750 OFFCURVE",
"398 1774 OFFCURVE",
"454 1774 CURVE SMOOTH",
"536 1774 OFFCURVE",
"610 1696 OFFCURVE",
"710 1696 CURVE SMOOTH"
);
}
);
width = 1164;
},
{
background = {
paths = (
{
closed = 1;
nodes = (
"1084 -20 OFFCURVE",
"1342 204 OFFCURVE",
"1342 740 CURVE SMOOTH",
"1342 1060 OFFCURVE",
"1248 1270 OFFCURVE",
"1090 1384 CURVE",
"1030 1304 LINE",
"1222 1304 OFFCURVE",
"1362 1384 OFFCURVE",
"1362 1612 CURVE SMOOTH",
"1362 1672 OFFCURVE",
"1358 1726 OFFCURVE",
"1342 1776 CURVE",
"1076 1776 LINE",
"1088 1724 OFFCURVE",
"1092 1678 OFFCURVE",
"1092 1636 CURVE SMOOTH",
"1092 1518 OFFCURVE",
"1040 1480 OFFCURVE",
"946 1480 CURVE SMOOTH",
"862 1480 OFFCURVE",
"804 1500 OFFCURVE",
"698 1500 CURVE SMOOTH",
"318 1500 OFFCURVE",
"54 1276 OFFCURVE",
"54 740 CURVE SMOOTH",
"54 204 OFFCURVE",
"312 -20 OFFCURVE",
"698 -20 CURVE SMOOTH"
);
},
{
closed = 1;
nodes = (
"540 304 OFFCURVE",
"454 414 OFFCURVE",
"454 748 CURVE SMOOTH",
"454 1066 OFFCURVE",
"540 1176 OFFCURVE",
"698 1176 CURVE SMOOTH",
"856 1176 OFFCURVE",
"942 1066 OFFCURVE",
"942 732 CURVE SMOOTH",
"942 414 OFFCURVE",
"856 304 OFFCURVE",
"698 304 CURVE SMOOTH"
);
},
{
closed = 1;
nodes = (
"934 1586 OFFCURVE",
"988 1608 OFFCURVE",
"1036 1662 CURVE",
"1036 1896 LINE",
"981 1846 OFFCURVE",
"930 1820 OFFCURVE",
"855 1820 CURVE SMOOTH",
"752 1820 OFFCURVE",
"669 1902 OFFCURVE",
"545 1902 CURVE SMOOTH",
"462 1902 OFFCURVE",
"408 1878 OFFCURVE",
"360 1824 CURVE",
"360 1590 LINE",
"415 1640 OFFCURVE",
"466 1666 OFFCURVE",
"541 1666 CURVE SMOOTH",
"644 1666 OFFCURVE",
"727 1586 OFFCURVE",
"851 1586 CURVE SMOOTH"
);
}
);
};
color = -1;
layerId = "C8FFBC04-9D7C-494A-A42D-BACB8E26599D";
paths = (
{
closed = 1;
nodes = (
"1084 -20 OFFCURVE",
"1342 204 OFFCURVE",
"1342 740 CURVE SMOOTH",
"1342 1060 OFFCURVE",
"1248 1270 OFFCURVE",
"1090 1384 CURVE",
"1030 1304 LINE",
"1222 1304 OFFCURVE",
"1362 1384 OFFCURVE",
"1362 1612 CURVE SMOOTH",
"1362 1672 OFFCURVE",
"1358 1726 OFFCURVE",
"1342 1776 CURVE",
"1076 1776 LINE",
"1088 1724 OFFCURVE",
"1092 1678 OFFCURVE",
"1092 1636 CURVE SMOOTH",
"1092 1518 OFFCURVE",
"1040 1480 OFFCURVE",
"946 1480 CURVE SMOOTH",
"862 1480 OFFCURVE",
"804 1500 OFFCURVE",
"698 1500 CURVE SMOOTH",
"318 1500 OFFCURVE",
"54 1276 OFFCURVE",
"54 740 CURVE SMOOTH",
"54 204 OFFCURVE",
"312 -20 OFFCURVE",
"698 -20 CURVE SMOOTH"
);
},
{
closed = 1;
nodes = (
"544 304 OFFCURVE",
"458 414 OFFCURVE",
"458 748 CURVE SMOOTH",
"458 1066 OFFCURVE",
"544 1176 OFFCURVE",
"698 1176 CURVE SMOOTH",
"852 1176 OFFCURVE",
"938 1066 OFFCURVE",
"938 732 CURVE SMOOTH",
"938 414 OFFCURVE",
"852 304 OFFCURVE",
"698 304 CURVE SMOOTH"
);
},
{
closed = 1;
nodes = (
"934 1586 OFFCURVE",
"988 1608 OFFCURVE",
"1036 1662 CURVE",
"1036 1896 LINE",
"980 1846 OFFCURVE",
"930 1820 OFFCURVE",
"854 1820 CURVE SMOOTH",
"752 1820 OFFCURVE",
"670 1902 OFFCURVE",
"546 1902 CURVE SMOOTH",
"462 1902 OFFCURVE",
"408 1878 OFFCURVE",
"360 1824 CURVE",
"360 1590 LINE",
"416 1640 OFFCURVE",
"466 1666 OFFCURVE",
"542 1666 CURVE SMOOTH",
"644 1666 OFFCURVE",
"726 1586 OFFCURVE",
"852 1586 CURVE SMOOTH"
);
}
);
width = 1396;
}
);
leftKerningGroup = O;
rightKerningGroup = O;
unicode = 1EE0;
},
{
glyphname = Oogonek;
layers = (
{
background = {
paths = (
{
closed = 1;
nodes = (
"872 -18 OFFCURVE",
"1064 182 OFFCURVE",
"1064 740 CURVE SMOOTH",
"1064 1298 OFFCURVE",
"876 1498 OFFCURVE",
"580 1498 CURVE SMOOTH",
"284 1498 OFFCURVE",
"96 1298 OFFCURVE",
"96 740 CURVE SMOOTH",
"96 182 OFFCURVE",
"288 -18 OFFCURVE",
"580 -18 CURVE SMOOTH"
);
},
{
closed = 1;
nodes = (
"332 48 OFFCURVE",
"168 206 OFFCURVE",
"168 744 CURVE SMOOTH",
"168 1274 OFFCURVE",
"332 1432 OFFCURVE",
"580 1432 CURVE SMOOTH",
"828 1432 OFFCURVE",
"992 1274 OFFCURVE",
"992 736 CURVE SMOOTH",
"992 206 OFFCURVE",
"828 48 OFFCURVE",
"580 48 CURVE SMOOTH"
);
},
{
closed = 1;
nodes = (
"734 -400 OFFCURVE",
"782 -388 OFFCURVE",
"832 -362 CURVE",
"832 -308 LINE",
"770 -338 OFFCURVE",
"726 -348 OFFCURVE",
"684 -348 CURVE SMOOTH",
"592 -348 OFFCURVE",
"544 -310 OFFCURVE",
"544 -228 CURVE SMOOTH",
"544 -148 OFFCURVE",
"590 -80 OFFCURVE",
"720 0 CURVE",
"692 46 LINE",
"550 -42 OFFCURVE",
"488 -128 OFFCURVE",
"488 -232 CURVE SMOOTH",
"488 -342 OFFCURVE",
"560 -400 OFFCURVE",
"686 -400 CURVE SMOOTH"
);
}
);
};
color = -1;
layerId = "ECFF4977-BDCC-4836-B4AC-1801CF0EB460";
paths = (
{
closed = 1;
nodes = (
"736 -400 OFFCURVE",
"784 -388 OFFCURVE",
"834 -362 CURVE",
"834 -308 LINE",
"772 -338 OFFCURVE",
"728 -348 OFFCURVE",
"686 -348 CURVE SMOOTH",
"594 -348 OFFCURVE",
"546 -310 OFFCURVE",
"546 -228 CURVE SMOOTH",
"546 -140 OFFCURVE",
"608 -54 OFFCURVE",
"756 10 CURVE SMOOTH",
"950 94 OFFCURVE",
"1066 300 OFFCURVE",
"1066 740 CURVE SMOOTH",
"1066 1298 OFFCURVE",
"878 1498 OFFCURVE",
"582 1498 CURVE SMOOTH",
"286 1498 OFFCURVE",
"98 1298 OFFCURVE",
"98 740 CURVE SMOOTH",
"98 182 OFFCURVE",
"290 -18 OFFCURVE",
"582 -18 CURVE SMOOTH",
"634 -18 LINE",
"634 -2 LINE",
"528 -68 OFFCURVE",
"488 -148 OFFCURVE",
"488 -232 CURVE SMOOTH",
"488 -342 OFFCURVE",
"562 -400 OFFCURVE",
"688 -400 CURVE SMOOTH"
);
},
{
closed = 1;
nodes = (
"334 48 OFFCURVE",
"170 206 OFFCURVE",
"170 744 CURVE SMOOTH",
"170 1274 OFFCURVE",
"334 1432 OFFCURVE",
"582 1432 CURVE SMOOTH",
"830 1432 OFFCURVE",
"994 1274 OFFCURVE",
"994 736 CURVE SMOOTH",
"994 206 OFFCURVE",
"830 48 OFFCURVE",
"582 48 CURVE SMOOTH"
);
}
);
width = 1164;
},
{
background = {
paths = (
{
closed = 1;
nodes = (
"834 -460 OFFCURVE",
"890 -448 OFFCURVE",
"942 -430 CURVE",
"942 -280 LINE",
"894 -298 OFFCURVE",
"850 -306 OFFCURVE",
"812 -306 CURVE SMOOTH",
"720 -306 OFFCURVE",
"684 -272 OFFCURVE",
"684 -216 CURVE SMOOTH",
"684 -130 OFFCURVE",
"752 -54 OFFCURVE",
"954 20 CURVE SMOOTH",
"1164 96 OFFCURVE",
"1342 298 OFFCURVE",
"1342 740 CURVE SMOOTH",
"1342 1276 OFFCURVE",
"1078 1500 OFFCURVE",
"698 1500 CURVE SMOOTH",
"318 1500 OFFCURVE",
"54 1276 OFFCURVE",
"54 740 CURVE SMOOTH",
"54 204 OFFCURVE",
"312 -20 OFFCURVE",
"698 -20 CURVE SMOOTH",
"726 -20 LINE",
"766 64 LINE",
"544 -18 OFFCURVE",
"468 -114 OFFCURVE",
"468 -238 CURVE SMOOTH",
"468 -374 OFFCURVE",
"560 -460 OFFCURVE",
"760 -460 CURVE SMOOTH"
);
},
{
closed = 1;
nodes = (
"540 304 OFFCURVE",
"454 414 OFFCURVE",
"454 748 CURVE SMOOTH",
"454 1066 OFFCURVE",
"540 1176 OFFCURVE",
"698 1176 CURVE SMOOTH",
"856 1176 OFFCURVE",
"942 1066 OFFCURVE",
"942 732 CURVE SMOOTH",
"942 414 OFFCURVE",
"856 304 OFFCURVE",
"698 304 CURVE SMOOTH"
);
}
);
};
color = -1;
layerId = "C8FFBC04-9D7C-494A-A42D-BACB8E26599D";
paths = (
{
closed = 1;
nodes = (
"834 -460 OFFCURVE",
"890 -448 OFFCURVE",
"942 -430 CURVE",
"942 -280 LINE",
"894 -298 OFFCURVE",
"850 -306 OFFCURVE",
"812 -306 CURVE SMOOTH",
"720 -306 OFFCURVE",
"684 -272 OFFCURVE",
"684 -216 CURVE SMOOTH",
"684 -130 OFFCURVE",
"752 -54 OFFCURVE",
"954 20 CURVE SMOOTH",
"1164 96 OFFCURVE",
"1342 298 OFFCURVE",
"1342 740 CURVE SMOOTH",
"1342 1276 OFFCURVE",
"1078 1500 OFFCURVE",
"698 1500 CURVE SMOOTH",
"318 1500 OFFCURVE",
"54 1276 OFFCURVE",
"54 740 CURVE SMOOTH",
"54 204 OFFCURVE",
"312 -20 OFFCURVE",
"698 -20 CURVE SMOOTH",
"726 -20 LINE",
"766 64 LINE",
"544 -18 OFFCURVE",
"468 -114 OFFCURVE",
"468 -238 CURVE SMOOTH",
"468 -374 OFFCURVE",
"560 -460 OFFCURVE",
"760 -460 CURVE SMOOTH"
);
},
{
closed = 1;
nodes = (
"544 304 OFFCURVE",
"458 414 OFFCURVE",
"458 748 CURVE SMOOTH",
"458 1066 OFFCURVE",
"544 1176 OFFCURVE",
"698 1176 CURVE SMOOTH",
"852 1176 OFFCURVE",
"938 1066 OFFCURVE",
"938 732 CURVE SMOOTH",
"938 414 OFFCURVE",
"852 304 OFFCURVE",
"698 304 CURVE SMOOTH"
);
}
);
width = 1396;
}
);
leftKerningGroup = O;
rightKerningGroup = O;
unicode = 01EA;
},
{
glyphname = Oslash;
layers = (
{
anchors = (
{
name = bottom;
position = "{584, 0}";
},
{
name = top;
position = "{584, 1520}";
}
);
background = {
anchors = (
{
name = topUC;
position = "{594, 1520}";
}
);
paths = (
{
closed = 1;
nodes = (
"600 -20 CURVE SMOOTH",
"924 -20 OFFCURVE",
"1088 234 OFFCURVE",
"1088 738 CURVE SMOOTH",
"1088 1248 OFFCURVE",
"926 1500 OFFCURVE",
"600 1500 CURVE SMOOTH",
"272 1500 OFFCURVE",
"112 1250 OFFCURVE",
"112 738 CURVE SMOOTH",
"112 230 OFFCURVE",
"272 -20 OFFCURVE"
);
},
{
closed = 1;
nodes = (
"600 48 CURVE SMOOTH",
"308 48 OFFCURVE",
"180 258 OFFCURVE",
"180 738 CURVE SMOOTH",
"180 1218 OFFCURVE",
"310 1432 OFFCURVE",
"600 1432 CURVE SMOOTH",
"884 1432 OFFCURVE",
"1020 1208 OFFCURVE",
"1020 738 CURVE SMOOTH",
"1020 262 OFFCURVE",
"890 48 OFFCURVE"
);
},
{
closed = 1;
nodes = (
"50 0 LINE",
"130 0 LINE",
"1150 1480 LINE",
"1072 1480 LINE"
);
}
);
};
color = -1;
components = (
{
name = O;
},
{
name = slashcomb.case;
transform = "{1, 0, 0, 1, -18, 0}";
}
);
layerId = "ECFF4977-BDCC-4836-B4AC-1801CF0EB460";
width = 1164;
},
{
anchors = (
{
name = bottom;
position = "{700, 0}";
},
{
name = top;
position = "{700, 1520}";
}
);
background = {
anchors = (
{
name = top;
position = "{690, 1610}";
}
);
components = (
{
name = slashcomb.case;
}
);
paths = (
{
closed = 1;
nodes = (
"1122 -20 OFFCURVE",
"1326 222 OFFCURVE",
"1326 738 CURVE SMOOTH",
"1326 1256 OFFCURVE",
"1122 1500 OFFCURVE",
"688 1500 CURVE SMOOTH",
"262 1500 OFFCURVE",
"54 1250 OFFCURVE",
"54 738 CURVE SMOOTH",
"54 228 OFFCURVE",
"262 -20 OFFCURVE",
"688 -20 CURVE SMOOTH"
);
},
{
closed = 1;
nodes = (
"512 298 OFFCURVE",
"454 408 OFFCURVE",
"454 738 CURVE SMOOTH",
"454 1074 OFFCURVE",
"512 1182 OFFCURVE",
"688 1182 CURVE SMOOTH",
"872 1182 OFFCURVE",
"926 1080 OFFCURVE",
"926 738 CURVE SMOOTH",
"926 404 OFFCURVE",
"868 298 OFFCURVE",
"688 298 CURVE SMOOTH"
);
}
);
};
color = -1;
components = (
{
name = O;
},
{
name = slashcomb.case;
transform = "{1, 0, 0, 1, 98, 0}";
}
);
layerId = "C8FFBC04-9D7C-494A-A42D-BACB8E26599D";
width = 1396;
}
);
leftKerningGroup = O;
rightKerningGroup = O;
unicode = 00D8;
userData = {
com.typemytype.robofont.layerData = {
};
};
},
{
glyphname = OE;
layers = (
{
anchors = (
{
name = bottom;
position = "{934, 0}";
},
{
name = top;
position = "{934, 1520}";
}
);
background = {
paths = (
{
closed = 1;
nodes = (
"816 -10 OFFCURVE",
"886 -6 OFFCURVE",
"990 4 CURVE",
"990 1468 LINE",
"900 1482 OFFCURVE",
"806 1494 OFFCURVE",
"712 1494 CURVE SMOOTH",
"302 1494 OFFCURVE",
"96 1258 OFFCURVE",
"96 740 CURVE SMOOTH",
"96 206 OFFCURVE",
"320 -10 OFFCURVE",
"740 -10 CURVE SMOOTH"
);
},
{
closed = 1;
nodes = (
"356 56 OFFCURVE",
"168 246 OFFCURVE",
"168 740 CURVE SMOOTH",
"168 1224 OFFCURVE",
"338 1428 OFFCURVE",
"716 1428 CURVE SMOOTH",
"780 1428 OFFCURVE",
"846 1422 OFFCURVE",
"922 1410 CURVE",
"922 66 LINE",
"856 58 OFFCURVE",
"800 56 OFFCURVE",
"738 56 CURVE SMOOTH"
);
},
{
closed = 1;
nodes = (
"1670 0 LINE",
"1670 66 LINE",
"990 66 LINE",
"990 1414 LINE",
"1660 1414 LINE",
"1660 1480 LINE",
"922 1480 LINE",
"922 0 LINE"
);
},
{
closed = 1;
nodes = (
"1570 728 LINE",
"1570 794 LINE",
"982 794 LINE",
"982 728 LINE"
);
}
);
};
color = -1;
layerId = "ECFF4977-BDCC-4836-B4AC-1801CF0EB460";
paths = (
{
closed = 1;
nodes = (
"832 -10 OFFCURVE",
"886 0 OFFCURVE",
"946 0 CURVE SMOOTH",
"1624 0 LINE",
"1624 66 LINE",
"968 66 LINE",
"968 1414 LINE",
"1614 1414 LINE",
"1614 1480 LINE",
"940 1480 LINE SMOOTH",
"882 1480 OFFCURVE",
"810 1494 OFFCURVE",
"700 1494 CURVE SMOOTH",
"304 1494 OFFCURVE",
"98 1258 OFFCURVE",
"98 740 CURVE SMOOTH",
"98 206 OFFCURVE",
"322 -10 OFFCURVE",
"728 -10 CURVE SMOOTH"
);
},
{
closed = 1;
nodes = (
"358 56 OFFCURVE",
"170 246 OFFCURVE",
"170 740 CURVE SMOOTH",
"170 1224 OFFCURVE",
"340 1428 OFFCURVE",
"704 1428 CURVE SMOOTH",
"768 1428 OFFCURVE",
"834 1424 OFFCURVE",
"900 1414 CURVE",
"900 66 LINE",
"844 58 OFFCURVE",
"788 56 OFFCURVE",
"726 56 CURVE SMOOTH"
);
},
{
closed = 1;
nodes = (
"1524 728 LINE",
"1524 794 LINE",
"960 794 LINE",
"960 728 LINE"
);
}
);
width = 1658;
},
{
anchors = (
{
name = bottom;
position = "{1042, 0}";
},
{
name = top;
position = "{1042, 1520}";
}
);
background = {
paths = (
{
closed = 1;
nodes = (
"894 -10 OFFCURVE",
"1012 0 OFFCURVE",
"1098 0 CURVE SMOOTH",
"1806 0 LINE",
"1806 338 LINE",
"1234 338 LINE",
"1234 1142 LINE",
"1796 1142 LINE",
"1796 1480 LINE",
"1098 1480 LINE SMOOTH",
"1012 1480 OFFCURVE",
"914 1490 OFFCURVE",
"822 1490 CURVE SMOOTH",
"346 1490 OFFCURVE",
"54 1258 OFFCURVE",
"54 740 CURVE SMOOTH",
"54 230 OFFCURVE",
"310 -10 OFFCURVE",
"802 -10 CURVE SMOOTH"
);
},
{
closed = 1;
nodes = (
"568 314 OFFCURVE",
"458 412 OFFCURVE",
"458 740 CURVE SMOOTH",
"458 1066 OFFCURVE",
"568 1164 OFFCURVE",
"748 1164 CURVE SMOOTH",
"770 1164 OFFCURVE",
"804 1164 OFFCURVE",
"848 1162 CURVE",
"848 316 LINE",
"804 314 OFFCURVE",
"776 314 OFFCURVE",
"748 314 CURVE SMOOTH"
);
},
{
closed = 1;
nodes = (
"1692 588 LINE",
"1692 922 LINE",
"1126 922 LINE",
"1126 588 LINE"
);
}
);
};
color = -1;
layerId = "C8FFBC04-9D7C-494A-A42D-BACB8E26599D";
paths = (
{
closed = 1;
nodes = (
"894 -10 OFFCURVE",
"1012 0 OFFCURVE",
"1098 0 CURVE SMOOTH",
"1806 0 LINE",
"1806 334 LINE",
"1234 334 LINE",
"1234 1146 LINE",
"1796 1146 LINE",
"1796 1480 LINE",
"1098 1480 LINE SMOOTH",
"1012 1480 OFFCURVE",
"914 1490 OFFCURVE",
"822 1490 CURVE SMOOTH",
"346 1490 OFFCURVE",
"54 1258 OFFCURVE",
"54 740 CURVE SMOOTH",
"54 230 OFFCURVE",
"310 -10 OFFCURVE",
"802 -10 CURVE SMOOTH"
);
},
{
closed = 1;
nodes = (
"568 314 OFFCURVE",
"458 412 OFFCURVE",
"458 740 CURVE SMOOTH",
"458 1066 OFFCURVE",
"568 1164 OFFCURVE",
"748 1164 CURVE SMOOTH",
"770 1164 OFFCURVE",
"804 1164 OFFCURVE",
"848 1162 CURVE",
"848 316 LINE",
"804 314 OFFCURVE",
"776 314 OFFCURVE",
"748 314 CURVE SMOOTH"
);
},
{
closed = 1;
nodes = (
"1692 588 LINE",
"1692 922 LINE",
"1126 922 LINE",
"1126 588 LINE"
);
}
);
width = 1864;
}
);
leftKerningGroup = O;
rightKerningGroup = E;
unicode = 0152;
},
{
glyphname = P;
layers = (
{
background = {
paths = (
{
closed = 1;
nodes = (
"232 0 LINE",
"232 524 LINE",
"290 520 OFFCURVE",
"346 518 OFFCURVE",
"394 518 CURVE SMOOTH",
"764 518 OFFCURVE",
"934 686 OFFCURVE",
"934 1004 CURVE SMOOTH",
"934 1340 OFFCURVE",
"764 1494 OFFCURVE",
"436 1494 CURVE SMOOTH",
"348 1494 OFFCURVE",
"254 1482 OFFCURVE",
"164 1468 CURVE",
"164 0 LINE"
);
},
{
closed = 1;
nodes = (
"332 584 OFFCURVE",
"292 586 OFFCURVE",
"232 592 CURVE",
"232 1412 LINE",
"308 1422 OFFCURVE",
"374 1428 OFFCURVE",
"436 1428 CURVE SMOOTH",
"724 1428 OFFCURVE",
"862 1300 OFFCURVE",
"862 1000 CURVE SMOOTH",
"862 718 OFFCURVE",
"714 584 OFFCURVE",
"400 584 CURVE SMOOTH"
);
}
);
};
color = -1;
layerId = "ECFF4977-BDCC-4836-B4AC-1801CF0EB460";
paths = (
{
closed = 1;
nodes = (
"232 0 LINE",
"232 526 LINE",
"290 520 OFFCURVE",
"346 518 OFFCURVE",
"408 518 CURVE SMOOTH",
"790 518 OFFCURVE",
"962 686 OFFCURVE",
"962 1004 CURVE SMOOTH",
"962 1340 OFFCURVE",
"790 1494 OFFCURVE",
"450 1494 CURVE SMOOTH",
"348 1494 OFFCURVE",
"250 1482 OFFCURVE",
"164 1468 CURVE",
"164 0 LINE"
);
},
{
closed = 1;
nodes = (
"352 584 OFFCURVE",
"292 586 OFFCURVE",
"232 594 CURVE",
"232 1412 LINE",
"302 1422 OFFCURVE",
"374 1428 OFFCURVE",
"450 1428 CURVE SMOOTH",
"750 1428 OFFCURVE",
"890 1300 OFFCURVE",
"890 1000 CURVE SMOOTH",
"890 718 OFFCURVE",
"740 584 OFFCURVE",
"414 584 CURVE SMOOTH"
);
}
);
width = 1054;
},
{
background = {
paths = (
{
closed = 1;
nodes = (
"478 0 LINE",
"478 396 LINE",
"512 396 OFFCURVE",
"536 394 OFFCURVE",
"576 394 CURVE SMOOTH",
"956 394 OFFCURVE",
"1170 580 OFFCURVE",
"1170 946 CURVE SMOOTH",
"1170 1330 OFFCURVE",
"954 1500 OFFCURVE",
"528 1500 CURVE SMOOTH",
"368 1500 OFFCURVE",
"222 1480 OFFCURVE",
"86 1450 CURVE",
"86 0 LINE"
);
},
{
closed = 1;
nodes = (
"536 708 OFFCURVE",
"508 710 OFFCURVE",
"478 714 CURVE",
"478 1178 LINE",
"504 1184 OFFCURVE",
"526 1186 OFFCURVE",
"566 1186 CURVE SMOOTH",
"718 1186 OFFCURVE",
"790 1114 OFFCURVE",
"790 942 CURVE SMOOTH",
"790 770 OFFCURVE",
"718 708 OFFCURVE",
"576 708 CURVE SMOOTH"
);
}
);
};
color = -1;
layerId = "C8FFBC04-9D7C-494A-A42D-BACB8E26599D";
paths = (
{
closed = 1;
nodes = (
"480 0 LINE",
"480 396 LINE",
"514 396 OFFCURVE",
"536 394 OFFCURVE",
"574 394 CURVE SMOOTH",
"956 394 OFFCURVE",
"1172 584 OFFCURVE",
"1172 946 CURVE SMOOTH",
"1172 1330 OFFCURVE",
"956 1500 OFFCURVE",
"530 1500 CURVE SMOOTH",
"370 1500 OFFCURVE",
"224 1480 OFFCURVE",
"88 1450 CURVE",
"88 0 LINE"
);
},
{
closed = 1;
nodes = (
"538 708 OFFCURVE",
"510 710 OFFCURVE",
"480 714 CURVE",
"480 1178 LINE",
"506 1184 OFFCURVE",
"528 1186 OFFCURVE",
"568 1186 CURVE SMOOTH",
"720 1186 OFFCURVE",
"792 1114 OFFCURVE",
"792 942 CURVE SMOOTH",
"792 770 OFFCURVE",
"720 708 OFFCURVE",
"578 708 CURVE SMOOTH"
);
}
);
width = 1218;
}
);
leftKerningGroup = H;
rightKerningGroup = P;
unicode = 0050;
userData = {
com.typemytype.robofont.layerData = {
};
};
},
{
glyphname = Thorn;
layers = (
{
background = {
paths = (
{
closed = 1;
nodes = (
"230 -246 LINE",
"230 280 LINE",
"288 274 OFFCURVE",
"344 272 OFFCURVE",
"406 272 CURVE SMOOTH",
"788 272 OFFCURVE",
"960 440 OFFCURVE",
"960 758 CURVE SMOOTH",
"960 1094 OFFCURVE",
"788 1248 OFFCURVE",
"448 1248 CURVE SMOOTH",
"346 1248 OFFCURVE",
"248 1236 OFFCURVE",
"162 1222 CURVE",
"162 -246 LINE"
);
},
{
closed = 1;
nodes = (
"350 338 OFFCURVE",
"290 340 OFFCURVE",
"230 348 CURVE",
"230 1166 LINE",
"300 1176 OFFCURVE",
"372 1182 OFFCURVE",
"448 1182 CURVE SMOOTH",
"748 1182 OFFCURVE",
"888 1054 OFFCURVE",
"888 754 CURVE SMOOTH",
"888 472 OFFCURVE",
"738 338 OFFCURVE",
"412 338 CURVE SMOOTH"
);
}
);
};
color = -1;
layerId = "ECFF4977-BDCC-4836-B4AC-1801CF0EB460";
paths = (
{
closed = 1;
nodes = (
"232 0 LINE",
"232 280 LINE",
"290 274 OFFCURVE",
"346 272 OFFCURVE",
"408 272 CURVE SMOOTH",
"790 272 OFFCURVE",
"962 440 OFFCURVE",
"962 758 CURVE SMOOTH",
"962 1094 OFFCURVE",
"790 1248 OFFCURVE",
"450 1248 CURVE SMOOTH",
"368 1248 OFFCURVE",
"284 1240 OFFCURVE",
"232 1232 CURVE",
"232 1480 LINE",
"164 1480 LINE",
"164 0 LINE"
);
},
{
closed = 1;
nodes = (
"352 338 OFFCURVE",
"292 340 OFFCURVE",
"232 348 CURVE",
"232 1166 LINE",
"302 1176 OFFCURVE",
"374 1182 OFFCURVE",
"450 1182 CURVE SMOOTH",
"750 1182 OFFCURVE",
"890 1054 OFFCURVE",
"890 754 CURVE SMOOTH",
"890 472 OFFCURVE",
"740 338 OFFCURVE",
"414 338 CURVE SMOOTH"
);
}
);
width = 1064;
},
{
background = {
paths = (
{
closed = 1;
nodes = (
"478 0 LINE",
"478 210 LINE",
"512 210 OFFCURVE",
"536 208 OFFCURVE",
"576 208 CURVE SMOOTH",
"956 208 OFFCURVE",
"1170 394 OFFCURVE",
"1170 760 CURVE SMOOTH",
"1170 1144 OFFCURVE",
"954 1314 OFFCURVE",
"528 1314 CURVE SMOOTH",
"512 1314 OFFCURVE",
"494 1314 OFFCURVE",
"478 1314 CURVE",
"478 1480 LINE",
"86 1480 LINE",
"86 0 LINE"
);
},
{
closed = 1;
nodes = (
"536 522 OFFCURVE",
"508 524 OFFCURVE",
"478 528 CURVE",
"478 992 LINE",
"504 998 OFFCURVE",
"526 1000 OFFCURVE",
"566 1000 CURVE SMOOTH",
"718 1000 OFFCURVE",
"790 928 OFFCURVE",
"790 756 CURVE SMOOTH",
"790 584 OFFCURVE",
"718 522 OFFCURVE",
"576 522 CURVE SMOOTH"
);
}
);
};
color = -1;
layerId = "C8FFBC04-9D7C-494A-A42D-BACB8E26599D";
paths = (
{
closed = 1;
nodes = (
"480 0 LINE",
"480 210 LINE",
"514 210 OFFCURVE",
"538 208 OFFCURVE",
"578 208 CURVE SMOOTH",
"958 208 OFFCURVE",
"1172 394 OFFCURVE",
"1172 760 CURVE SMOOTH",
"1172 1144 OFFCURVE",
"956 1314 OFFCURVE",
"534 1314 CURVE SMOOTH",
"518 1314 OFFCURVE",
"496 1312 OFFCURVE",
"480 1312 CURVE",
"480 1480 LINE",
"88 1480 LINE",
"88 0 LINE"
);
},
{
closed = 1;
nodes = (
"538 522 OFFCURVE",
"510 524 OFFCURVE",
"480 528 CURVE",
"480 992 LINE",
"506 998 OFFCURVE",
"528 1000 OFFCURVE",
"568 1000 CURVE SMOOTH",
"720 1000 OFFCURVE",
"792 928 OFFCURVE",
"792 756 CURVE SMOOTH",
"792 584 OFFCURVE",
"720 522 OFFCURVE",
"578 522 CURVE SMOOTH"
);
}
);
width = 1228;
}
);
leftKerningGroup = H;
rightKerningGroup = Thorn;
unicode = 00DE;
userData = {
com.typemytype.robofont.layerData = {
};
};
},
{
glyphname = Q;
layers = (
{
background = {
paths = (
{
closed = 1;
nodes = (
"1042 -114 LINE",
"858 -96 OFFCURVE",
"646 -58 OFFCURVE",
"492 22 CURVE",
"512 -8 LINE",
"884 -60 OFFCURVE",
"1066 202 OFFCURVE",
"1066 740 CURVE SMOOTH",
"1066 1298 OFFCURVE",
"878 1498 OFFCURVE",
"582 1498 CURVE SMOOTH",
"286 1498 OFFCURVE",
"98 1298 OFFCURVE",
"98 740 CURVE SMOOTH",
"98 108 OFFCURVE",
"314 -90 OFFCURVE",
"1032 -182 CURVE"
);
},
{
closed = 1;
nodes = (
"334 48 OFFCURVE",
"170 206 OFFCURVE",
"170 744 CURVE SMOOTH",
"170 1274 OFFCURVE",
"334 1432 OFFCURVE",
"582 1432 CURVE SMOOTH",
"830 1432 OFFCURVE",
"994 1274 OFFCURVE",
"994 736 CURVE SMOOTH",
"994 206 OFFCURVE",
"830 48 OFFCURVE",
"582 48 CURVE SMOOTH"
);
}
);
};
color = -1;
layerId = "ECFF4977-BDCC-4836-B4AC-1801CF0EB460";
paths = (
{
closed = 1;
nodes = (
"1044 -114 LINE",
"858 -96 OFFCURVE",
"646 -58 OFFCURVE",
"492 22 CURVE",
"512 -8 LINE",
"884 -60 OFFCURVE",
"1066 202 OFFCURVE",
"1066 740 CURVE SMOOTH",
"1066 1298 OFFCURVE",
"878 1498 OFFCURVE",
"582 1498 CURVE SMOOTH",
"286 1498 OFFCURVE",
"98 1298 OFFCURVE",
"98 740 CURVE SMOOTH",
"98 108 OFFCURVE",
"314 -90 OFFCURVE",
"1032 -180 CURVE"
);
},
{
closed = 1;
nodes = (
"334 48 OFFCURVE",
"170 206 OFFCURVE",
"170 744 CURVE SMOOTH",
"170 1274 OFFCURVE",
"334 1432 OFFCURVE",
"582 1432 CURVE SMOOTH",
"830 1432 OFFCURVE",
"994 1274 OFFCURVE",
"994 736 CURVE SMOOTH",
"994 206 OFFCURVE",
"830 48 OFFCURVE",
"582 48 CURVE SMOOTH"
);
}
);
width = 1164;
},
{
background = {
paths = (
{
closed = 1;
nodes = (
"1318 -36 LINE",
"1150 -12 OFFCURVE",
"984 32 OFFCURVE",
"734 130 CURVE",
"606 34 LINE",
"1074 -34 OFFCURVE",
"1342 224 OFFCURVE",
"1342 740 CURVE SMOOTH",
"1342 1276 OFFCURVE",
"1078 1500 OFFCURVE",
"698 1500 CURVE SMOOTH",
"318 1500 OFFCURVE",
"54 1276 OFFCURVE",
"54 740 CURVE SMOOTH",
"54 184 OFFCURVE",
"344 -180 OFFCURVE",
"1244 -354 CURVE"
);
},
{
closed = 1;
nodes = (
"540 304 OFFCURVE",
"454 414 OFFCURVE",
"454 748 CURVE SMOOTH",
"454 1066 OFFCURVE",
"540 1176 OFFCURVE",
"698 1176 CURVE SMOOTH",
"856 1176 OFFCURVE",
"942 1066 OFFCURVE",
"942 732 CURVE SMOOTH",
"942 414 OFFCURVE",
"856 304 OFFCURVE",
"698 304 CURVE SMOOTH"
);
}
);
};
color = -1;
layerId = "C8FFBC04-9D7C-494A-A42D-BACB8E26599D";
paths = (
{
closed = 1;
nodes = (
"1318 -36 LINE",
"1150 -12 OFFCURVE",
"984 32 OFFCURVE",
"734 130 CURVE",
"606 34 LINE",
"1074 -34 OFFCURVE",
"1342 224 OFFCURVE",
"1342 740 CURVE SMOOTH",
"1342 1276 OFFCURVE",
"1078 1500 OFFCURVE",
"698 1500 CURVE SMOOTH",
"318 1500 OFFCURVE",
"54 1276 OFFCURVE",
"54 740 CURVE SMOOTH",
"54 184 OFFCURVE",
"344 -180 OFFCURVE",
"1244 -354 CURVE"
);
},
{
closed = 1;
nodes = (
"544 304 OFFCURVE",
"458 414 OFFCURVE",
"458 748 CURVE SMOOTH",
"458 1066 OFFCURVE",
"544 1176 OFFCURVE",
"698 1176 CURVE SMOOTH",
"852 1176 OFFCURVE",
"938 1066 OFFCURVE",
"938 732 CURVE SMOOTH",
"938 414 OFFCURVE",
"852 304 OFFCURVE",
"698 304 CURVE SMOOTH"
);
}
);
width = 1396;
}
);
leftKerningGroup = O;
rightKerningGroup = O;
unicode = 0051;
userData = {
com.typemytype.robofont.layerData = {
};
};
},
{
glyphname = R;
layers = (
{
anchors = (
{
name = bottom;
position = "{596, 0}";
},
{
name = top;
position = "{526, 1520}";
}
);
background = {
guideLines = (
{
position = "{452, 630}";
}
);
paths = (
{
closed = 1;
nodes = (
"4332 0 LINE",
"4332 662 LINE",
"4380 660 OFFCURVE",
"4428 658 OFFCURVE",
"4470 658 CURVE SMOOTH",
"4860 658 OFFCURVE",
"5034 814 OFFCURVE",
"5034 1080 CURVE SMOOTH",
"5034 1364 OFFCURVE",
"4862 1494 OFFCURVE",
"4536 1494 CURVE SMOOTH",
"4428 1494 OFFCURVE",
"4350 1484 OFFCURVE",
"4264 1470 CURVE",
"4264 0 LINE"
);
},
{
closed = 1;
nodes = (
"5150 0 LINE",
"4720 712 LINE",
"4642 712 LINE",
"5072 0 LINE"
);
},
{
closed = 1;
nodes = (
"4432 724 OFFCURVE",
"4384 726 OFFCURVE",
"4332 730 CURVE",
"4332 1410 LINE",
"4408 1424 OFFCURVE",
"4474 1428 OFFCURVE",
"4534 1428 CURVE SMOOTH",
"4832 1428 OFFCURVE",
"4962 1318 OFFCURVE",
"4962 1076 CURVE SMOOTH",
"4962 844 OFFCURVE",
"4824 724 OFFCURVE",
"4474 724 CURVE SMOOTH"
);
},
{
closed = 1;
nodes = (
"3332 0 LINE",
"3332 728 LINE",
"3380 728 OFFCURVE",
"3528 728 OFFCURVE",
"3590 728 CURVE SMOOTH",
"3892 728 OFFCURVE",
"4066 848 OFFCURVE",
"4066 1110 CURVE SMOOTH",
"4066 1374 OFFCURVE",
"3920 1494 OFFCURVE",
"3576 1494 CURVE SMOOTH",
"3472 1494 OFFCURVE",
"3370 1484 OFFCURVE",
"3264 1464 CURVE",
"3264 0 LINE"
);
},
{
closed = 1;
nodes = (
"4150 0 LINE",
"3696 752 LINE",
"3618 752 LINE",
"4072 0 LINE"
);
},
{
closed = 1;
nodes = (
"3544 794 OFFCURVE",
"3384 794 OFFCURVE",
"3332 794 CURVE",
"3332 1406 LINE",
"3412 1422 OFFCURVE",
"3488 1428 OFFCURVE",
"3572 1428 CURVE SMOOTH",
"3880 1428 OFFCURVE",
"3994 1338 OFFCURVE",
"3994 1110 CURVE SMOOTH",
"3994 912 OFFCURVE",
"3900 794 OFFCURVE",
"3586 794 CURVE SMOOTH"
);
},
{
closed = 1;
nodes = (
"2332 0 LINE",
"2332 690 LINE",
"2380 690 OFFCURVE",
"2508 690 OFFCURVE",
"2590 690 CURVE SMOOTH",
"2934 690 OFFCURVE",
"3108 832 OFFCURVE",
"3108 1098 CURVE SMOOTH",
"3108 1358 OFFCURVE",
"2948 1494 OFFCURVE",
"2576 1494 CURVE SMOOTH",
"2472 1494 OFFCURVE",
"2370 1484 OFFCURVE",
"2264 1464 CURVE",
"2264 0 LINE"
);
},
{
closed = 1;
nodes = (
"3150 0 LINE",
"2696 714 LINE",
"2618 714 LINE",
"3072 0 LINE"
);
},
{
closed = 1;
nodes = (
"2524 756 OFFCURVE",
"2384 756 OFFCURVE",
"2332 756 CURVE",
"2332 1406 LINE",
"2412 1422 OFFCURVE",
"2488 1428 OFFCURVE",
"2572 1428 CURVE SMOOTH",
"2904 1428 OFFCURVE",
"3036 1324 OFFCURVE",
"3036 1094 CURVE SMOOTH",
"3036 872 OFFCURVE",
"2910 756 OFFCURVE",
"2606 756 CURVE SMOOTH"
);
},
{
closed = 1;
nodes = (
"1232 0 LINE",
"1232 690 LINE",
"1280 690 OFFCURVE",
"1408 690 OFFCURVE",
"1490 690 CURVE SMOOTH",
"1834 690 OFFCURVE",
"2008 832 OFFCURVE",
"2008 1098 CURVE SMOOTH",
"2008 1358 OFFCURVE",
"1848 1494 OFFCURVE",
"1476 1494 CURVE SMOOTH",
"1372 1494 OFFCURVE",
"1270 1484 OFFCURVE",
"1164 1464 CURVE",
"1164 0 LINE"
);
},
{
closed = 1;
nodes = (
"2050 0 LINE",
"1596 714 LINE",
"1518 714 LINE",
"1972 0 LINE"
);
},
{
closed = 1;
nodes = (
"1424 756 OFFCURVE",
"1284 756 OFFCURVE",
"1232 756 CURVE",
"1232 1406 LINE",
"1312 1422 OFFCURVE",
"1388 1428 OFFCURVE",
"1472 1428 CURVE SMOOTH",
"1804 1428 OFFCURVE",
"1936 1324 OFFCURVE",
"1936 1094 CURVE SMOOTH",
"1936 872 OFFCURVE",
"1810 756 OFFCURVE",
"1506 756 CURVE SMOOTH"
);
},
{
closed = 1;
nodes = (
"232 0 LINE",
"232 658 LINE",
"280 654 OFFCURVE",
"328 652 OFFCURVE",
"406 652 CURVE SMOOTH",
"774 652 OFFCURVE",
"964 796 OFFCURVE",
"960 1080 CURVE SMOOTH",
"960 1354 OFFCURVE",
"800 1494 OFFCURVE",
"468 1494 CURVE SMOOTH",
"348 1494 OFFCURVE",
"254 1482 OFFCURVE",
"164 1464 CURVE",
"164 0 LINE"
);
},
{
closed = 1;
nodes = (
"1080 0 LINE",
"600 708 LINE",
"518 708 LINE",
"998 0 LINE"
);
},
{
closed = 1;
nodes = (
"342 716 OFFCURVE",
"300 718 OFFCURVE",
"232 722 CURVE",
"232 1406 LINE",
"308 1422 OFFCURVE",
"374 1428 OFFCURVE",
"462 1428 CURVE SMOOTH",
"770 1428 OFFCURVE",
"892 1314 OFFCURVE",
"892 1078 CURVE SMOOTH",
"892 832 OFFCURVE",
"746 716 OFFCURVE",
"400 716 CURVE SMOOTH"
);
}
);
};
color = -1;
layerId = "ECFF4977-BDCC-4836-B4AC-1801CF0EB460";
paths = (
{
closed = 1;
nodes = (
"232 0 LINE",
"232 658 LINE",
"280 654 OFFCURVE",
"328 652 OFFCURVE",
"406 652 CURVE SMOOTH",
"774 652 OFFCURVE",
"964 796 OFFCURVE",
"960 1080 CURVE SMOOTH",
"960 1354 OFFCURVE",
"800 1494 OFFCURVE",
"468 1494 CURVE SMOOTH",
"348 1494 OFFCURVE",
"254 1482 OFFCURVE",
"164 1468 CURVE",
"164 0 LINE"
);
},
{
closed = 1;
nodes = (
"1080 0 LINE",
"578 698 LINE",
"495 698 LINE",
"994 0 LINE"
);
},
{
closed = 1;
nodes = (
"342 716 OFFCURVE",
"300 718 OFFCURVE",
"232 722 CURVE",
"232 1410 LINE",
"308 1422 OFFCURVE",
"374 1428 OFFCURVE",
"462 1428 CURVE SMOOTH",
"770 1428 OFFCURVE",
"892 1314 OFFCURVE",
"892 1078 CURVE SMOOTH",
"892 832 OFFCURVE",
"746 716 OFFCURVE",
"400 716 CURVE SMOOTH"
);
}
);
width = 1122;
},
{
anchors = (
{
name = bottom;
position = "{682, 0}";
},
{
name = top;
position = "{622, 1520}";
}
);
background = {
paths = (
{
closed = 1;
nodes = (
"472 0 LINE",
"472 526 LINE",
"512 526 OFFCURVE",
"536 522 OFFCURVE",
"582 522 CURVE SMOOTH",
"932 522 OFFCURVE",
"1166 690 OFFCURVE",
"1166 1010 CURVE SMOOTH",
"1166 1350 OFFCURVE",
"950 1500 OFFCURVE",
"534 1500 CURVE SMOOTH",
"368 1500 OFFCURVE",
"222 1480 OFFCURVE",
"86 1450 CURVE",
"86 0 LINE"
);
},
{
closed = 1;
nodes = (
"1316 0 LINE",
"860 680 LINE",
"450 680 LINE",
"898 0 LINE"
);
},
{
closed = 1;
nodes = (
"536 834 OFFCURVE",
"508 838 OFFCURVE",
"472 840 CURVE",
"472 1180 LINE",
"504 1186 OFFCURVE",
"538 1192 OFFCURVE",
"590 1192 CURVE SMOOTH",
"724 1192 OFFCURVE",
"796 1134 OFFCURVE",
"796 1010 CURVE SMOOTH",
"796 880 OFFCURVE",
"724 834 OFFCURVE",
"582 834 CURVE SMOOTH"
);
}
);
};
color = -1;
layerId = "C8FFBC04-9D7C-494A-A42D-BACB8E26599D";
paths = (
{
closed = 1;
nodes = (
"474 0 LINE",
"474 504 LINE",
"510 504 OFFCURVE",
"538 502 OFFCURVE",
"584 502 CURVE SMOOTH",
"930 502 OFFCURVE",
"1168 674 OFFCURVE",
"1168 1000 CURVE SMOOTH",
"1168 1336 OFFCURVE",
"958 1500 OFFCURVE",
"536 1500 CURVE SMOOTH",
"370 1500 OFFCURVE",
"224 1480 OFFCURVE",
"88 1450 CURVE",
"88 0 LINE"
);
},
{
closed = 1;
nodes = (
"1274 0 LINE",
"864 672 LINE",
"460 672 LINE",
"858 0 LINE"
);
},
{
closed = 1;
nodes = (
"538 808 OFFCURVE",
"510 810 OFFCURVE",
"474 814 CURVE",
"474 1188 LINE",
"506 1194 OFFCURVE",
"540 1198 OFFCURVE",
"592 1198 CURVE SMOOTH",
"720 1198 OFFCURVE",
"798 1136 OFFCURVE",
"798 1000 CURVE SMOOTH",
"798 858 OFFCURVE",
"720 808 OFFCURVE",
"584 808 CURVE SMOOTH"
);
}
);
width = 1272;
}
);
leftKerningGroup = H;
rightKerningGroup = R;
unicode = 0052;
userData = {
com.typemytype.robofont.layerData = {
};
};
},
{
glyphname = S;
layers = (
{
anchors = (
{
name = bottom;
position = "{440, 0}";
},
{
name = top;
position = "{440, 1520}";
}
);
background = {
guideLines = (
{
position = "{396, 1498}";
}
);
paths = (
{
closed = 1;
nodes = (
"642 -18 OFFCURVE",
"798 122 OFFCURVE",
"798 376 CURVE SMOOTH",
"798 582 OFFCURVE",
"696 704 OFFCURVE",
"454 782 CURVE SMOOTH",
"224 856 OFFCURVE",
"140 932 OFFCURVE",
"140 1124 CURVE SMOOTH",
"140 1322 OFFCURVE",
"256 1432 OFFCURVE",
"494 1432 CURVE SMOOTH",
"578 1432 OFFCURVE",
"658 1422 OFFCURVE",
"744 1394 CURVE",
"744 1462 LINE",
"676 1486 OFFCURVE",
"576 1498 OFFCURVE",
"498 1498 CURVE SMOOTH",
"218 1498 OFFCURVE",
"68 1356 OFFCURVE",
"68 1120 CURVE SMOOTH",
"68 906 OFFCURVE",
"176 796 OFFCURVE",
"420 718 CURVE SMOOTH",
"648 646 OFFCURVE",
"726 556 OFFCURVE",
"726 372 CURVE SMOOTH",
"726 156 OFFCURVE",
"602 48 OFFCURVE",
"370 48 CURVE SMOOTH",
"280 48 OFFCURVE",
"186 64 OFFCURVE",
"82 100 CURVE",
"82 32 LINE",
"176 -2 OFFCURVE",
"280 -18 OFFCURVE",
"364 -18 CURVE SMOOTH"
);
}
);
};
color = -1;
layerId = "ECFF4977-BDCC-4836-B4AC-1801CF0EB460";
paths = (
{
closed = 1;
nodes = (
"642 -18 OFFCURVE",
"798 122 OFFCURVE",
"798 376 CURVE SMOOTH",
"798 582 OFFCURVE",
"686 702 OFFCURVE",
"472 776 CURVE SMOOTH",
"420 794 LINE SMOOTH",
"220 864 OFFCURVE",
"140 948 OFFCURVE",
"140 1124 CURVE SMOOTH",
"140 1322 OFFCURVE",
"256 1432 OFFCURVE",
"494 1432 CURVE SMOOTH",
"578 1432 OFFCURVE",
"658 1422 OFFCURVE",
"744 1394 CURVE",
"744 1462 LINE",
"676 1486 OFFCURVE",
"576 1498 OFFCURVE",
"498 1498 CURVE SMOOTH",
"218 1498 OFFCURVE",
"68 1356 OFFCURVE",
"68 1120 CURVE SMOOTH",
"68 918 OFFCURVE",
"178 802 OFFCURVE",
"384 730 CURVE SMOOTH",
"436 712 LINE SMOOTH",
"642 640 OFFCURVE",
"726 556 OFFCURVE",
"726 372 CURVE SMOOTH",
"726 156 OFFCURVE",
"602 48 OFFCURVE",
"370 48 CURVE SMOOTH",
"280 48 OFFCURVE",
"186 64 OFFCURVE",
"82 100 CURVE",
"82 32 LINE",
"176 -2 OFFCURVE",
"280 -18 OFFCURVE",
"364 -18 CURVE SMOOTH"
);
}
);
width = 866;
},
{
anchors = (
{
name = bottom;
position = "{536, 0}";
},
{
name = top;
position = "{536, 1520}";
}
);
background = {
paths = (
{
closed = 1;
nodes = (
"816 -20 OFFCURVE",
"1030 166 OFFCURVE",
"1030 456 CURVE SMOOTH",
"1030 698 OFFCURVE",
"888 826 OFFCURVE",
"670 898 CURVE SMOOTH",
"550 938 LINE SMOOTH",
"438 976 OFFCURVE",
"414 1004 OFFCURVE",
"414 1054 CURVE SMOOTH",
"414 1116 OFFCURVE",
"466 1172 OFFCURVE",
"682 1172 CURVE SMOOTH",
"764 1172 OFFCURVE",
"868 1160 OFFCURVE",
"948 1140 CURVE",
"948 1466 LINE",
"864 1486 OFFCURVE",
"754 1500 OFFCURVE",
"644 1500 CURVE SMOOTH",
"218 1500 OFFCURVE",
"20 1318 OFFCURVE",
"20 1024 CURVE SMOOTH",
"20 790 OFFCURVE",
"166 654 OFFCURVE",
"356 590 CURVE SMOOTH",
"476 550 LINE SMOOTH",
"606 506 OFFCURVE",
"636 474 OFFCURVE",
"636 420 CURVE SMOOTH",
"636 354 OFFCURVE",
"582 308 OFFCURVE",
"424 308 CURVE SMOOTH",
"308 308 OFFCURVE",
"176 332 OFFCURVE",
"66 364 CURVE",
"66 38 LINE",
"174 0 OFFCURVE",
"326 -20 OFFCURVE",
"436 -20 CURVE SMOOTH"
);
}
);
};
color = -1;
layerId = "C8FFBC04-9D7C-494A-A42D-BACB8E26599D";
paths = (
{
closed = 1;
nodes = (
"816 -20 OFFCURVE",
"1030 166 OFFCURVE",
"1030 456 CURVE SMOOTH",
"1030 698 OFFCURVE",
"888 826 OFFCURVE",
"670 898 CURVE SMOOTH",
"550 938 LINE SMOOTH",
"438 976 OFFCURVE",
"414 1004 OFFCURVE",
"414 1054 CURVE SMOOTH",
"414 1116 OFFCURVE",
"466 1172 OFFCURVE",
"666 1172 CURVE SMOOTH",
"764 1172 OFFCURVE",
"868 1158 OFFCURVE",
"948 1134 CURVE",
"948 1460 LINE",
"864 1484 OFFCURVE",
"750 1500 OFFCURVE",
"624 1500 CURVE SMOOTH",
"218 1500 OFFCURVE",
"20 1318 OFFCURVE",
"20 1024 CURVE SMOOTH",
"20 790 OFFCURVE",
"166 654 OFFCURVE",
"356 590 CURVE SMOOTH",
"476 550 LINE SMOOTH",
"606 506 OFFCURVE",
"636 474 OFFCURVE",
"636 420 CURVE SMOOTH",
"636 354 OFFCURVE",
"582 308 OFFCURVE",
"436 308 CURVE SMOOTH",
"308 308 OFFCURVE",
"176 334 OFFCURVE",
"66 368 CURVE",
"66 42 LINE",
"174 2 OFFCURVE",
"326 -20 OFFCURVE",
"446 -20 CURVE SMOOTH"
);
}
);
width = 1050;
}
);
leftKerningGroup = S;
rightKerningGroup = S;
unicode = 0053;
userData = {
com.typemytype.robofont.layerData = {
};
};
},
{
glyphname = Germandbls;
layers = (
{
background = {
paths = (
{
closed = 1;
nodes = (
"1174 -18 OFFCURVE",
"1330 122 OFFCURVE",
"1330 376 CURVE SMOOTH",
"1330 582 OFFCURVE",
"1228 704 OFFCURVE",
"986 782 CURVE SMOOTH",
"756 856 OFFCURVE",
"672 932 OFFCURVE",
"672 1124 CURVE SMOOTH",
"672 1322 OFFCURVE",
"788 1432 OFFCURVE",
"1026 1432 CURVE SMOOTH",
"1110 1432 OFFCURVE",
"1190 1422 OFFCURVE",
"1276 1394 CURVE",
"1276 1462 LINE",
"1208 1486 OFFCURVE",
"1108 1498 OFFCURVE",
"1030 1498 CURVE SMOOTH",
"750 1498 OFFCURVE",
"600 1356 OFFCURVE",
"600 1120 CURVE SMOOTH",
"600 906 OFFCURVE",
"708 796 OFFCURVE",
"952 718 CURVE SMOOTH",
"1180 646 OFFCURVE",
"1258 556 OFFCURVE",
"1258 372 CURVE SMOOTH",
"1258 156 OFFCURVE",
"1134 48 OFFCURVE",
"902 48 CURVE SMOOTH",
"812 48 OFFCURVE",
"718 64 OFFCURVE",
"614 100 CURVE",
"614 32 LINE",
"708 -2 OFFCURVE",
"812 -18 OFFCURVE",
"896 -18 CURVE SMOOTH"
);
},
{
closed = 1;
nodes = (
"232 0 LINE",
"232 998 LINE SMOOTH",
"232 1290 OFFCURVE",
"338 1432 OFFCURVE",
"608 1432 CURVE SMOOTH",
"670 1432 OFFCURVE",
"724 1424 OFFCURVE",
"772 1408 CURVE",
"838 1452 LINE",
"776 1482 OFFCURVE",
"698 1498 OFFCURVE",
"608 1498 CURVE SMOOTH",
"296 1498 OFFCURVE",
"164 1334 OFFCURVE",
"164 988 CURVE SMOOTH",
"164 0 LINE"
);
}
);
};
color = -1;
guideLines = (
{
angle = 270;
position = "{435, 100}";
}
);
layerId = "ECFF4977-BDCC-4836-B4AC-1801CF0EB460";
paths = (
{
closed = 1;
nodes = (
"908 1454 OFFCURVE",
"777 1498 OFFCURVE",
"630 1498 CURVE SMOOTH",
"305 1498 OFFCURVE",
"164 1302 OFFCURVE",
"164 1066 CURVE SMOOTH",
"164 0 LINE",
"232 0 LINE",
"232 1066 LINE SMOOTH",
"232 1278 OFFCURVE",
"365 1435 OFFCURVE",
"624 1435 CURVE SMOOTH",
"748 1435 OFFCURVE",
"873 1408 OFFCURVE",
"953 1325 CURVE",
"955 1360 LINE",
"485 749 LINE",
"485 709 LINE",
"550 719 OFFCURVE",
"605 722 OFFCURVE",
"674 722 CURVE SMOOTH",
"920 722 OFFCURVE",
"1049 608 OFFCURVE",
"1049 387 CURVE SMOOTH",
"1049 175 OFFCURVE",
"915 48 OFFCURVE",
"683 48 CURVE SMOOTH",
"600 48 OFFCURVE",
"507 64 OFFCURVE",
"405 100 CURVE",
"405 32 LINE",
"497 -2 OFFCURVE",
"598 -18 OFFCURVE",
"685 -18 CURVE SMOOTH",
"958 -18 OFFCURVE",
"1121 142 OFFCURVE",
"1121 389 CURVE SMOOTH",
"1121 668 OFFCURVE",
"933 788 OFFCURVE",
"682 788 CURVE SMOOTH",
"640 788 OFFCURVE",
"612 787 OFFCURVE",
"568 782 CURVE",
"577 768 LINE",
"1009 1327 LINE",
"1009 1364 LINE"
);
}
);
width = 1189;
},
{
background = {
paths = (
{
closed = 1;
nodes = (
"1434 -20 OFFCURVE",
"1640 166 OFFCURVE",
"1640 456 CURVE SMOOTH",
"1640 696 OFFCURVE",
"1506 820 OFFCURVE",
"1276 898 CURVE SMOOTH",
"1098 958 OFFCURVE",
"1060 988 OFFCURVE",
"1060 1054 CURVE SMOOTH",
"1060 1120 OFFCURVE",
"1110 1176 OFFCURVE",
"1306 1176 CURVE SMOOTH",
"1384 1176 OFFCURVE",
"1484 1164 OFFCURVE",
"1562 1144 CURVE",
"1562 1466 LINE",
"1480 1486 OFFCURVE",
"1374 1500 OFFCURVE",
"1270 1500 CURVE SMOOTH",
"860 1500 OFFCURVE",
"670 1318 OFFCURVE",
"670 1024 CURVE SMOOTH",
"670 792 OFFCURVE",
"808 650 OFFCURVE",
"1012 588 CURVE SMOOTH",
"1208 528 OFFCURVE",
"1250 490 OFFCURVE",
"1250 420 CURVE SMOOTH",
"1250 350 OFFCURVE",
"1198 304 OFFCURVE",
"1058 304 CURVE SMOOTH",
"946 304 OFFCURVE",
"820 328 OFFCURVE",
"714 360 CURVE",
"714 38 LINE",
"818 2 OFFCURVE",
"964 -20 OFFCURVE",
"1070 -20 CURVE SMOOTH"
);
},
{
closed = 1;
nodes = (
"480 0 LINE",
"480 1006 LINE SMOOTH",
"480 1124 OFFCURVE",
"536 1178 OFFCURVE",
"630 1178 CURVE SMOOTH",
"676 1178 OFFCURVE",
"712 1164 OFFCURVE",
"746 1134 CURVE",
"984 1414 LINE",
"904 1466 OFFCURVE",
"784 1500 OFFCURVE",
"630 1500 CURVE SMOOTH",
"270 1500 OFFCURVE",
"88 1302 OFFCURVE",
"88 956 CURVE SMOOTH",
"88 0 LINE"
);
}
);
};
color = -1;
layerId = "C8FFBC04-9D7C-494A-A42D-BACB8E26599D";
paths = (
{
closed = 1;
nodes = (
"1124 1440 OFFCURVE",
"956 1500 OFFCURVE",
"712 1500 CURVE SMOOTH",
"291 1500 OFFCURVE",
"88 1314 OFFCURVE",
"88 956 CURVE SMOOTH",
"88 0 LINE",
"480 0 LINE",
"480 1006 LINE SMOOTH",
"480 1129 OFFCURVE",
"553 1182 OFFCURVE",
"741 1182 CURVE SMOOTH",
"838 1182 OFFCURVE",
"911 1165 OFFCURVE",
"985 1144 CURVE",
"991 1309 LINE",
"620 835 LINE",
"620 624 LINE",
"671 633 OFFCURVE",
"723 637 OFFCURVE",
"778 637 CURVE SMOOTH",
"946 637 OFFCURVE",
"1005 560 OFFCURVE",
"1005 474 CURVE SMOOTH",
"1005 374 OFFCURVE",
"948 308 OFFCURVE",
"810 308 CURVE SMOOTH",
"738 308 OFFCURVE",
"650 332 OFFCURVE",
"579 364 CURVE",
"579 38 LINE",
"650 1 OFFCURVE",
"742 -20 OFFCURVE",
"850 -20 CURVE SMOOTH",
"1165 -20 OFFCURVE",
"1361 159 OFFCURVE",
"1361 459 CURVE SMOOTH",
"1361 717 OFFCURVE",
"1191 870 OFFCURVE",
"943 870 CURVE SMOOTH",
"919 870 OFFCURVE",
"893 868 OFFCURVE",
"867 865 CURVE",
"895 738 LINE",
"1247 1161 LINE",
"1247 1374 LINE"
);
}
);
width = 1381;
},
{
associatedMasterId = "ECFF4977-BDCC-4836-B4AC-1801CF0EB460";
background = {
paths = (
{
closed = 1;
nodes = (
"1174 -18 OFFCURVE",
"1330 122 OFFCURVE",
"1330 376 CURVE SMOOTH",
"1330 582 OFFCURVE",
"1228 704 OFFCURVE",
"986 782 CURVE SMOOTH",
"756 856 OFFCURVE",
"672 932 OFFCURVE",
"672 1124 CURVE SMOOTH",
"672 1322 OFFCURVE",
"788 1432 OFFCURVE",
"1026 1432 CURVE SMOOTH",
"1110 1432 OFFCURVE",
"1190 1422 OFFCURVE",
"1276 1394 CURVE",
"1276 1462 LINE",
"1208 1486 OFFCURVE",
"1108 1498 OFFCURVE",
"1030 1498 CURVE SMOOTH",
"750 1498 OFFCURVE",
"600 1356 OFFCURVE",
"600 1120 CURVE SMOOTH",
"600 906 OFFCURVE",
"708 796 OFFCURVE",
"952 718 CURVE SMOOTH",
"1180 646 OFFCURVE",
"1258 556 OFFCURVE",
"1258 372 CURVE SMOOTH",
"1258 156 OFFCURVE",
"1134 48 OFFCURVE",
"902 48 CURVE SMOOTH",
"812 48 OFFCURVE",
"718 64 OFFCURVE",
"614 100 CURVE",
"614 32 LINE",
"708 -2 OFFCURVE",
"812 -18 OFFCURVE",
"896 -18 CURVE SMOOTH"
);
},
{
closed = 1;
nodes = (
"232 0 LINE",
"232 998 LINE SMOOTH",
"232 1290 OFFCURVE",
"338 1432 OFFCURVE",
"608 1432 CURVE SMOOTH",
"670 1432 OFFCURVE",
"724 1424 OFFCURVE",
"772 1408 CURVE",
"838 1452 LINE",
"776 1482 OFFCURVE",
"698 1498 OFFCURVE",
"608 1498 CURVE SMOOTH",
"296 1498 OFFCURVE",
"164 1334 OFFCURVE",
"164 988 CURVE SMOOTH",
"164 0 LINE"
);
}
);
};
color = -1;
layerId = "5D16A6DF-88BC-4548-AD9F-75304819AFFB";
name = "Nov 1 18, 11:13";
paths = (
{
closed = 1;
nodes = (
"1174 -18 OFFCURVE",
"1330 122 OFFCURVE",
"1330 376 CURVE SMOOTH",
"1330 582 OFFCURVE",
"1218 702 OFFCURVE",
"1004 776 CURVE SMOOTH",
"952 794 LINE SMOOTH",
"752 864 OFFCURVE",
"672 948 OFFCURVE",
"672 1124 CURVE SMOOTH",
"672 1322 OFFCURVE",
"788 1432 OFFCURVE",
"1026 1432 CURVE SMOOTH",
"1110 1432 OFFCURVE",
"1190 1422 OFFCURVE",
"1276 1394 CURVE",
"1276 1462 LINE",
"1208 1486 OFFCURVE",
"1108 1498 OFFCURVE",
"1030 1498 CURVE SMOOTH",
"750 1498 OFFCURVE",
"600 1356 OFFCURVE",
"600 1120 CURVE SMOOTH",
"600 918 OFFCURVE",
"710 802 OFFCURVE",
"916 730 CURVE SMOOTH",
"968 712 LINE SMOOTH",
"1174 640 OFFCURVE",
"1258 556 OFFCURVE",
"1258 372 CURVE SMOOTH",
"1258 156 OFFCURVE",
"1134 48 OFFCURVE",
"902 48 CURVE SMOOTH",
"812 48 OFFCURVE",
"718 64 OFFCURVE",
"614 100 CURVE",
"614 32 LINE",
"708 -2 OFFCURVE",
"812 -18 OFFCURVE",
"896 -18 CURVE SMOOTH"
);
},
{
closed = 1;
nodes = (
"232 0 LINE",
"232 998 LINE SMOOTH",
"232 1290 OFFCURVE",
"338 1432 OFFCURVE",
"608 1432 CURVE SMOOTH",
"670 1432 OFFCURVE",
"724 1424 OFFCURVE",
"772 1408 CURVE",
"838 1452 LINE",
"776 1482 OFFCURVE",
"698 1498 OFFCURVE",
"608 1498 CURVE SMOOTH",
"296 1498 OFFCURVE",
"164 1334 OFFCURVE",
"164 988 CURVE SMOOTH",
"164 0 LINE"
);
}
);
width = 1398;
},
{
associatedMasterId = "ECFF4977-BDCC-4836-B4AC-1801CF0EB460";
background = {
paths = (
{
closed = 1;
nodes = (
"1174 -18 OFFCURVE",
"1330 122 OFFCURVE",
"1330 376 CURVE SMOOTH",
"1330 582 OFFCURVE",
"1228 704 OFFCURVE",
"986 782 CURVE SMOOTH",
"756 856 OFFCURVE",
"672 932 OFFCURVE",
"672 1124 CURVE SMOOTH",
"672 1322 OFFCURVE",
"788 1432 OFFCURVE",
"1026 1432 CURVE SMOOTH",
"1110 1432 OFFCURVE",
"1190 1422 OFFCURVE",
"1276 1394 CURVE",
"1276 1462 LINE",
"1208 1486 OFFCURVE",
"1108 1498 OFFCURVE",
"1030 1498 CURVE SMOOTH",
"750 1498 OFFCURVE",
"600 1356 OFFCURVE",
"600 1120 CURVE SMOOTH",
"600 906 OFFCURVE",
"708 796 OFFCURVE",
"952 718 CURVE SMOOTH",
"1180 646 OFFCURVE",
"1258 556 OFFCURVE",
"1258 372 CURVE SMOOTH",
"1258 156 OFFCURVE",
"1134 48 OFFCURVE",
"902 48 CURVE SMOOTH",
"812 48 OFFCURVE",
"718 64 OFFCURVE",
"614 100 CURVE",
"614 32 LINE",
"708 -2 OFFCURVE",
"812 -18 OFFCURVE",
"896 -18 CURVE SMOOTH"
);
},
{
closed = 1;
nodes = (
"232 0 LINE",
"232 998 LINE SMOOTH",
"232 1290 OFFCURVE",
"338 1432 OFFCURVE",
"608 1432 CURVE SMOOTH",
"670 1432 OFFCURVE",
"724 1424 OFFCURVE",
"772 1408 CURVE",
"838 1452 LINE",
"776 1482 OFFCURVE",
"698 1498 OFFCURVE",
"608 1498 CURVE SMOOTH",
"296 1498 OFFCURVE",
"164 1334 OFFCURVE",
"164 988 CURVE SMOOTH",
"164 0 LINE"
);
}
);
};
color = -1;
layerId = "7CFCE081-B370-4DEE-BA5E-4AC8F7FA5EC2";
name = "Nov 1 18, 12:20";
paths = (
{
closed = 1;
nodes = (
"623 812 OFFCURVE",
"588 817 OFFCURVE",
"516 793 CURVE",
"470 725 LINE",
"559 743 OFFCURVE",
"616 746 OFFCURVE",
"706 746 CURVE SMOOTH",
"927 746 OFFCURVE",
"1079 602 OFFCURVE",
"1079 403 CURVE SMOOTH",
"1079 166 OFFCURVE",
"955 48 OFFCURVE",
"723 48 CURVE SMOOTH",
"633 48 OFFCURVE",
"539 64 OFFCURVE",
"435 100 CURVE",
"435 32 LINE",
"529 -2 OFFCURVE",
"633 -18 OFFCURVE",
"717 -18 CURVE SMOOTH",
"994 -18 OFFCURVE",
"1151 121 OFFCURVE",
"1151 407 CURVE SMOOTH",
"1151 646 OFFCURVE",
"959 812 OFFCURVE",
"707 812 CURVE SMOOTH"
);
},
{
closed = 1;
nodes = (
"584 1432 OFFCURVE",
"796 1433 OFFCURVE",
"894 1423 CURVE",
"909 1439 OFFCURVE",
"924 1460 OFFCURVE",
"968 1480 CURVE",
"856 1495 OFFCURVE",
"607 1498 OFFCURVE",
"563 1498 CURVE SMOOTH",
"406 1498 OFFCURVE",
"282 1484 OFFCURVE",
"164 1468 CURVE",
"164 0 LINE",
"232 0 LINE",
"232 1410 LINE",
"339 1425 OFFCURVE",
"432 1432 OFFCURVE",
"557 1432 CURVE SMOOTH"
);
},
{
closed = 1;
nodes = (
"544 746 LINE",
"971 1440 LINE",
"971 1480 LINE",
"897 1459 LINE",
"470 765 LINE",
"470 725 LINE"
);
}
);
width = 1227;
},
{
associatedMasterId = "ECFF4977-BDCC-4836-B4AC-1801CF0EB460";
background = {
paths = (
{
closed = 1;
nodes = (
"1174 -18 OFFCURVE",
"1330 122 OFFCURVE",
"1330 376 CURVE SMOOTH",
"1330 582 OFFCURVE",
"1228 704 OFFCURVE",
"986 782 CURVE SMOOTH",
"756 856 OFFCURVE",
"672 932 OFFCURVE",
"672 1124 CURVE SMOOTH",
"672 1322 OFFCURVE",
"788 1432 OFFCURVE",
"1026 1432 CURVE SMOOTH",
"1110 1432 OFFCURVE",
"1190 1422 OFFCURVE",
"1276 1394 CURVE",
"1276 1462 LINE",
"1208 1486 OFFCURVE",
"1108 1498 OFFCURVE",
"1030 1498 CURVE SMOOTH",
"750 1498 OFFCURVE",
"600 1356 OFFCURVE",
"600 1120 CURVE SMOOTH",
"600 906 OFFCURVE",
"708 796 OFFCURVE",
"952 718 CURVE SMOOTH",
"1180 646 OFFCURVE",
"1258 556 OFFCURVE",
"1258 372 CURVE SMOOTH",
"1258 156 OFFCURVE",
"1134 48 OFFCURVE",
"902 48 CURVE SMOOTH",
"812 48 OFFCURVE",
"718 64 OFFCURVE",
"614 100 CURVE",
"614 32 LINE",
"708 -2 OFFCURVE",
"812 -18 OFFCURVE",
"896 -18 CURVE SMOOTH"
);
},
{
closed = 1;
nodes = (
"232 0 LINE",
"232 998 LINE SMOOTH",
"232 1290 OFFCURVE",
"338 1432 OFFCURVE",
"608 1432 CURVE SMOOTH",
"670 1432 OFFCURVE",
"724 1424 OFFCURVE",
"772 1408 CURVE",
"838 1452 LINE",
"776 1482 OFFCURVE",
"698 1498 OFFCURVE",
"608 1498 CURVE SMOOTH",
"296 1498 OFFCURVE",
"164 1334 OFFCURVE",
"164 988 CURVE SMOOTH",
"164 0 LINE"
);
}
);
};
color = -1;
guideLines = (
{
angle = 270;
position = "{435, 100}";
}
);
layerId = "6CCDF87C-9741-48B5-8343-AA579A6BBFA9";
name = "Nov 1 18, 12:23";
paths = (
{
closed = 1;
nodes = (
"623 812 OFFCURVE",
"585 807 OFFCURVE",
"516 786 CURVE",
"470 725 LINE",
"559 743 OFFCURVE",
"616 746 OFFCURVE",
"706 746 CURVE SMOOTH",
"927 746 OFFCURVE",
"1079 606 OFFCURVE",
"1079 411 CURVE SMOOTH",
"1079 169 OFFCURVE",
"955 48 OFFCURVE",
"723 48 CURVE SMOOTH",
"633 48 OFFCURVE",
"539 64 OFFCURVE",
"435 100 CURVE",
"435 32 LINE",
"529 -2 OFFCURVE",
"633 -18 OFFCURVE",
"717 -18 CURVE SMOOTH",
"994 -18 OFFCURVE",
"1151 123 OFFCURVE",
"1151 415 CURVE SMOOTH",
"1151 657 OFFCURVE",
"962 812 OFFCURVE",
"707 812 CURVE SMOOTH"
);
},
{
closed = 1;
nodes = (
"538 749 LINE",
"945 1373 LINE",
"945 1410 LINE",
"877 1389 LINE",
"470 765 LINE",
"470 725 LINE"
);
},
{
closed = 1;
nodes = (
"232 0 LINE",
"232 998 LINE SMOOTH",
"232 1290 OFFCURVE",
"338 1432 OFFCURVE",
"608 1432 CURVE SMOOTH",
"711 1432 OFFCURVE",
"801 1409 OFFCURVE",
"881 1364 CURVE",
"945 1410 LINE",
"854 1467 OFFCURVE",
"740 1498 OFFCURVE",
"608 1498 CURVE SMOOTH",
"296 1498 OFFCURVE",
"164 1334 OFFCURVE",
"164 988 CURVE SMOOTH",
"164 0 LINE"
);
}
);
width = 1227;
},
{
associatedMasterId = "C8FFBC04-9D7C-494A-A42D-BACB8E26599D";
background = {
paths = (
{
closed = 1;
nodes = (
"1434 -20 OFFCURVE",
"1640 166 OFFCURVE",
"1640 456 CURVE SMOOTH",
"1640 696 OFFCURVE",
"1506 820 OFFCURVE",
"1276 898 CURVE SMOOTH",
"1098 958 OFFCURVE",
"1060 988 OFFCURVE",
"1060 1054 CURVE SMOOTH",
"1060 1120 OFFCURVE",
"1110 1176 OFFCURVE",
"1306 1176 CURVE SMOOTH",
"1384 1176 OFFCURVE",
"1484 1164 OFFCURVE",
"1562 1144 CURVE",
"1562 1466 LINE",
"1480 1486 OFFCURVE",
"1374 1500 OFFCURVE",
"1270 1500 CURVE SMOOTH",
"860 1500 OFFCURVE",
"670 1318 OFFCURVE",
"670 1024 CURVE SMOOTH",
"670 792 OFFCURVE",
"808 650 OFFCURVE",
"1012 588 CURVE SMOOTH",
"1208 528 OFFCURVE",
"1250 490 OFFCURVE",
"1250 420 CURVE SMOOTH",
"1250 350 OFFCURVE",
"1198 304 OFFCURVE",
"1058 304 CURVE SMOOTH",
"946 304 OFFCURVE",
"820 328 OFFCURVE",
"714 360 CURVE",
"714 38 LINE",
"818 2 OFFCURVE",
"964 -20 OFFCURVE",
"1070 -20 CURVE SMOOTH"
);
},
{
closed = 1;
nodes = (
"480 0 LINE",
"480 1006 LINE SMOOTH",
"480 1124 OFFCURVE",
"536 1178 OFFCURVE",
"630 1178 CURVE SMOOTH",
"676 1178 OFFCURVE",
"712 1164 OFFCURVE",
"746 1134 CURVE",
"984 1414 LINE",
"904 1466 OFFCURVE",
"784 1500 OFFCURVE",
"630 1500 CURVE SMOOTH",
"270 1500 OFFCURVE",
"88 1302 OFFCURVE",
"88 956 CURVE SMOOTH",
"88 0 LINE"
);
}
);
};
color = -1;
layerId = "C4A3C98B-DB69-45B3-AE58-B691CDBD79FC";
name = "Nov 1 18, 12:30";
paths = (
{
closed = 1;
nodes = (
"1434 -20 OFFCURVE",
"1640 166 OFFCURVE",
"1640 456 CURVE SMOOTH",
"1640 698 OFFCURVE",
"1504 826 OFFCURVE",
"1294 898 CURVE SMOOTH",
"1178 938 LINE SMOOTH",
"1082 972 OFFCURVE",
"1060 1004 OFFCURVE",
"1060 1054 CURVE SMOOTH",
"1060 1116 OFFCURVE",
"1110 1172 OFFCURVE",
"1306 1172 CURVE SMOOTH",
"1384 1172 OFFCURVE",
"1484 1160 OFFCURVE",
"1562 1140 CURVE",
"1562 1466 LINE",
"1480 1486 OFFCURVE",
"1374 1500 OFFCURVE",
"1268 1500 CURVE SMOOTH",
"860 1500 OFFCURVE",
"668 1318 OFFCURVE",
"668 1024 CURVE SMOOTH",
"668 790 OFFCURVE",
"810 652 OFFCURVE",
"992 590 CURVE SMOOTH",
"1108 550 LINE SMOOTH",
"1220 512 OFFCURVE",
"1250 474 OFFCURVE",
"1250 420 CURVE SMOOTH",
"1250 354 OFFCURVE",
"1198 308 OFFCURVE",
"1058 308 CURVE SMOOTH",
"946 308 OFFCURVE",
"818 332 OFFCURVE",
"714 364 CURVE",
"714 38 LINE",
"816 0 OFFCURVE",
"964 -20 OFFCURVE",
"1068 -20 CURVE SMOOTH"
);
},
{
closed = 1;
nodes = (
"480 0 LINE",
"480 1006 LINE SMOOTH",
"480 1124 OFFCURVE",
"536 1178 OFFCURVE",
"630 1178 CURVE SMOOTH",
"676 1178 OFFCURVE",
"712 1164 OFFCURVE",
"746 1134 CURVE",
"984 1414 LINE",
"904 1466 OFFCURVE",
"784 1500 OFFCURVE",
"630 1500 CURVE SMOOTH",
"270 1500 OFFCURVE",
"88 1302 OFFCURVE",
"88 956 CURVE SMOOTH",
"88 0 LINE"
);
}
);
width = 1660;
},
{
associatedMasterId = "C8FFBC04-9D7C-494A-A42D-BACB8E26599D";
background = {
paths = (
{
closed = 1;
nodes = (
"1434 -20 OFFCURVE",
"1640 166 OFFCURVE",
"1640 456 CURVE SMOOTH",
"1640 696 OFFCURVE",
"1506 820 OFFCURVE",
"1276 898 CURVE SMOOTH",
"1098 958 OFFCURVE",
"1060 988 OFFCURVE",
"1060 1054 CURVE SMOOTH",
"1060 1120 OFFCURVE",
"1110 1176 OFFCURVE",
"1306 1176 CURVE SMOOTH",
"1384 1176 OFFCURVE",
"1484 1164 OFFCURVE",
"1562 1144 CURVE",
"1562 1466 LINE",
"1480 1486 OFFCURVE",
"1374 1500 OFFCURVE",
"1270 1500 CURVE SMOOTH",
"860 1500 OFFCURVE",
"670 1318 OFFCURVE",
"670 1024 CURVE SMOOTH",
"670 792 OFFCURVE",
"808 650 OFFCURVE",
"1012 588 CURVE SMOOTH",
"1208 528 OFFCURVE",
"1250 490 OFFCURVE",
"1250 420 CURVE SMOOTH",
"1250 350 OFFCURVE",
"1198 304 OFFCURVE",
"1058 304 CURVE SMOOTH",
"946 304 OFFCURVE",
"820 328 OFFCURVE",
"714 360 CURVE",
"714 38 LINE",
"818 2 OFFCURVE",
"964 -20 OFFCURVE",
"1070 -20 CURVE SMOOTH"
);
},
{
closed = 1;
nodes = (
"480 0 LINE",
"480 1006 LINE SMOOTH",
"480 1124 OFFCURVE",
"536 1178 OFFCURVE",
"630 1178 CURVE SMOOTH",
"676 1178 OFFCURVE",
"712 1164 OFFCURVE",
"746 1134 CURVE",
"984 1414 LINE",
"904 1466 OFFCURVE",
"784 1500 OFFCURVE",
"630 1500 CURVE SMOOTH",
"270 1500 OFFCURVE",
"88 1302 OFFCURVE",
"88 956 CURVE SMOOTH",
"88 0 LINE"
);
}
);
};
color = -1;
layerId = "C43820B9-D726-4E92-AA13-04F5A067413F";
name = "Nov 1 18, 12:52";
paths = (
{
closed = 1;
nodes = (
"1262 -20 OFFCURVE",
"1431 191 OFFCURVE",
"1431 477 CURVE SMOOTH",
"1431 781 OFFCURVE",
"1228 887 OFFCURVE",
"946 887 CURVE SMOOTH",
"843 887 OFFCURVE",
"733 863 OFFCURVE",
"703 828 CURVE",
"630 617 LINE",
"683 629 OFFCURVE",
"750 636 OFFCURVE",
"824 636 CURVE SMOOTH",
"995 636 OFFCURVE",
"1075 583 OFFCURVE",
"1075 477 CURVE SMOOTH",
"1075 371 OFFCURVE",
"1023 308 OFFCURVE",
"883 308 CURVE SMOOTH",
"787 308 OFFCURVE",
"678 332 OFFCURVE",
"589 364 CURVE",
"589 38 LINE",
"677 0 OFFCURVE",
"804 -20 OFFCURVE",
"893 -20 CURVE SMOOTH"
);
},
{
closed = 1;
nodes = (
"480 0 LINE",
"480 1006 LINE SMOOTH",
"480 1124 OFFCURVE",
"561 1178 OFFCURVE",
"696 1178 CURVE SMOOTH",
"900 1178 OFFCURVE",
"1018 1140 OFFCURVE",
"1046 1110 CURVE",
"1277 1399 LINE",
"1103 1451 OFFCURVE",
"919 1500 OFFCURVE",
"790 1500 CURVE SMOOTH",
"278 1500 OFFCURVE",
"88 1315 OFFCURVE",
"88 956 CURVE SMOOTH",
"88 0 LINE"
);
},
{
closed = 1;
nodes = (
"841 684 LINE",
"1277 1179 LINE",
"1277 1399 LINE",
"1034 1352 LINE",
"630 828 LINE",
"630 617 LINE"
);
}
);
width = 1485;
},
{
associatedMasterId = "C8FFBC04-9D7C-494A-A42D-BACB8E26599D";
background = {
paths = (
{
closed = 1;
nodes = (
"1434 -20 OFFCURVE",
"1640 166 OFFCURVE",
"1640 456 CURVE SMOOTH",
"1640 696 OFFCURVE",
"1506 820 OFFCURVE",
"1276 898 CURVE SMOOTH",
"1098 958 OFFCURVE",
"1060 988 OFFCURVE",
"1060 1054 CURVE SMOOTH",
"1060 1120 OFFCURVE",
"1110 1176 OFFCURVE",
"1306 1176 CURVE SMOOTH",
"1384 1176 OFFCURVE",
"1484 1164 OFFCURVE",
"1562 1144 CURVE",
"1562 1466 LINE",
"1480 1486 OFFCURVE",
"1374 1500 OFFCURVE",
"1270 1500 CURVE SMOOTH",
"860 1500 OFFCURVE",
"670 1318 OFFCURVE",
"670 1024 CURVE SMOOTH",
"670 792 OFFCURVE",
"808 650 OFFCURVE",
"1012 588 CURVE SMOOTH",
"1208 528 OFFCURVE",
"1250 490 OFFCURVE",
"1250 420 CURVE SMOOTH",
"1250 350 OFFCURVE",
"1198 304 OFFCURVE",
"1058 304 CURVE SMOOTH",
"946 304 OFFCURVE",
"820 328 OFFCURVE",
"714 360 CURVE",
"714 38 LINE",
"818 2 OFFCURVE",
"964 -20 OFFCURVE",
"1070 -20 CURVE SMOOTH"
);
},
{
closed = 1;
nodes = (
"480 0 LINE",
"480 1006 LINE SMOOTH",
"480 1124 OFFCURVE",
"536 1178 OFFCURVE",
"630 1178 CURVE SMOOTH",
"676 1178 OFFCURVE",
"712 1164 OFFCURVE",
"746 1134 CURVE",
"984 1414 LINE",
"904 1466 OFFCURVE",
"784 1500 OFFCURVE",
"630 1500 CURVE SMOOTH",
"270 1500 OFFCURVE",
"88 1302 OFFCURVE",
"88 956 CURVE SMOOTH",
"88 0 LINE"
);
}
);
};
color = -1;
layerId = "13554A3A-06BC-4A98-8C8D-8E5DF46228E6";
name = "Nov 1 18, 12:53";
paths = (
{
closed = 1;
nodes = (
"1262 -20 OFFCURVE",
"1431 191 OFFCURVE",
"1431 477 CURVE SMOOTH",
"1431 781 OFFCURVE",
"1228 887 OFFCURVE",
"946 887 CURVE SMOOTH",
"843 887 OFFCURVE",
"733 863 OFFCURVE",
"703 828 CURVE",
"630 617 LINE",
"683 629 OFFCURVE",
"750 636 OFFCURVE",
"824 636 CURVE SMOOTH",
"995 636 OFFCURVE",
"1075 583 OFFCURVE",
"1075 477 CURVE SMOOTH",
"1075 371 OFFCURVE",
"1023 308 OFFCURVE",
"883 308 CURVE SMOOTH",
"787 308 OFFCURVE",
"678 332 OFFCURVE",
"589 364 CURVE",
"589 38 LINE",
"677 0 OFFCURVE",
"804 -20 OFFCURVE",
"893 -20 CURVE SMOOTH"
);
},
{
closed = 1;
nodes = (
"480 0 LINE",
"480 1006 LINE SMOOTH",
"480 1124 OFFCURVE",
"561 1178 OFFCURVE",
"696 1178 CURVE SMOOTH",
"900 1178 OFFCURVE",
"954 1166 OFFCURVE",
"1060 1129 CURVE",
"1277 1409 LINE",
"1161 1452 OFFCURVE",
"959 1500 OFFCURVE",
"790 1500 CURVE SMOOTH",
"278 1500 OFFCURVE",
"88 1315 OFFCURVE",
"88 956 CURVE SMOOTH",
"88 0 LINE"
);
},
{
closed = 1;
nodes = (
"841 684 LINE",
"1277 1189 LINE",
"1277 1409 LINE",
"1034 1352 LINE",
"630 828 LINE",
"630 617 LINE"
);
}
);
width = 1485;
},
{
associatedMasterId = "ECFF4977-BDCC-4836-B4AC-1801CF0EB460";
background = {
paths = (
{
closed = 1;
nodes = (
"1174 -18 OFFCURVE",
"1330 122 OFFCURVE",
"1330 376 CURVE SMOOTH",
"1330 582 OFFCURVE",
"1228 704 OFFCURVE",
"986 782 CURVE SMOOTH",
"756 856 OFFCURVE",
"672 932 OFFCURVE",
"672 1124 CURVE SMOOTH",
"672 1322 OFFCURVE",
"788 1432 OFFCURVE",
"1026 1432 CURVE SMOOTH",
"1110 1432 OFFCURVE",
"1190 1422 OFFCURVE",
"1276 1394 CURVE",
"1276 1462 LINE",
"1208 1486 OFFCURVE",
"1108 1498 OFFCURVE",
"1030 1498 CURVE SMOOTH",
"750 1498 OFFCURVE",
"600 1356 OFFCURVE",
"600 1120 CURVE SMOOTH",
"600 906 OFFCURVE",
"708 796 OFFCURVE",
"952 718 CURVE SMOOTH",
"1180 646 OFFCURVE",
"1258 556 OFFCURVE",
"1258 372 CURVE SMOOTH",
"1258 156 OFFCURVE",
"1134 48 OFFCURVE",
"902 48 CURVE SMOOTH",
"812 48 OFFCURVE",
"718 64 OFFCURVE",
"614 100 CURVE",
"614 32 LINE",
"708 -2 OFFCURVE",
"812 -18 OFFCURVE",
"896 -18 CURVE SMOOTH"
);
},
{
closed = 1;
nodes = (
"232 0 LINE",
"232 998 LINE SMOOTH",
"232 1290 OFFCURVE",
"338 1432 OFFCURVE",
"608 1432 CURVE SMOOTH",
"670 1432 OFFCURVE",
"724 1424 OFFCURVE",
"772 1408 CURVE",
"838 1452 LINE",
"776 1482 OFFCURVE",
"698 1498 OFFCURVE",
"608 1498 CURVE SMOOTH",
"296 1498 OFFCURVE",
"164 1334 OFFCURVE",
"164 988 CURVE SMOOTH",
"164 0 LINE"
);
}
);
};
color = -1;
guideLines = (
{
angle = 270;
position = "{435, 100}";
}
);
layerId = "43F4CB86-A306-413A-A4AA-7D95BEFA45F4";
name = "Nov 1 18, 16:22";
paths = (
{
closed = 1;
nodes = (
"232 0 LINE",
"232 998 LINE SMOOTH",
"232 1290 OFFCURVE",
"338 1432 OFFCURVE",
"608 1432 CURVE SMOOTH",
"736 1432 OFFCURVE",
"856 1395 OFFCURVE",
"948 1324 CURVE",
"1010 1373 LINE",
"904 1452 OFFCURVE",
"765 1498 OFFCURVE",
"608 1498 CURVE SMOOTH",
"296 1498 OFFCURVE",
"164 1334 OFFCURVE",
"164 988 CURVE SMOOTH",
"164 0 LINE"
);
},
{
closed = 1;
nodes = (
"553 732 LINE",
"1010 1336 LINE",
"1010 1373 LINE",
"942 1352 LINE",
"485 748 LINE",
"485 708 LINE"
);
},
{
closed = 1;
nodes = (
"1121 669 OFFCURVE",
"936 792 OFFCURVE",
"698 792 CURVE SMOOTH",
"619 792 OFFCURVE",
"593 787 OFFCURVE",
"531 766 CURVE",
"485 708 LINE",
"574 724 OFFCURVE",
"611 726 OFFCURVE",
"687 726 CURVE SMOOTH",
"892 726 OFFCURVE",
"1049 616 OFFCURVE",
"1049 401 CURVE SMOOTH",
"1049 165 OFFCURVE",
"925 48 OFFCURVE",
"693 48 CURVE SMOOTH",
"603 48 OFFCURVE",
"509 64 OFFCURVE",
"405 100 CURVE",
"405 32 LINE",
"499 -2 OFFCURVE",
"603 -18 OFFCURVE",
"687 -18 CURVE SMOOTH",
"964 -18 OFFCURVE",
"1121 120 OFFCURVE",
"1121 405 CURVE SMOOTH"
);
}
);
width = 1189;
},
{
associatedMasterId = "C8FFBC04-9D7C-494A-A42D-BACB8E26599D";
background = {
paths = (
{
closed = 1;
nodes = (
"1434 -20 OFFCURVE",
"1640 166 OFFCURVE",
"1640 456 CURVE SMOOTH",
"1640 696 OFFCURVE",
"1506 820 OFFCURVE",
"1276 898 CURVE SMOOTH",
"1098 958 OFFCURVE",
"1060 988 OFFCURVE",
"1060 1054 CURVE SMOOTH",
"1060 1120 OFFCURVE",
"1110 1176 OFFCURVE",
"1306 1176 CURVE SMOOTH",
"1384 1176 OFFCURVE",
"1484 1164 OFFCURVE",
"1562 1144 CURVE",
"1562 1466 LINE",
"1480 1486 OFFCURVE",
"1374 1500 OFFCURVE",
"1270 1500 CURVE SMOOTH",
"860 1500 OFFCURVE",
"670 1318 OFFCURVE",
"670 1024 CURVE SMOOTH",
"670 792 OFFCURVE",
"808 650 OFFCURVE",
"1012 588 CURVE SMOOTH",
"1208 528 OFFCURVE",
"1250 490 OFFCURVE",
"1250 420 CURVE SMOOTH",
"1250 350 OFFCURVE",
"1198 304 OFFCURVE",
"1058 304 CURVE SMOOTH",
"946 304 OFFCURVE",
"820 328 OFFCURVE",
"714 360 CURVE",
"714 38 LINE",
"818 2 OFFCURVE",
"964 -20 OFFCURVE",
"1070 -20 CURVE SMOOTH"
);
},
{
closed = 1;
nodes = (
"480 0 LINE",
"480 1006 LINE SMOOTH",
"480 1124 OFFCURVE",
"536 1178 OFFCURVE",
"630 1178 CURVE SMOOTH",
"676 1178 OFFCURVE",
"712 1164 OFFCURVE",
"746 1134 CURVE",
"984 1414 LINE",
"904 1466 OFFCURVE",
"784 1500 OFFCURVE",
"630 1500 CURVE SMOOTH",
"270 1500 OFFCURVE",
"88 1302 OFFCURVE",
"88 956 CURVE SMOOTH",
"88 0 LINE"
);
}
);
};
color = -1;
layerId = "25195891-4F04-4051-A075-4C36A466FCC1";
name = "Nov 1 18, 16:23";
paths = (
{
closed = 1;
nodes = (
"480 0 LINE",
"480 1006 LINE SMOOTH",
"480 1127 OFFCURVE",
"561 1182 OFFCURVE",
"721 1182 CURVE SMOOTH",
"867 1182 OFFCURVE",
"938 1161 OFFCURVE",
"1041 1117 CURVE",
"1247 1374 LINE",
"1133 1436 OFFCURVE",
"939 1500 OFFCURVE",
"737 1500 CURVE SMOOTH",
"278 1500 OFFCURVE",
"88 1315 OFFCURVE",
"88 956 CURVE SMOOTH",
"88 0 LINE"
);
},
{
closed = 1;
nodes = (
"874 705 LINE",
"1247 1161 LINE",
"1247 1374 LINE",
"1024 1352 LINE",
"620 828 LINE",
"620 617 LINE"
);
},
{
closed = 1;
nodes = (
"1361 739 OFFCURVE",
"1177 870 OFFCURVE",
"965 870 CURVE SMOOTH",
"833 870 OFFCURVE",
"723 846 OFFCURVE",
"693 811 CURVE",
"620 617 LINE",
"665 629 OFFCURVE",
"721 636 OFFCURVE",
"784 636 CURVE SMOOTH",
"949 636 OFFCURVE",
"1005 568 OFFCURVE",
"1005 477 CURVE SMOOTH",
"1005 389 OFFCURVE",
"941 308 OFFCURVE",
"813 308 CURVE SMOOTH",
"737 308 OFFCURVE",
"650 332 OFFCURVE",
"579 364 CURVE",
"579 38 LINE",
"650 0 OFFCURVE",
"752 -20 OFFCURVE",
"841 -20 CURVE SMOOTH",
"1200 -20 OFFCURVE",
"1361 186 OFFCURVE",
"1361 462 CURVE SMOOTH"
);
}
);
width = 1381;
},
{
associatedMasterId = "ECFF4977-BDCC-4836-B4AC-1801CF0EB460";
background = {
paths = (
{
closed = 1;
nodes = (
"1174 -18 OFFCURVE",
"1330 122 OFFCURVE",
"1330 376 CURVE SMOOTH",
"1330 582 OFFCURVE",
"1228 704 OFFCURVE",
"986 782 CURVE SMOOTH",
"756 856 OFFCURVE",
"672 932 OFFCURVE",
"672 1124 CURVE SMOOTH",
"672 1322 OFFCURVE",
"788 1432 OFFCURVE",
"1026 1432 CURVE SMOOTH",
"1110 1432 OFFCURVE",
"1190 1422 OFFCURVE",
"1276 1394 CURVE",
"1276 1462 LINE",
"1208 1486 OFFCURVE",
"1108 1498 OFFCURVE",
"1030 1498 CURVE SMOOTH",
"750 1498 OFFCURVE",
"600 1356 OFFCURVE",
"600 1120 CURVE SMOOTH",
"600 906 OFFCURVE",
"708 796 OFFCURVE",
"952 718 CURVE SMOOTH",
"1180 646 OFFCURVE",
"1258 556 OFFCURVE",
"1258 372 CURVE SMOOTH",
"1258 156 OFFCURVE",
"1134 48 OFFCURVE",
"902 48 CURVE SMOOTH",
"812 48 OFFCURVE",
"718 64 OFFCURVE",
"614 100 CURVE",
"614 32 LINE",
"708 -2 OFFCURVE",
"812 -18 OFFCURVE",
"896 -18 CURVE SMOOTH"
);
},
{
closed = 1;
nodes = (
"232 0 LINE",
"232 998 LINE SMOOTH",
"232 1290 OFFCURVE",
"338 1432 OFFCURVE",
"608 1432 CURVE SMOOTH",
"670 1432 OFFCURVE",
"724 1424 OFFCURVE",
"772 1408 CURVE",
"838 1452 LINE",
"776 1482 OFFCURVE",
"698 1498 OFFCURVE",
"608 1498 CURVE SMOOTH",
"296 1498 OFFCURVE",
"164 1334 OFFCURVE",
"164 988 CURVE SMOOTH",
"164 0 LINE"
);
}
);
};
color = -1;
guideLines = (
{
angle = 270;
position = "{435, 100}";
}
);
layerId = "766ACD05-F23B-4897-9538-44EA7A49EE60";
name = "Nov 1 18, 16:25";
paths = (
{
closed = 1;
nodes = (
"232 0 LINE",
"232 998 LINE SMOOTH",
"232 1290 OFFCURVE",
"338 1435 OFFCURVE",
"608 1435 CURVE SMOOTH",
"736 1435 OFFCURVE",
"856 1395 OFFCURVE",
"948 1324 CURVE",
"1010 1373 LINE",
"904 1452 OFFCURVE",
"765 1498 OFFCURVE",
"608 1498 CURVE SMOOTH",
"301 1498 OFFCURVE",
"164 1329 OFFCURVE",
"164 988 CURVE SMOOTH",
"164 0 LINE"
);
},
{
closed = 1;
nodes = (
"553 732 LINE",
"1010 1336 LINE",
"1010 1373 LINE",
"942 1352 LINE",
"485 748 LINE",
"485 708 LINE"
);
},
{
closed = 1;
nodes = (
"1121 669 OFFCURVE",
"936 792 OFFCURVE",
"698 792 CURVE SMOOTH",
"619 792 OFFCURVE",
"593 787 OFFCURVE",
"531 766 CURVE",
"485 708 LINE",
"574 724 OFFCURVE",
"611 726 OFFCURVE",
"687 726 CURVE SMOOTH",
"892 726 OFFCURVE",
"1049 616 OFFCURVE",
"1049 401 CURVE SMOOTH",
"1049 165 OFFCURVE",
"925 48 OFFCURVE",
"693 48 CURVE SMOOTH",
"603 48 OFFCURVE",
"509 64 OFFCURVE",
"405 100 CURVE",
"405 32 LINE",
"499 -2 OFFCURVE",
"603 -18 OFFCURVE",
"687 -18 CURVE SMOOTH",
"964 -18 OFFCURVE",
"1121 120 OFFCURVE",
"1121 405 CURVE SMOOTH"
);
}
);
width = 1189;
},
{
associatedMasterId = "ECFF4977-BDCC-4836-B4AC-1801CF0EB460";
background = {
paths = (
{
closed = 1;
nodes = (
"1174 -18 OFFCURVE",
"1330 122 OFFCURVE",
"1330 376 CURVE SMOOTH",
"1330 582 OFFCURVE",
"1228 704 OFFCURVE",
"986 782 CURVE SMOOTH",
"756 856 OFFCURVE",
"672 932 OFFCURVE",
"672 1124 CURVE SMOOTH",
"672 1322 OFFCURVE",
"788 1432 OFFCURVE",
"1026 1432 CURVE SMOOTH",
"1110 1432 OFFCURVE",
"1190 1422 OFFCURVE",
"1276 1394 CURVE",
"1276 1462 LINE",
"1208 1486 OFFCURVE",
"1108 1498 OFFCURVE",
"1030 1498 CURVE SMOOTH",
"750 1498 OFFCURVE",
"600 1356 OFFCURVE",
"600 1120 CURVE SMOOTH",
"600 906 OFFCURVE",
"708 796 OFFCURVE",
"952 718 CURVE SMOOTH",
"1180 646 OFFCURVE",
"1258 556 OFFCURVE",
"1258 372 CURVE SMOOTH",
"1258 156 OFFCURVE",
"1134 48 OFFCURVE",
"902 48 CURVE SMOOTH",
"812 48 OFFCURVE",
"718 64 OFFCURVE",
"614 100 CURVE",
"614 32 LINE",
"708 -2 OFFCURVE",
"812 -18 OFFCURVE",
"896 -18 CURVE SMOOTH"
);
},
{
closed = 1;
nodes = (
"232 0 LINE",
"232 998 LINE SMOOTH",
"232 1290 OFFCURVE",
"338 1432 OFFCURVE",
"608 1432 CURVE SMOOTH",
"670 1432 OFFCURVE",
"724 1424 OFFCURVE",
"772 1408 CURVE",
"838 1452 LINE",
"776 1482 OFFCURVE",
"698 1498 OFFCURVE",
"608 1498 CURVE SMOOTH",
"296 1498 OFFCURVE",
"164 1334 OFFCURVE",
"164 988 CURVE SMOOTH",
"164 0 LINE"
);
}
);
};
color = -1;
guideLines = (
{
angle = 270;
position = "{435, 100}";
}
);
layerId = "03DA9304-7692-4F93-8BB7-7AF72037B2D6";
name = "Nov 1 18, 16:25";
paths = (
{
closed = 1;
nodes = (
"232 0 LINE",
"232 998 LINE SMOOTH",
"232 1290 OFFCURVE",
"338 1435 OFFCURVE",
"608 1435 CURVE SMOOTH",
"736 1435 OFFCURVE",
"856 1395 OFFCURVE",
"948 1324 CURVE",
"1010 1373 LINE",
"904 1452 OFFCURVE",
"765 1498 OFFCURVE",
"608 1498 CURVE SMOOTH",
"301 1498 OFFCURVE",
"164 1329 OFFCURVE",
"164 988 CURVE SMOOTH",
"164 0 LINE"
);
},
{
closed = 1;
nodes = (
"553 732 LINE",
"1010 1336 LINE",
"1010 1373 LINE",
"942 1352 LINE",
"485 748 LINE",
"485 708 LINE"
);
},
{
closed = 1;
nodes = (
"1121 656 OFFCURVE",
"931 792 OFFCURVE",
"698 792 CURVE SMOOTH",
"619 792 OFFCURVE",
"593 787 OFFCURVE",
"531 766 CURVE",
"485 708 LINE",
"574 724 OFFCURVE",
"611 726 OFFCURVE",
"687 726 CURVE SMOOTH",
"892 726 OFFCURVE",
"1049 616 OFFCURVE",
"1049 401 CURVE SMOOTH",
"1049 165 OFFCURVE",
"925 48 OFFCURVE",
"693 48 CURVE SMOOTH",
"603 48 OFFCURVE",
"509 64 OFFCURVE",
"405 100 CURVE",
"405 32 LINE",
"499 -2 OFFCURVE",
"603 -18 OFFCURVE",
"687 -18 CURVE SMOOTH",
"968 -18 OFFCURVE",
"1121 126 OFFCURVE",
"1121 405 CURVE SMOOTH"
);
}
);
width = 1189;
},
{
associatedMasterId = "ECFF4977-BDCC-4836-B4AC-1801CF0EB460";
background = {
paths = (
{
closed = 1;
nodes = (
"1174 -18 OFFCURVE",
"1330 122 OFFCURVE",
"1330 376 CURVE SMOOTH",
"1330 582 OFFCURVE",
"1228 704 OFFCURVE",
"986 782 CURVE SMOOTH",
"756 856 OFFCURVE",
"672 932 OFFCURVE",
"672 1124 CURVE SMOOTH",
"672 1322 OFFCURVE",
"788 1432 OFFCURVE",
"1026 1432 CURVE SMOOTH",
"1110 1432 OFFCURVE",
"1190 1422 OFFCURVE",
"1276 1394 CURVE",
"1276 1462 LINE",
"1208 1486 OFFCURVE",
"1108 1498 OFFCURVE",
"1030 1498 CURVE SMOOTH",
"750 1498 OFFCURVE",
"600 1356 OFFCURVE",
"600 1120 CURVE SMOOTH",
"600 906 OFFCURVE",
"708 796 OFFCURVE",
"952 718 CURVE SMOOTH",
"1180 646 OFFCURVE",
"1258 556 OFFCURVE",
"1258 372 CURVE SMOOTH",
"1258 156 OFFCURVE",
"1134 48 OFFCURVE",
"902 48 CURVE SMOOTH",
"812 48 OFFCURVE",
"718 64 OFFCURVE",
"614 100 CURVE",
"614 32 LINE",
"708 -2 OFFCURVE",
"812 -18 OFFCURVE",
"896 -18 CURVE SMOOTH"
);
},
{
closed = 1;
nodes = (
"232 0 LINE",
"232 998 LINE SMOOTH",
"232 1290 OFFCURVE",
"338 1432 OFFCURVE",
"608 1432 CURVE SMOOTH",
"670 1432 OFFCURVE",
"724 1424 OFFCURVE",
"772 1408 CURVE",
"838 1452 LINE",
"776 1482 OFFCURVE",
"698 1498 OFFCURVE",
"608 1498 CURVE SMOOTH",
"296 1498 OFFCURVE",
"164 1334 OFFCURVE",
"164 988 CURVE SMOOTH",
"164 0 LINE"
);
}
);
};
color = -1;
guideLines = (
{
angle = 270;
position = "{435, 100}";
}
);
layerId = "8F68F587-8194-4D66-A15D-ADDFDC756537";
name = "Nov 2 18, 15:11";
paths = (
{
closed = 1;
nodes = (
"232 0 LINE",
"232 998 LINE SMOOTH",
"232 1297 OFFCURVE",
"364 1435 OFFCURVE",
"604 1435 CURVE SMOOTH",
"737 1435 OFFCURVE",
"861 1400 OFFCURVE",
"957 1333 CURVE",
"1010 1373 LINE",
"904 1452 OFFCURVE",
"765 1498 OFFCURVE",
"610 1498 CURVE SMOOTH",
"304 1498 OFFCURVE",
"164 1326 OFFCURVE",
"164 988 CURVE SMOOTH",
"164 0 LINE"
);
},
{
closed = 1;
nodes = (
"553 730 LINE",
"1010 1336 LINE",
"1010 1373 LINE",
"942 1352 LINE",
"485 745 LINE",
"485 705 LINE"
);
},
{
closed = 1;
nodes = (
"1121 671 OFFCURVE",
"931 792 OFFCURVE",
"682 792 CURVE SMOOTH",
"625 792 OFFCURVE",
"593 788 OFFCURVE",
"531 774 CURVE",
"485 705 LINE",
"550 720 OFFCURVE",
"605 726 OFFCURVE",
"663 726 CURVE SMOOTH",
"918 726 OFFCURVE",
"1049 611 OFFCURVE",
"1049 387 CURVE SMOOTH",
"1049 170 OFFCURVE",
"925 48 OFFCURVE",
"689 48 CURVE SMOOTH",
"604 48 OFFCURVE",
"509 64 OFFCURVE",
"405 100 CURVE",
"405 32 LINE",
"499 -2 OFFCURVE",
"602 -18 OFFCURVE",
"691 -18 CURVE SMOOTH",
"968 -18 OFFCURVE",
"1121 135 OFFCURVE",
"1121 389 CURVE SMOOTH"
);
}
);
width = 1189;
},
{
associatedMasterId = "C8FFBC04-9D7C-494A-A42D-BACB8E26599D";
background = {
paths = (
{
closed = 1;
nodes = (
"1434 -20 OFFCURVE",
"1640 166 OFFCURVE",
"1640 456 CURVE SMOOTH",
"1640 696 OFFCURVE",
"1506 820 OFFCURVE",
"1276 898 CURVE SMOOTH",
"1098 958 OFFCURVE",
"1060 988 OFFCURVE",
"1060 1054 CURVE SMOOTH",
"1060 1120 OFFCURVE",
"1110 1176 OFFCURVE",
"1306 1176 CURVE SMOOTH",
"1384 1176 OFFCURVE",
"1484 1164 OFFCURVE",
"1562 1144 CURVE",
"1562 1466 LINE",
"1480 1486 OFFCURVE",
"1374 1500 OFFCURVE",
"1270 1500 CURVE SMOOTH",
"860 1500 OFFCURVE",
"670 1318 OFFCURVE",
"670 1024 CURVE SMOOTH",
"670 792 OFFCURVE",
"808 650 OFFCURVE",
"1012 588 CURVE SMOOTH",
"1208 528 OFFCURVE",
"1250 490 OFFCURVE",
"1250 420 CURVE SMOOTH",
"1250 350 OFFCURVE",
"1198 304 OFFCURVE",
"1058 304 CURVE SMOOTH",
"946 304 OFFCURVE",
"820 328 OFFCURVE",
"714 360 CURVE",
"714 38 LINE",
"818 2 OFFCURVE",
"964 -20 OFFCURVE",
"1070 -20 CURVE SMOOTH"
);
},
{
closed = 1;
nodes = (
"480 0 LINE",
"480 1006 LINE SMOOTH",
"480 1124 OFFCURVE",
"536 1178 OFFCURVE",
"630 1178 CURVE SMOOTH",
"676 1178 OFFCURVE",
"712 1164 OFFCURVE",
"746 1134 CURVE",
"984 1414 LINE",
"904 1466 OFFCURVE",
"784 1500 OFFCURVE",
"630 1500 CURVE SMOOTH",
"270 1500 OFFCURVE",
"88 1302 OFFCURVE",
"88 956 CURVE SMOOTH",
"88 0 LINE"
);
}
);
};
color = -1;
layerId = "FF1F9083-F720-49A8-AA6E-F5098EE6A237";
name = "Nov 2 18, 15:40";
paths = (
{
closed = 1;
nodes = (
"480 0 LINE",
"480 1006 LINE SMOOTH",
"480 1129 OFFCURVE",
"553 1182 OFFCURVE",
"741 1182 CURVE SMOOTH",
"864 1182 OFFCURVE",
"952 1156 OFFCURVE",
"1041 1117 CURVE",
"1247 1374 LINE",
"1124 1438 OFFCURVE",
"956 1500 OFFCURVE",
"712 1500 CURVE SMOOTH",
"291 1500 OFFCURVE",
"88 1314 OFFCURVE",
"88 956 CURVE SMOOTH",
"88 0 LINE"
);
},
{
closed = 1;
nodes = (
"874 705 LINE",
"1247 1161 LINE",
"1247 1374 LINE",
"1024 1352 LINE",
"620 828 LINE",
"620 617 LINE"
);
},
{
closed = 1;
nodes = (
"1361 717 OFFCURVE",
"1194 870 OFFCURVE",
"950 870 CURVE SMOOTH",
"855 870 OFFCURVE",
"752 848 OFFCURVE",
"693 811 CURVE",
"620 617 LINE",
"665 629 OFFCURVE",
"723 636 OFFCURVE",
"778 636 CURVE SMOOTH",
"946 636 OFFCURVE",
"1005 559 OFFCURVE",
"1005 472 CURVE SMOOTH",
"1005 373 OFFCURVE",
"948 308 OFFCURVE",
"810 308 CURVE SMOOTH",
"738 308 OFFCURVE",
"650 332 OFFCURVE",
"579 364 CURVE",
"579 38 LINE",
"650 1 OFFCURVE",
"742 -20 OFFCURVE",
"850 -20 CURVE SMOOTH",
"1165 -20 OFFCURVE",
"1361 158 OFFCURVE",
"1361 457 CURVE SMOOTH"
);
}
);
width = 1381;
},
{
associatedMasterId = "ECFF4977-BDCC-4836-B4AC-1801CF0EB460";
background = {
paths = (
{
closed = 1;
nodes = (
"1174 -18 OFFCURVE",
"1330 122 OFFCURVE",
"1330 376 CURVE SMOOTH",
"1330 582 OFFCURVE",
"1228 704 OFFCURVE",
"986 782 CURVE SMOOTH",
"756 856 OFFCURVE",
"672 932 OFFCURVE",
"672 1124 CURVE SMOOTH",
"672 1322 OFFCURVE",
"788 1432 OFFCURVE",
"1026 1432 CURVE SMOOTH",
"1110 1432 OFFCURVE",
"1190 1422 OFFCURVE",
"1276 1394 CURVE",
"1276 1462 LINE",
"1208 1486 OFFCURVE",
"1108 1498 OFFCURVE",
"1030 1498 CURVE SMOOTH",
"750 1498 OFFCURVE",
"600 1356 OFFCURVE",
"600 1120 CURVE SMOOTH",
"600 906 OFFCURVE",
"708 796 OFFCURVE",
"952 718 CURVE SMOOTH",
"1180 646 OFFCURVE",
"1258 556 OFFCURVE",
"1258 372 CURVE SMOOTH",
"1258 156 OFFCURVE",
"1134 48 OFFCURVE",
"902 48 CURVE SMOOTH",
"812 48 OFFCURVE",
"718 64 OFFCURVE",
"614 100 CURVE",
"614 32 LINE",
"708 -2 OFFCURVE",
"812 -18 OFFCURVE",
"896 -18 CURVE SMOOTH"
);
},
{
closed = 1;
nodes = (
"232 0 LINE",
"232 998 LINE SMOOTH",
"232 1290 OFFCURVE",
"338 1432 OFFCURVE",
"608 1432 CURVE SMOOTH",
"670 1432 OFFCURVE",
"724 1424 OFFCURVE",
"772 1408 CURVE",
"838 1452 LINE",
"776 1482 OFFCURVE",
"698 1498 OFFCURVE",
"608 1498 CURVE SMOOTH",
"296 1498 OFFCURVE",
"164 1334 OFFCURVE",
"164 988 CURVE SMOOTH",
"164 0 LINE"
);
}
);
};
color = -1;
guideLines = (
{
angle = 270;
position = "{435, 100}";
}
);
layerId = "3E3F81E0-EBB8-49E1-9BF4-E546EC2E5DA7";
name = "Nov 2 18, 15:43";
paths = (
{
closed = 1;
nodes = (
"640 792 OFFCURVE",
"612 790 OFFCURVE",
"576 784 CURVE",
"578 763 LINE",
"1010 1336 LINE",
"1010 1373 LINE",
"904 1452 OFFCURVE",
"765 1498 OFFCURVE",
"610 1498 CURVE SMOOTH",
"304 1498 OFFCURVE",
"164 1326 OFFCURVE",
"164 988 CURVE SMOOTH",
"164 0 LINE",
"232 0 LINE",
"232 998 LINE SMOOTH",
"232 1297 OFFCURVE",
"364 1435 OFFCURVE",
"604 1435 CURVE SMOOTH",
"735 1435 OFFCURVE",
"858 1401 OFFCURVE",
"953 1335 CURVE",
"955 1370 LINE",
"485 745 LINE",
"485 705 LINE",
"550 720 OFFCURVE",
"605 726 OFFCURVE",
"663 726 CURVE SMOOTH",
"918 726 OFFCURVE",
"1049 611 OFFCURVE",
"1049 387 CURVE SMOOTH",
"1049 170 OFFCURVE",
"925 48 OFFCURVE",
"689 48 CURVE SMOOTH",
"604 48 OFFCURVE",
"509 64 OFFCURVE",
"405 100 CURVE",
"405 32 LINE",
"499 -2 OFFCURVE",
"602 -18 OFFCURVE",
"691 -18 CURVE SMOOTH",
"968 -18 OFFCURVE",
"1121 135 OFFCURVE",
"1121 389 CURVE SMOOTH",
"1121 671 OFFCURVE",
"931 792 OFFCURVE",
"682 792 CURVE SMOOTH"
);
}
);
width = 1189;
},
{
associatedMasterId = "ECFF4977-BDCC-4836-B4AC-1801CF0EB460";
background = {
paths = (
{
closed = 1;
nodes = (
"1174 -18 OFFCURVE",
"1330 122 OFFCURVE",
"1330 376 CURVE SMOOTH",
"1330 582 OFFCURVE",
"1228 704 OFFCURVE",
"986 782 CURVE SMOOTH",
"756 856 OFFCURVE",
"672 932 OFFCURVE",
"672 1124 CURVE SMOOTH",
"672 1322 OFFCURVE",
"788 1432 OFFCURVE",
"1026 1432 CURVE SMOOTH",
"1110 1432 OFFCURVE",
"1190 1422 OFFCURVE",
"1276 1394 CURVE",
"1276 1462 LINE",
"1208 1486 OFFCURVE",
"1108 1498 OFFCURVE",
"1030 1498 CURVE SMOOTH",
"750 1498 OFFCURVE",
"600 1356 OFFCURVE",
"600 1120 CURVE SMOOTH",
"600 906 OFFCURVE",
"708 796 OFFCURVE",
"952 718 CURVE SMOOTH",
"1180 646 OFFCURVE",
"1258 556 OFFCURVE",
"1258 372 CURVE SMOOTH",
"1258 156 OFFCURVE",
"1134 48 OFFCURVE",
"902 48 CURVE SMOOTH",
"812 48 OFFCURVE",
"718 64 OFFCURVE",
"614 100 CURVE",
"614 32 LINE",
"708 -2 OFFCURVE",
"812 -18 OFFCURVE",
"896 -18 CURVE SMOOTH"
);
},
{
closed = 1;
nodes = (
"232 0 LINE",
"232 998 LINE SMOOTH",
"232 1290 OFFCURVE",
"338 1432 OFFCURVE",
"608 1432 CURVE SMOOTH",
"670 1432 OFFCURVE",
"724 1424 OFFCURVE",
"772 1408 CURVE",
"838 1452 LINE",
"776 1482 OFFCURVE",
"698 1498 OFFCURVE",
"608 1498 CURVE SMOOTH",
"296 1498 OFFCURVE",
"164 1334 OFFCURVE",
"164 988 CURVE SMOOTH",
"164 0 LINE"
);
}
);
};
color = -1;
guideLines = (
{
angle = 270;
position = "{435, 100}";
}
);
layerId = "77E8681D-BBB0-465A-BBAD-8ECEEED475A8";
name = "Nov 2 18, 15:56";
paths = (
{
closed = 1;
nodes = (
"640 792 OFFCURVE",
"612 790 OFFCURVE",
"576 784 CURVE",
"577 764 LINE",
"1009 1327 LINE",
"1009 1364 LINE",
"908 1454 OFFCURVE",
"777 1498 OFFCURVE",
"630 1498 CURVE SMOOTH",
"309 1498 OFFCURVE",
"164 1292 OFFCURVE",
"164 1066 CURVE SMOOTH",
"164 0 LINE",
"232 0 LINE",
"232 1076 LINE SMOOTH",
"232 1278 OFFCURVE",
"365 1437 OFFCURVE",
"624 1437 CURVE SMOOTH",
"748 1437 OFFCURVE",
"873 1408 OFFCURVE",
"953 1325 CURVE",
"955 1360 LINE",
"485 745 LINE",
"485 705 LINE",
"550 720 OFFCURVE",
"605 726 OFFCURVE",
"663 726 CURVE SMOOTH",
"920 726 OFFCURVE",
"1049 611 OFFCURVE",
"1049 387 CURVE SMOOTH",
"1049 170 OFFCURVE",
"923 48 OFFCURVE",
"683 48 CURVE SMOOTH",
"600 48 OFFCURVE",
"507 64 OFFCURVE",
"405 100 CURVE",
"405 32 LINE",
"497 -2 OFFCURVE",
"598 -18 OFFCURVE",
"685 -18 CURVE SMOOTH",
"966 -18 OFFCURVE",
"1121 135 OFFCURVE",
"1121 389 CURVE SMOOTH",
"1121 671 OFFCURVE",
"933 792 OFFCURVE",
"682 792 CURVE SMOOTH"
);
}
);
width = 1189;
},
{
associatedMasterId = "C8FFBC04-9D7C-494A-A42D-BACB8E26599D";
background = {
paths = (
{
closed = 1;
nodes = (
"1434 -20 OFFCURVE",
"1640 166 OFFCURVE",
"1640 456 CURVE SMOOTH",
"1640 696 OFFCURVE",
"1506 820 OFFCURVE",
"1276 898 CURVE SMOOTH",
"1098 958 OFFCURVE",
"1060 988 OFFCURVE",
"1060 1054 CURVE SMOOTH",
"1060 1120 OFFCURVE",
"1110 1176 OFFCURVE",
"1306 1176 CURVE SMOOTH",
"1384 1176 OFFCURVE",
"1484 1164 OFFCURVE",
"1562 1144 CURVE",
"1562 1466 LINE",
"1480 1486 OFFCURVE",
"1374 1500 OFFCURVE",
"1270 1500 CURVE SMOOTH",
"860 1500 OFFCURVE",
"670 1318 OFFCURVE",
"670 1024 CURVE SMOOTH",
"670 792 OFFCURVE",
"808 650 OFFCURVE",
"1012 588 CURVE SMOOTH",
"1208 528 OFFCURVE",
"1250 490 OFFCURVE",
"1250 420 CURVE SMOOTH",
"1250 350 OFFCURVE",
"1198 304 OFFCURVE",
"1058 304 CURVE SMOOTH",
"946 304 OFFCURVE",
"820 328 OFFCURVE",
"714 360 CURVE",
"714 38 LINE",
"818 2 OFFCURVE",
"964 -20 OFFCURVE",
"1070 -20 CURVE SMOOTH"
);
},
{
closed = 1;
nodes = (
"480 0 LINE",
"480 1006 LINE SMOOTH",
"480 1124 OFFCURVE",
"536 1178 OFFCURVE",
"630 1178 CURVE SMOOTH",
"676 1178 OFFCURVE",
"712 1164 OFFCURVE",
"746 1134 CURVE",
"984 1414 LINE",
"904 1466 OFFCURVE",
"784 1500 OFFCURVE",
"630 1500 CURVE SMOOTH",
"270 1500 OFFCURVE",
"88 1302 OFFCURVE",
"88 956 CURVE SMOOTH",
"88 0 LINE"
);
}
);
};
color = -1;
layerId = "0DB4D313-FAD1-4CE5-9E4E-8362E6C97277";
name = "Nov 2 18, 15:57";
paths = (
{
closed = 1;
nodes = (
"1247 1161 LINE",
"1247 1374 LINE",
"1124 1440 OFFCURVE",
"956 1500 OFFCURVE",
"712 1500 CURVE SMOOTH",
"291 1500 OFFCURVE",
"88 1314 OFFCURVE",
"88 956 CURVE SMOOTH",
"88 0 LINE",
"480 0 LINE",
"480 1006 LINE SMOOTH",
"480 1129 OFFCURVE",
"553 1182 OFFCURVE",
"741 1182 CURVE SMOOTH",
"838 1182 OFFCURVE",
"911 1165 OFFCURVE",
"985 1144 CURVE",
"991 1309 LINE",
"620 828 LINE",
"620 617 LINE",
"665 629 OFFCURVE",
"723 636 OFFCURVE",
"778 636 CURVE SMOOTH",
"946 636 OFFCURVE",
"1005 559 OFFCURVE",
"1005 472 CURVE SMOOTH",
"1005 373 OFFCURVE",
"948 308 OFFCURVE",
"810 308 CURVE SMOOTH",
"738 308 OFFCURVE",
"650 332 OFFCURVE",
"579 364 CURVE",
"579 38 LINE",
"650 1 OFFCURVE",
"742 -20 OFFCURVE",
"850 -20 CURVE SMOOTH",
"1165 -20 OFFCURVE",
"1361 158 OFFCURVE",
"1361 457 CURVE SMOOTH",
"1361 743 OFFCURVE",
"1158 900 OFFCURVE",
"875 865 CURVE",
"895 730 LINE"
);
}
);
width = 1381;
}
);
leftKerningGroup = H;
rightKerningGroup = S;
rightMetricsKey = S;
unicode = 1E9E;
},
{
glyphname = Schwa;
layers = (
{
anchors = (
{
name = bottom;
position = "{584, 0}";
},
{
name = top;
position = "{584, 1520}";
}
);
background = {
paths = (
{
closed = 1;
nodes = (
"874 -18 OFFCURVE",
"1066 182 OFFCURVE",
"1066 740 CURVE SMOOTH",
"1066 1298 OFFCURVE",
"878 1498 OFFCURVE",
"582 1498 CURVE SMOOTH",
"286 1498 OFFCURVE",
"98 1298 OFFCURVE",
"98 740 CURVE SMOOTH",
"98 182 OFFCURVE",
"290 -18 OFFCURVE",
"582 -18 CURVE SMOOTH"
);
},
{
closed = 1;
nodes = (
"334 48 OFFCURVE",
"170 206 OFFCURVE",
"170 744 CURVE SMOOTH",
"170 1274 OFFCURVE",
"334 1432 OFFCURVE",
"582 1432 CURVE SMOOTH",
"830 1432 OFFCURVE",
"994 1274 OFFCURVE",
"994 736 CURVE SMOOTH",
"994 206 OFFCURVE",
"830 48 OFFCURVE",
"582 48 CURVE SMOOTH"
);
}
);
};
color = -1;
layerId = "ECFF4977-BDCC-4836-B4AC-1801CF0EB460";
paths = (
{
closed = 1;
nodes = (
"876 -18 OFFCURVE",
"1068 182 OFFCURVE",
"1068 740 CURVE SMOOTH",
"1068 1302 OFFCURVE",
"860 1498 OFFCURVE",
"484 1498 CURVE SMOOTH",
"370 1498 OFFCURVE",
"266 1486 OFFCURVE",
"156 1458 CURVE",
"156 1390 LINE",
"264 1422 OFFCURVE",
"380 1432 OFFCURVE",
"478 1432 CURVE SMOOTH",
"832 1432 OFFCURVE",
"996 1278 OFFCURVE",
"996 738 CURVE SMOOTH",
"996 206 OFFCURVE",
"832 48 OFFCURVE",
"572 48 CURVE SMOOTH",
"312 48 OFFCURVE",
"160 206 OFFCURVE",
"160 740 CURVE",
"136 714 LINE",
"1024 714 LINE",
"1024 780 LINE",
"88 780 LINE",
"88 740 LINE SMOOTH",
"88 186 OFFCURVE",
"268 -18 OFFCURVE",
"572 -18 CURVE SMOOTH"
);
}
);
width = 1166;
},
{
anchors = (
{
name = bottom;
position = "{694, 0}";
},
{
name = top;
position = "{694, 1480}";
}
);
background = {
paths = (
{
closed = 1;
nodes = (
"1072 -20 OFFCURVE",
"1330 204 OFFCURVE",
"1330 740 CURVE SMOOTH",
"1330 1276 OFFCURVE",
"1066 1500 OFFCURVE",
"686 1500 CURVE SMOOTH",
"306 1500 OFFCURVE",
"42 1276 OFFCURVE",
"42 740 CURVE SMOOTH",
"42 204 OFFCURVE",
"300 -20 OFFCURVE",
"686 -20 CURVE SMOOTH"
);
},
{
closed = 1;
nodes = (
"528 304 OFFCURVE",
"442 414 OFFCURVE",
"442 748 CURVE SMOOTH",
"442 1066 OFFCURVE",
"528 1176 OFFCURVE",
"686 1176 CURVE SMOOTH",
"844 1176 OFFCURVE",
"930 1066 OFFCURVE",
"930 732 CURVE SMOOTH",
"930 414 OFFCURVE",
"844 304 OFFCURVE",
"686 304 CURVE SMOOTH"
);
}
);
};
color = -1;
layerId = "C8FFBC04-9D7C-494A-A42D-BACB8E26599D";
paths = (
{
closed = 1;
nodes = (
"1042 -20 OFFCURVE",
"1316 218 OFFCURVE",
"1316 720 CURVE SMOOTH",
"1316 1250 OFFCURVE",
"1054 1500 OFFCURVE",
"532 1500 CURVE SMOOTH",
"408 1500 OFFCURVE",
"256 1486 OFFCURVE",
"136 1458 CURVE",
"136 1136 LINE",
"244 1164 OFFCURVE",
"378 1180 OFFCURVE",
"492 1180 CURVE SMOOTH",
"802 1180 OFFCURVE",
"926 1072 OFFCURVE",
"926 712 CURVE SMOOTH",
"926 386 OFFCURVE",
"856 296 OFFCURVE",
"690 296 CURVE SMOOTH",
"512 296 OFFCURVE",
"448 398 OFFCURVE",
"448 712 CURVE",
"292 564 LINE",
"1064 564 LINE",
"1064 858 LINE",
"44 858 LINE",
"44 720 LINE SMOOTH",
"44 198 OFFCURVE",
"322 -20 OFFCURVE",
"688 -20 CURVE SMOOTH"
);
}
);
width = 1370;
}
);
leftKerningGroup = O;
rightKerningGroup = O;
unicode = 018F;
userData = {
com.typemytype.robofont.layerData = {
};
};
},
{
glyphname = T;
layers = (
{
anchors = (
{
name = bottom;
position = "{490, 0}";
},
{
name = center;
position = "{490, 800}";
},
{
name = top;
position = "{490, 1520}";
}
);
background = {
anchors = (
{
name = bottom;
position = "{496, 0}";
},
{
name = topUC;
position = "{494, 1520}";
}
);
paths = (
{
closed = 1;
nodes = (
"112 0 LINE",
"112 728 LINE",
"868 728 LINE",
"868 0 LINE",
"936 0 LINE",
"936 1480 LINE",
"868 1480 LINE",
"868 794 LINE",
"112 794 LINE",
"112 1480 LINE",
"44 1480 LINE",
"44 0 LINE"
);
}
);
};
color = -1;
layerId = "ECFF4977-BDCC-4836-B4AC-1801CF0EB460";
paths = (
{
closed = 1;
nodes = (
"524 0 LINE",
"524 1414 LINE",
"972 1414 LINE",
"972 1480 LINE",
"8 1480 LINE",
"8 1414 LINE",
"456 1414 LINE",
"456 0 LINE"
);
}
);
width = 980;
},
{
anchors = (
{
name = bottom;
position = "{594, 0}";
},
{
name = center;
position = "{594, 700}";
},
{
name = top;
position = "{594, 1520}";
}
);
background = {
anchors = (
{
name = bottom;
position = "{548, 0}";
},
{
name = top;
position = "{536, 1610}";
}
);
paths = (
{
closed = 1;
nodes = (
"384 0 LINE",
"384 576 LINE",
"790 576 LINE",
"790 0 LINE",
"1182 0 LINE",
"1182 1480 LINE",
"790 1480 LINE",
"790 934 LINE",
"384 934 LINE",
"384 1480 LINE",
"-8 1480 LINE",
"-8 0 LINE"
);
}
);
};
color = -1;
layerId = "C8FFBC04-9D7C-494A-A42D-BACB8E26599D";
paths = (
{
closed = 1;
nodes = (
"790 0 LINE",
"790 1134 LINE",
"1182 1134 LINE",
"1182 1480 LINE",
"4 1480 LINE",
"4 1134 LINE",
"396 1134 LINE",
"396 0 LINE"
);
}
);
width = 1186;
}
);
leftKerningGroup = T;
rightKerningGroup = T;
unicode = 0054;
userData = {
com.typemytype.robofont.layerData = {
};
};
},
{
glyphname = Tbar;
layers = (
{
background = {
components = (
{
name = T;
transform = "{1, 0, 0, 1, 4, 0}";
}
);
paths = (
{
closed = 1;
nodes = (
"206 750 LINE",
"730 750 LINE",
"730 802 LINE",
"206 802 LINE"
);
}
);
};
color = -1;
components = (
{
name = T;
},
{
name = strokeshortcomb.case;
transform = "{1, 0, 0, 1, 90, -280}";
}
);
layerId = "ECFF4977-BDCC-4836-B4AC-1801CF0EB460";
width = 980;
},
{
background = {
components = (
{
name = T;
},
{
name = strokeshortcomb.case;
}
);
};
color = -1;
components = (
{
name = T;
},
{
name = strokeshortcomb.case;
transform = "{1, 0, 0, 1, 54, -380}";
}
);
layerId = "C8FFBC04-9D7C-494A-A42D-BACB8E26599D";
width = 1186;
}
);
leftKerningGroup = T;
rightKerningGroup = T;
unicode = 0166;
},
{
glyphname = U;
layers = (
{
anchors = (
{
name = bottom;
position = "{600, 0}";
},
{
name = ogonek;
position = "{718, 0}";
},
{
name = top;
position = "{600, 1520}";
},
{
name = topright;
position = "{976, 1480}";
}
);
background = {
paths = (
{
closed = 1;
nodes = (
"912 -18 OFFCURVE",
"1044 146 OFFCURVE",
"1044 492 CURVE SMOOTH",
"1044 1480 LINE",
"976 1480 LINE",
"976 482 LINE SMOOTH",
"976 190 OFFCURVE",
"870 48 OFFCURVE",
"600 48 CURVE SMOOTH",
"330 48 OFFCURVE",
"224 190 OFFCURVE",
"224 482 CURVE SMOOTH",
"224 1480 LINE",
"156 1480 LINE",
"156 492 LINE SMOOTH",
"156 146 OFFCURVE",
"288 -18 OFFCURVE",
"600 -18 CURVE SMOOTH"
);
}
);
};
color = -1;
layerId = "ECFF4977-BDCC-4836-B4AC-1801CF0EB460";
paths = (
{
closed = 1;
nodes = (
"912 -18 OFFCURVE",
"1042 146 OFFCURVE",
"1042 492 CURVE SMOOTH",
"1042 1480 LINE",
"976 1480 LINE",
"976 482 LINE SMOOTH",
"976 190 OFFCURVE",
"870 48 OFFCURVE",
"600 48 CURVE SMOOTH",
"330 48 OFFCURVE",
"224 190 OFFCURVE",
"224 482 CURVE SMOOTH",
"224 1480 LINE",
"156 1480 LINE",
"156 492 LINE SMOOTH",
"156 146 OFFCURVE",
"288 -18 OFFCURVE",
"600 -18 CURVE SMOOTH"
);
}
);
width = 1198;
},
{
anchors = (
{
name = bottom;
position = "{674, 0}";
},
{
name = ogonek;
position = "{926, 0}";
},
{
name = top;
position = "{674, 1520}";
},
{
name = topright;
position = "{940, 1480}";
}
);
background = {
paths = (
{
closed = 1;
nodes = (
"1062 -20 OFFCURVE",
"1254 158 OFFCURVE",
"1254 604 CURVE SMOOTH",
"1254 1480 LINE",
"870 1480 LINE",
"870 560 LINE SMOOTH",
"870 364 OFFCURVE",
"796 302 OFFCURVE",
"672 302 CURVE SMOOTH",
"548 302 OFFCURVE",
"472 364 OFFCURVE",
"472 560 CURVE SMOOTH",
"472 1480 LINE",
"80 1480 LINE",
"80 604 LINE SMOOTH",
"80 158 OFFCURVE",
"278 -20 OFFCURVE",
"672 -20 CURVE SMOOTH"
);
}
);
};
color = -1;
layerId = "C8FFBC04-9D7C-494A-A42D-BACB8E26599D";
paths = (
{
closed = 1;
nodes = (
"1064 -20 OFFCURVE",
"1256 158 OFFCURVE",
"1256 604 CURVE SMOOTH",
"1256 1480 LINE",
"872 1480 LINE",
"872 560 LINE SMOOTH",
"872 370 OFFCURVE",
"798 308 OFFCURVE",
"674 308 CURVE SMOOTH",
"550 308 OFFCURVE",
"474 370 OFFCURVE",
"474 560 CURVE SMOOTH",
"474 1480 LINE",
"82 1480 LINE",
"82 604 LINE SMOOTH",
"82 158 OFFCURVE",
"280 -20 OFFCURVE",
"674 -20 CURVE SMOOTH"
);
}
);
width = 1338;
}
);
leftKerningGroup = U;
rightKerningGroup = U;
unicode = 0055;
userData = {
com.typemytype.robofont.layerData = {
};
};
},
{
glyphname = Uhorn;
layers = (
{
anchors = (
{
name = bottom;
position = "{600, 0}";
},
{
name = top;
position = "{600, 1520}";
}
);
background = {
paths = (
{
closed = 1;
nodes = (
"1250 1692 OFFCURVE",
"1242 1730 OFFCURVE",
"1226 1776 CURVE",
"1160 1776 LINE",
"1174 1730 OFFCURVE",
"1184 1690 OFFCURVE",
"1184 1634 CURVE SMOOTH",
"1184 1524 OFFCURVE",
"1106 1480 OFFCURVE",
"1006 1480 CURVE SMOOTH",
"974 1480 LINE",
"974 482 LINE SMOOTH",
"974 190 OFFCURVE",
"868 48 OFFCURVE",
"598 48 CURVE SMOOTH",
"328 48 OFFCURVE",
"222 190 OFFCURVE",
"222 482 CURVE SMOOTH",
"222 1480 LINE",
"154 1480 LINE",
"154 492 LINE SMOOTH",
"154 146 OFFCURVE",
"286 -18 OFFCURVE",
"598 -18 CURVE SMOOTH",
"910 -18 OFFCURVE",
"1040 146 OFFCURVE",
"1040 492 CURVE SMOOTH",
"1040 1414 LINE",
"1160 1422 OFFCURVE",
"1250 1496 OFFCURVE",
"1250 1632 CURVE SMOOTH"
);
}
);
};
color = -1;
layerId = "ECFF4977-BDCC-4836-B4AC-1801CF0EB460";
paths = (
{
closed = 1;
nodes = (
"912 -18 OFFCURVE",
"1042 146 OFFCURVE",
"1042 492 CURVE SMOOTH",
"1042 1418 LINE",
"1162 1424 OFFCURVE",
"1252 1496 OFFCURVE",
"1252 1632 CURVE SMOOTH",
"1252 1692 OFFCURVE",
"1244 1730 OFFCURVE",
"1228 1776 CURVE",
"1162 1776 LINE",
"1176 1730 OFFCURVE",
"1186 1690 OFFCURVE",
"1186 1634 CURVE SMOOTH",
"1186 1524 OFFCURVE",
"1108 1480 OFFCURVE",
"1008 1480 CURVE SMOOTH",
"976 1480 LINE",
"976 482 LINE SMOOTH",
"976 190 OFFCURVE",
"870 48 OFFCURVE",
"600 48 CURVE SMOOTH",
"330 48 OFFCURVE",
"224 190 OFFCURVE",
"224 482 CURVE SMOOTH",
"224 1480 LINE",
"156 1480 LINE",
"156 492 LINE SMOOTH",
"156 146 OFFCURVE",
"288 -18 OFFCURVE",
"600 -18 CURVE SMOOTH"
);
}
);
width = 1198;
},
{
anchors = (
{
name = bottom;
position = "{670, 0}";
},
{
name = top;
position = "{670, 1520}";
}
);
background = {
paths = (
{
closed = 1;
nodes = (
"1062 -20 OFFCURVE",
"1254 158 OFFCURVE",
"1254 604 CURVE SMOOTH",
"1254 1480 LINE",
"870 1480 LINE",
"870 560 LINE SMOOTH",
"870 370 OFFCURVE",
"796 308 OFFCURVE",
"672 308 CURVE SMOOTH",
"548 308 OFFCURVE",
"472 370 OFFCURVE",
"472 560 CURVE SMOOTH",
"472 1480 LINE",
"80 1480 LINE",
"80 604 LINE SMOOTH",
"80 158 OFFCURVE",
"278 -20 OFFCURVE",
"672 -20 CURVE SMOOTH"
);
},
{
closed = 1;
nodes = (
"1088 1304 LINE SMOOTH",
"1280 1304 OFFCURVE",
"1420 1384 OFFCURVE",
"1420 1612 CURVE SMOOTH",
"1420 1672 OFFCURVE",
"1416 1726 OFFCURVE",
"1400 1776 CURVE",
"1134 1776 LINE",
"1146 1724 OFFCURVE",
"1150 1678 OFFCURVE",
"1150 1636 CURVE SMOOTH",
"1150 1518 OFFCURVE",
"1098 1480 OFFCURVE",
"1004 1480 CURVE SMOOTH",
"938 1480 LINE",
"938 1304 LINE"
);
}
);
};
color = -1;
layerId = "C8FFBC04-9D7C-494A-A42D-BACB8E26599D";
paths = (
{
closed = 1;
nodes = (
"1064 -20 OFFCURVE",
"1256 158 OFFCURVE",
"1256 604 CURVE SMOOTH",
"1256 1332 LINE",
"1358 1370 OFFCURVE",
"1422 1458 OFFCURVE",
"1422 1612 CURVE SMOOTH",
"1422 1672 OFFCURVE",
"1418 1726 OFFCURVE",
"1402 1776 CURVE",
"1136 1776 LINE",
"1148 1724 OFFCURVE",
"1152 1678 OFFCURVE",
"1152 1636 CURVE SMOOTH",
"1152 1518 OFFCURVE",
"1100 1480 OFFCURVE",
"1006 1480 CURVE SMOOTH",
"872 1480 LINE",
"872 560 LINE SMOOTH",
"872 370 OFFCURVE",
"798 308 OFFCURVE",
"674 308 CURVE SMOOTH",
"550 308 OFFCURVE",
"474 370 OFFCURVE",
"474 560 CURVE SMOOTH",
"474 1480 LINE",
"82 1480 LINE",
"82 604 LINE SMOOTH",
"82 158 OFFCURVE",
"280 -20 OFFCURVE",
"674 -20 CURVE SMOOTH"
);
}
);
width = 1348;
}
);
leftKerningGroup = U;
rightKerningGroup = U;
unicode = 01AF;
},
{
glyphname = Uogonek;
layers = (
{
background = {
paths = (
{
closed = 1;
nodes = (
"910 -18 OFFCURVE",
"1040 146 OFFCURVE",
"1040 492 CURVE SMOOTH",
"1040 1480 LINE",
"974 1480 LINE",
"974 482 LINE SMOOTH",
"974 190 OFFCURVE",
"868 48 OFFCURVE",
"598 48 CURVE SMOOTH",
"328 48 OFFCURVE",
"222 190 OFFCURVE",
"222 482 CURVE SMOOTH",
"222 1480 LINE",
"154 1480 LINE",
"154 492 LINE SMOOTH",
"154 146 OFFCURVE",
"286 -18 OFFCURVE",
"598 -18 CURVE SMOOTH"
);
},
{
closed = 1;
nodes = (
"730 -400 OFFCURVE",
"778 -388 OFFCURVE",
"828 -362 CURVE",
"828 -308 LINE",
"766 -338 OFFCURVE",
"722 -348 OFFCURVE",
"680 -348 CURVE SMOOTH",
"588 -348 OFFCURVE",
"540 -310 OFFCURVE",
"540 -228 CURVE SMOOTH",
"540 -148 OFFCURVE",
"586 -56 OFFCURVE",
"796 12 CURVE",
"688 26 LINE",
"542 -40 OFFCURVE",
"484 -128 OFFCURVE",
"484 -232 CURVE SMOOTH",
"484 -342 OFFCURVE",
"556 -400 OFFCURVE",
"682 -400 CURVE SMOOTH"
);
}
);
};
color = -1;
layerId = "ECFF4977-BDCC-4836-B4AC-1801CF0EB460";
paths = (
{
closed = 1;
nodes = (
"732 -400 OFFCURVE",
"780 -388 OFFCURVE",
"830 -362 CURVE",
"830 -308 LINE",
"768 -338 OFFCURVE",
"724 -348 OFFCURVE",
"682 -348 CURVE SMOOTH",
"590 -348 OFFCURVE",
"542 -310 OFFCURVE",
"542 -228 CURVE SMOOTH",
"542 -150 OFFCURVE",
"586 -58 OFFCURVE",
"780 6 CURVE SMOOTH",
"982 72 OFFCURVE",
"1042 252 OFFCURVE",
"1042 492 CURVE SMOOTH",
"1042 1480 LINE",
"976 1480 LINE",
"976 482 LINE SMOOTH",
"976 190 OFFCURVE",
"870 48 OFFCURVE",
"600 48 CURVE SMOOTH",
"330 48 OFFCURVE",
"224 190 OFFCURVE",
"224 482 CURVE SMOOTH",
"224 1480 LINE",
"156 1480 LINE",
"156 492 LINE SMOOTH",
"156 146 OFFCURVE",
"288 -18 OFFCURVE",
"600 -18 CURVE SMOOTH",
"640 -18 LINE",
"632 -4 LINE",
"528 -66 OFFCURVE",
"486 -144 OFFCURVE",
"486 -232 CURVE SMOOTH",
"486 -342 OFFCURVE",
"558 -400 OFFCURVE",
"684 -400 CURVE SMOOTH"
);
}
);
width = 1198;
},
{
background = {
paths = (
{
closed = 1;
nodes = (
"1062 -20 OFFCURVE",
"1254 158 OFFCURVE",
"1254 604 CURVE SMOOTH",
"1254 1480 LINE",
"870 1480 LINE",
"870 560 LINE SMOOTH",
"870 370 OFFCURVE",
"796 308 OFFCURVE",
"672 308 CURVE SMOOTH",
"548 308 OFFCURVE",
"472 370 OFFCURVE",
"472 560 CURVE SMOOTH",
"472 1480 LINE",
"80 1480 LINE",
"80 604 LINE SMOOTH",
"80 158 OFFCURVE",
"278 -20 OFFCURVE",
"672 -20 CURVE SMOOTH"
);
},
{
closed = 1;
nodes = (
"828 -460 OFFCURVE",
"884 -448 OFFCURVE",
"936 -430 CURVE",
"936 -280 LINE",
"888 -298 OFFCURVE",
"844 -306 OFFCURVE",
"806 -306 CURVE SMOOTH",
"714 -306 OFFCURVE",
"678 -272 OFFCURVE",
"678 -216 CURVE SMOOTH",
"678 -144 OFFCURVE",
"716 -68 OFFCURVE",
"938 18 CURVE",
"812 86 LINE",
"548 -8 OFFCURVE",
"462 -104 OFFCURVE",
"462 -238 CURVE SMOOTH",
"462 -374 OFFCURVE",
"554 -460 OFFCURVE",
"754 -460 CURVE SMOOTH"
);
}
);
};
color = -1;
layerId = "C8FFBC04-9D7C-494A-A42D-BACB8E26599D";
paths = (
{
closed = 1;
nodes = (
"830 -460 OFFCURVE",
"886 -448 OFFCURVE",
"938 -430 CURVE",
"938 -280 LINE",
"890 -298 OFFCURVE",
"846 -306 OFFCURVE",
"808 -306 CURVE SMOOTH",
"716 -306 OFFCURVE",
"680 -272 OFFCURVE",
"680 -216 CURVE SMOOTH",
"680 -144 OFFCURVE",
"716 -62 OFFCURVE",
"946 20 CURVE SMOOTH",
"1150 92 OFFCURVE",
"1256 274 OFFCURVE",
"1256 604 CURVE SMOOTH",
"1256 1480 LINE",
"872 1480 LINE",
"872 560 LINE SMOOTH",
"872 370 OFFCURVE",
"798 308 OFFCURVE",
"674 308 CURVE SMOOTH",
"550 308 OFFCURVE",
"474 370 OFFCURVE",
"474 560 CURVE SMOOTH",
"474 1480 LINE",
"82 1480 LINE",
"82 604 LINE SMOOTH",
"82 158 OFFCURVE",
"280 -20 OFFCURVE",
"674 -20 CURVE SMOOTH",
"712 -20 LINE",
"748 62 LINE",
"538 -26 OFFCURVE",
"464 -116 OFFCURVE",
"464 -238 CURVE SMOOTH",
"464 -374 OFFCURVE",
"556 -460 OFFCURVE",
"756 -460 CURVE SMOOTH"
);
}
);
width = 1338;
}
);
leftKerningGroup = U;
rightKerningGroup = U;
unicode = 0172;
},
{
glyphname = V;
layers = (
{
background = {
paths = (
{
closed = 1;
nodes = (
"1016 1480 LINE",
"538 40 LINE",
"562 40 LINE",
"84 1480 LINE",
"10 1480 LINE",
"506 0 LINE",
"592 0 LINE",
"1088 1480 LINE"
);
}
);
};
color = -1;
layerId = "ECFF4977-BDCC-4836-B4AC-1801CF0EB460";
paths = (
{
closed = 1;
nodes = (
"596 0 LINE",
"1088 1480 LINE",
"1018 1480 LINE",
"542 40 LINE",
"558 40 LINE",
"84 1480 LINE",
"10 1480 LINE",
"502 0 LINE"
);
}
);
width = 1098;
},
{
background = {
paths = (
{
closed = 1;
nodes = (
"886 0 LINE",
"1258 1480 LINE",
"886 1480 LINE",
"610 334 LINE",
"628 334 LINE",
"346 1480 LINE",
"-34 1480 LINE",
"346 0 LINE"
);
}
);
};
color = -1;
layerId = "C8FFBC04-9D7C-494A-A42D-BACB8E26599D";
paths = (
{
closed = 1;
nodes = (
"940 0 LINE",
"1298 1480 LINE",
"924 1480 LINE",
"612 150 LINE",
"688 150 LINE",
"384 1480 LINE",
"-18 1480 LINE",
"340 0 LINE"
);
}
);
width = 1280;
}
);
leftKerningGroup = V;
rightKerningGroup = V;
unicode = 0056;
userData = {
com.typemytype.robofont.layerData = {
};
};
},
{
glyphname = W;
layers = (
{
anchors = (
{
name = bottom;
position = "{888, 0}";
},
{
name = top;
position = "{888, 1520}";
}
);
background = {
anchors = (
{
name = topUC;
position = "{884, 1520}";
}
);
paths = (
{
closed = 1;
nodes = (
"430 0 LINE",
"524 0 LINE",
"828 1162 LINE",
"880 1376 LINE",
"888 1376 LINE",
"934 1162 LINE",
"1214 0 LINE",
"1308 0 LINE",
"1696 1480 LINE",
"1628 1480 LINE",
"1338 372 LINE",
"1268 86 LINE",
"1260 86 LINE",
"1196 372 LINE",
"930 1480 LINE",
"844 1480 LINE",
"554 372 LINE",
"484 86 LINE",
"476 86 LINE",
"412 372 LINE",
"146 1480 LINE",
"74 1480 LINE"
);
}
);
};
color = -1;
layerId = "ECFF4977-BDCC-4836-B4AC-1801CF0EB460";
paths = (
{
closed = 1;
nodes = (
"528 0 LINE",
"894 1430 LINE",
"880 1430 LINE",
"1244 0 LINE",
"1338 0 LINE",
"1716 1480 LINE",
"1648 1480 LINE",
"1284 40 LINE",
"1300 40 LINE",
"934 1480 LINE",
"840 1480 LINE",
"474 40 LINE",
"490 40 LINE",
"128 1480 LINE",
"56 1480 LINE",
"434 0 LINE"
);
}
);
width = 1772;
},
{
anchors = (
{
name = bottom;
position = "{1014, 0}";
},
{
name = top;
position = "{1014, 1520}";
}
);
background = {
paths = (
{
closed = 1;
nodes = (
"1382 150 LINE",
"1492 150 LINE",
"1224 1480 LINE",
"826 1480 LINE",
"540 150 LINE",
"658 150 LINE",
"396 1480 LINE",
"2 1480 LINE",
"316 0 LINE",
"834 0 LINE",
"1042 956 LINE",
"984 956 LINE",
"1190 0 LINE",
"1708 0 LINE",
"2022 1480 LINE",
"1656 1480 LINE"
);
}
);
};
color = -1;
layerId = "C8FFBC04-9D7C-494A-A42D-BACB8E26599D";
paths = (
{
closed = 1;
nodes = (
"816 0 LINE",
"1076 1200 LINE",
"976 1200 LINE",
"1212 0 LINE",
"1720 0 LINE",
"2024 1480 LINE",
"1658 1480 LINE",
"1394 138 LINE",
"1500 138 LINE",
"1240 1480 LINE",
"816 1480 LINE",
"536 138 LINE",
"650 138 LINE",
"398 1480 LINE",
"4 1480 LINE",
"308 0 LINE"
);
}
);
width = 2028;
}
);
leftKerningGroup = V;
rightKerningGroup = V;
unicode = 0057;
userData = {
com.typemytype.robofont.layerData = {
};
};
},
{
glyphname = X;
layers = (
{
background = {
paths = (
{
closed = 1;
nodes = (
"32 0 LINE",
"112 0 LINE",
"1034 1480 LINE",
"954 1480 LINE"
);
},
{
closed = 1;
nodes = (
"42 1480 LINE",
"962 0 LINE",
"1044 0 LINE",
"122 1480 LINE"
);
},
{
closed = 1;
nodes = (
"168 0 LINE",
"168 728 LINE",
"924 728 LINE",
"924 0 LINE",
"992 0 LINE",
"992 1480 LINE",
"924 1480 LINE",
"924 794 LINE",
"168 794 LINE",
"168 1480 LINE",
"100 1480 LINE",
"100 0 LINE"
);
}
);
};
color = -1;
layerId = "ECFF4977-BDCC-4836-B4AC-1801CF0EB460";
paths = (
{
closed = 1;
nodes = (
"1044 0 LINE",
"578 748 LINE",
"538 810 LINE",
"122 1480 LINE",
"42 1480 LINE",
"498 748 LINE",
"538 684 LINE",
"962 0 LINE"
);
},
{
closed = 1;
nodes = (
"112 0 LINE",
"538 684 LINE",
"578 748 LINE",
"1034 1480 LINE",
"954 1480 LINE",
"538 810 LINE",
"498 748 LINE",
"32 0 LINE"
);
}
);
width = 1076;
},
{
background = {
paths = (
{
closed = 1;
nodes = (
"1330 0 LINE",
"422 1480 LINE",
"-4 1480 LINE",
"908 0 LINE"
);
},
{
closed = 1;
nodes = (
"368 0 LINE",
"1284 1480 LINE",
"864 1480 LINE",
"-54 0 LINE"
);
},
{
closed = 1;
nodes = (
"3130 0 LINE",
"2664 782 LINE",
"2442 1086 LINE",
"2216 1480 LINE",
"1802 1480 LINE",
"2220 778 LINE",
"2438 474 LINE",
"2714 0 LINE"
);
},
{
closed = 1;
nodes = (
"2162 0 LINE",
"2438 474 LINE",
"2664 782 LINE",
"3078 1480 LINE",
"2670 1480 LINE",
"2442 1086 LINE",
"2220 778 LINE",
"1752 0 LINE"
);
}
);
};
color = -1;
layerId = "C8FFBC04-9D7C-494A-A42D-BACB8E26599D";
paths = (
{
closed = 1;
nodes = (
"1332 0 LINE",
"872 778 LINE",
"644 1096 LINE",
"422 1480 LINE",
"-6 1480 LINE",
"416 776 LINE",
"644 464 LINE",
"910 0 LINE"
);
},
{
closed = 1;
nodes = (
"376 0 LINE",
"644 464 LINE",
"872 778 LINE",
"1286 1480 LINE",
"866 1480 LINE",
"644 1096 LINE",
"416 776 LINE",
"-52 0 LINE"
);
}
);
width = 1290;
}
);
leftKerningGroup = X;
rightKerningGroup = X;
unicode = 0058;
userData = {
com.typemytype.robofont.layerData = {
};
};
},
{
glyphname = Y;
layers = (
{
anchors = (
{
name = bottom;
position = "{490, 0}";
},
{
name = top;
position = "{490, 1520}";
},
{
name = topleft;
position = "{12, 1480}";
}
);
background = {
paths = (
{
closed = 1;
nodes = (
"2110 1480 LINE",
"1676 784 LINE",
"1704 784 LINE",
"1272 1480 LINE",
"1194 1480 LINE",
"1672 712 LINE",
"1656 768 LINE",
"1656 0 LINE",
"1724 0 LINE",
"1724 768 LINE",
"1708 712 LINE",
"2186 1480 LINE"
);
},
{
closed = 1;
nodes = (
"1040 1480 LINE",
"472 716 LINE",
"512 716 LINE",
"-56 1480 LINE",
"-144 1480 LINE",
"476 652 LINE",
"456 706 LINE",
"456 0 LINE",
"524 0 LINE",
"524 706 LINE",
"504 652 LINE",
"1124 1480 LINE"
);
}
);
};
color = -1;
layerId = "ECFF4977-BDCC-4836-B4AC-1801CF0EB460";
paths = (
{
closed = 1;
nodes = (
"524 0 LINE",
"524 708 LINE",
"508 652 LINE",
"994 1480 LINE",
"918 1480 LINE",
"476 724 LINE",
"504 724 LINE",
"56 1480 LINE",
"-22 1480 LINE",
"472 652 LINE",
"456 708 LINE",
"456 0 LINE"
);
}
);
width = 980;
},
{
anchors = (
{
name = bottom;
position = "{594, 0}";
},
{
name = top;
position = "{596, 1520}";
},
{
name = topleft;
position = "{-46, 1480}";
}
);
background = {
paths = (
{
closed = 1;
nodes = (
"788 0 LINE",
"788 770 LINE",
"708 460 LINE",
"1246 1480 LINE",
"872 1480 LINE",
"560 870 LINE",
"650 870 LINE",
"332 1480 LINE",
"-78 1480 LINE",
"476 460 LINE",
"396 776 LINE",
"396 0 LINE"
);
}
);
};
color = -1;
layerId = "C8FFBC04-9D7C-494A-A42D-BACB8E26599D";
paths = (
{
closed = 1;
nodes = (
"790 0 LINE",
"790 770 LINE",
"710 460 LINE",
"1252 1480 LINE",
"876 1480 LINE",
"556 870 LINE",
"656 870 LINE",
"338 1480 LINE",
"-72 1480 LINE",
"478 460 LINE",
"398 776 LINE",
"398 0 LINE"
);
}
);
width = 1186;
}
);
leftKerningGroup = Y;
rightKerningGroup = Y;
unicode = 0059;
userData = {
com.typemytype.robofont.layerData = {
};
};
},
{
glyphname = Z;
layers = (
{
anchors = (
{
name = bottom;
position = "{476, 0}";
},
{
name = top;
position = "{476, 1520}";
}
);
background = {
paths = (
{
closed = 1;
nodes = (
"834 0 LINE",
"834 64 LINE",
"114 64 LINE",
"130 38 LINE",
"824 1440 LINE",
"824 1480 LINE",
"66 1480 LINE",
"66 1416 LINE",
"766 1416 LINE",
"750 1442 LINE",
"56 40 LINE",
"56 0 LINE"
);
}
);
};
color = -1;
layerId = "ECFF4977-BDCC-4836-B4AC-1801CF0EB460";
paths = (
{
closed = 1;
nodes = (
"894 0 LINE",
"894 64 LINE",
"114 64 LINE",
"130 38 LINE",
"884 1440 LINE",
"884 1480 LINE",
"66 1480 LINE",
"66 1416 LINE",
"826 1416 LINE",
"810 1442 LINE",
"56 40 LINE",
"56 0 LINE"
);
}
);
width = 950;
},
{
anchors = (
{
name = bottom;
position = "{550, 0}";
},
{
name = top;
position = "{558, 1520}";
}
);
background = {
paths = (
{
closed = 1;
nodes = (
"1078 0 LINE",
"1078 338 LINE",
"500 338 LINE",
"500 280 LINE",
"1068 1260 LINE",
"1068 1480 LINE",
"40 1480 LINE",
"40 1142 LINE",
"598 1142 LINE",
"598 1200 LINE",
"30 220 LINE",
"30 0 LINE"
);
}
);
};
color = -1;
layerId = "C8FFBC04-9D7C-494A-A42D-BACB8E26599D";
paths = (
{
closed = 1;
nodes = (
"1080 0 LINE",
"1080 346 LINE",
"502 346 LINE",
"502 280 LINE",
"1070 1260 LINE",
"1070 1480 LINE",
"42 1480 LINE",
"42 1134 LINE",
"600 1134 LINE",
"600 1200 LINE",
"32 220 LINE",
"32 0 LINE"
);
}
);
width = 1112;
}
);
leftKerningGroup = Z;
rightKerningGroup = Z;
unicode = 005A;
userData = {
com.typemytype.robofont.layerData = {
};
};
},
{
color = 9;
glyphname = a;
layers = (
{
anchors = (
{
name = bottom;
position = "{424, 0}";
},
{
name = ogonek;
position = "{718, 0}";
},
{
name = top;
position = "{420, 1200}";
}
);
background = {
paths = (
{
closed = 1;
nodes = (
"1480 -16 OFFCURVE",
"1578 30 OFFCURVE",
"1644 122 CURVE",
"1652 122 LINE",
"1658 0 LINE",
"1718 0 LINE",
"1718 760 LINE SMOOTH",
"1718 1012 OFFCURVE",
"1600 1096 OFFCURVE",
"1390 1096 CURVE SMOOTH",
"1310 1096 OFFCURVE",
"1208 1080 OFFCURVE",
"1136 1052 CURVE",
"1136 984 LINE",
"1226 1016 OFFCURVE",
"1318 1030 OFFCURVE",
"1388 1030 CURVE SMOOTH",
"1556 1030 OFFCURVE",
"1650 972 OFFCURVE",
"1650 762 CURVE SMOOTH",
"1650 222 LINE",
"1572 90 OFFCURVE",
"1464 50 OFFCURVE",
"1372 50 CURVE SMOOTH",
"1234 50 OFFCURVE",
"1156 120 OFFCURVE",
"1156 274 CURVE SMOOTH",
"1156 414 OFFCURVE",
"1234 490 OFFCURVE",
"1408 510 CURVE SMOOTH",
"1696 542 LINE",
"1686 608 LINE",
"1410 576 LINE SMOOTH",
"1188 550 OFFCURVE",
"1082 450 OFFCURVE",
"1082 266 CURVE SMOOTH",
"1082 82 OFFCURVE",
"1198 -16 OFFCURVE",
"1366 -16 CURVE SMOOTH"
);
},
{
closed = 1;
nodes = (
"134 0 LINE",
"134 850 LINE",
"202 974 OFFCURVE",
"324 1030 OFFCURVE",
"432 1030 CURVE SMOOTH",
"562 1030 OFFCURVE",
"650 968 OFFCURVE",
"650 774 CURVE SMOOTH",
"650 0 LINE",
"718 0 LINE",
"718 776 LINE SMOOTH",
"718 1020 OFFCURVE",
"596 1096 OFFCURVE",
"436 1096 CURVE SMOOTH",
"318 1096 OFFCURVE",
"214 1044 OFFCURVE",
"140 956 CURVE",
"132 956 LINE",
"126 1080 LINE",
"66 1080 LINE",
"66 0 LINE"
);
}
);
};
color = -1;
guideLines = (
{
angle = 90;
position = "{142, 330}";
}
);
layerId = "ECFF4977-BDCC-4836-B4AC-1801CF0EB460";
paths = (
{
closed = 1;
nodes = (
"480 -16 OFFCURVE",
"578 30 OFFCURVE",
"644 122 CURVE",
"652 122 LINE",
"658 0 LINE",
"718 0 LINE",
"718 754 LINE SMOOTH",
"718 1012 OFFCURVE",
"600 1096 OFFCURVE",
"390 1096 CURVE SMOOTH",
"310 1096 OFFCURVE",
"208 1080 OFFCURVE",
"136 1052 CURVE",
"136 984 LINE",
"226 1016 OFFCURVE",
"318 1030 OFFCURVE",
"388 1030 CURVE SMOOTH",
"556 1030 OFFCURVE",
"650 972 OFFCURVE",
"650 756 CURVE SMOOTH",
"650 222 LINE",
"572 90 OFFCURVE",
"464 50 OFFCURVE",
"372 50 CURVE SMOOTH",
"234 50 OFFCURVE",
"156 120 OFFCURVE",
"156 274 CURVE SMOOTH",
"156 414 OFFCURVE",
"234 492 OFFCURVE",
"408 510 CURVE SMOOTH",
"696 542 LINE",
"686 608 LINE",
"410 576 LINE SMOOTH",
"188 552 OFFCURVE",
"82 450 OFFCURVE",
"82 266 CURVE SMOOTH",
"82 82 OFFCURVE",
"198 -16 OFFCURVE",
"366 -16 CURVE SMOOTH"
);
}
);
width = 852;
},
{
anchors = (
{
name = bottom;
position = "{502, 0}";
},
{
name = ogonek;
position = "{934, 0}";
},
{
name = top;
position = "{502, 1200}";
}
);
background = {
paths = (
{
closed = 1;
nodes = (
"446 -22 OFFCURVE",
"532 14 OFFCURVE",
"578 112 CURVE",
"594 112 LINE",
"622 0 LINE",
"934 0 LINE",
"934 646 LINE SMOOTH",
"934 996 OFFCURVE",
"790 1118 OFFCURVE",
"452 1118 CURVE SMOOTH",
"344 1118 OFFCURVE",
"216 1104 OFFCURVE",
"116 1080 CURVE",
"116 776 LINE",
"200 800 OFFCURVE",
"296 812 OFFCURVE",
"374 812 CURVE SMOOTH",
"520 812 OFFCURVE",
"560 772 OFFCURVE",
"560 664 CURVE SMOOTH",
"560 288 LINE",
"536 270 OFFCURVE",
"510 264 OFFCURVE",
"486 264 CURVE SMOOTH",
"438 264 OFFCURVE",
"404 294 OFFCURVE",
"404 354 CURVE SMOOTH",
"404 418 OFFCURVE",
"442 456 OFFCURVE",
"514 460 CURVE SMOOTH",
"650 468 LINE",
"598 676 LINE",
"466 668 LINE SMOOTH",
"152 648 OFFCURVE",
"30 524 OFFCURVE",
"30 306 CURVE SMOOTH",
"30 110 OFFCURVE",
"158 -22 OFFCURVE",
"344 -22 CURVE SMOOTH"
);
}
);
};
color = -1;
layerId = "C8FFBC04-9D7C-494A-A42D-BACB8E26599D";
paths = (
{
closed = 1;
nodes = (
"446 -22 OFFCURVE",
"532 14 OFFCURVE",
"578 112 CURVE",
"594 112 LINE",
"622 0 LINE",
"934 0 LINE",
"934 646 LINE SMOOTH",
"934 996 OFFCURVE",
"790 1118 OFFCURVE",
"452 1118 CURVE SMOOTH",
"344 1118 OFFCURVE",
"216 1104 OFFCURVE",
"116 1080 CURVE",
"116 776 LINE",
"200 800 OFFCURVE",
"296 812 OFFCURVE",
"374 812 CURVE SMOOTH",
"520 812 OFFCURVE",
"560 772 OFFCURVE",
"560 664 CURVE SMOOTH",
"560 284 LINE",
"536 266 OFFCURVE",
"510 260 OFFCURVE",
"486 260 CURVE SMOOTH",
"438 260 OFFCURVE",
"404 290 OFFCURVE",
"404 350 CURVE SMOOTH",
"404 414 OFFCURVE",
"442 452 OFFCURVE",
"514 456 CURVE SMOOTH",
"650 464 LINE",
"598 678 LINE",
"466 670 LINE SMOOTH",
"152 650 OFFCURVE",
"30 524 OFFCURVE",
"30 306 CURVE SMOOTH",
"30 108 OFFCURVE",
"158 -22 OFFCURVE",
"344 -22 CURVE SMOOTH"
);
}
);
width = 1008;
}
);
leftKerningGroup = a;
rightKerningGroup = n;
unicode = 0061;
userData = {
com.typemytype.robofont.layerData = {
};
};
},
{
glyphname = aogonek;
layers = (
{
anchors = (
{
name = bottom;
position = "{424, 0}";
},
{
name = ogonek;
position = "{718, 0}";
},
{
name = top;
position = "{420, 1200}";
}
);
background = {
components = (
{
name = a;
},
{
name = ogonek;
transform = "{1, 0, 0, 1, 173, 0}";
}
);
};
color = -1;
components = (
{
name = ogonekcomb;
transform = "{1, 0, 0, 1, 318, 0}";
}
);
layerId = "ECFF4977-BDCC-4836-B4AC-1801CF0EB460";
paths = (
{
closed = 1;
nodes = (
"480 -16 OFFCURVE",
"578 30 OFFCURVE",
"644 122 CURVE",
"652 122 LINE",
"658 0 LINE",
"718 0 LINE",
"718 754 LINE SMOOTH",
"718 1012 OFFCURVE",
"600 1096 OFFCURVE",
"390 1096 CURVE SMOOTH",
"310 1096 OFFCURVE",
"208 1080 OFFCURVE",
"136 1052 CURVE",
"136 984 LINE",
"226 1016 OFFCURVE",
"318 1030 OFFCURVE",
"388 1030 CURVE SMOOTH",
"556 1030 OFFCURVE",
"650 972 OFFCURVE",
"650 756 CURVE SMOOTH",
"650 222 LINE",
"572 90 OFFCURVE",
"464 50 OFFCURVE",
"372 50 CURVE SMOOTH",
"234 50 OFFCURVE",
"156 120 OFFCURVE",
"156 274 CURVE SMOOTH",
"156 414 OFFCURVE",
"234 492 OFFCURVE",
"408 510 CURVE SMOOTH",
"696 542 LINE",
"686 608 LINE",
"410 576 LINE SMOOTH",
"188 552 OFFCURVE",
"82 450 OFFCURVE",
"82 266 CURVE SMOOTH",
"82 82 OFFCURVE",
"198 -16 OFFCURVE",
"366 -16 CURVE SMOOTH"
);
}
);
width = 852;
},
{
anchors = (
{
name = bottom;
position = "{502, 0}";
},
{
name = ogonek;
position = "{934, 0}";
},
{
name = top;
position = "{502, 1200}";
}
);
background = {
components = (
{
name = a;
},
{
name = ogonekcomb;
transform = "{1, 0, 0, 1, 212, 0}";
}
);
};
color = -1;
components = (
{
name = ogonekcomb;
transform = "{1, 0, 0, 1, 418, 0}";
}
);
layerId = "C8FFBC04-9D7C-494A-A42D-BACB8E26599D";
paths = (
{
closed = 1;
nodes = (
"446 -22 OFFCURVE",
"532 14 OFFCURVE",
"578 112 CURVE",
"594 112 LINE",
"642 -10 LINE",
"934 0 LINE",
"934 646 LINE SMOOTH",
"934 996 OFFCURVE",
"790 1118 OFFCURVE",
"452 1118 CURVE SMOOTH",
"344 1118 OFFCURVE",
"216 1104 OFFCURVE",
"116 1080 CURVE",
"116 776 LINE",
"200 800 OFFCURVE",
"296 812 OFFCURVE",
"374 812 CURVE SMOOTH",
"520 812 OFFCURVE",
"560 772 OFFCURVE",
"560 664 CURVE SMOOTH",
"560 284 LINE",
"536 266 OFFCURVE",
"510 260 OFFCURVE",
"486 260 CURVE SMOOTH",
"438 260 OFFCURVE",
"404 290 OFFCURVE",
"404 350 CURVE SMOOTH",
"404 414 OFFCURVE",
"442 452 OFFCURVE",
"514 456 CURVE SMOOTH",
"650 464 LINE",
"598 678 LINE",
"466 670 LINE SMOOTH",
"152 650 OFFCURVE",
"30 524 OFFCURVE",
"30 306 CURVE SMOOTH",
"30 108 OFFCURVE",
"158 -22 OFFCURVE",
"344 -22 CURVE SMOOTH"
);
}
);
width = 1008;
}
);
leftKerningGroup = a;
rightKerningGroup = n;
unicode = 0105;
},
{
color = 9;
glyphname = ae;
layers = (
{
anchors = (
{
name = bottom;
position = "{684, 0}";
},
{
name = top;
position = "{684, 1200}";
}
);
background = {
paths = (
{
closed = 1;
nodes = (
"2280 -16 OFFCURVE",
"2378 30 OFFCURVE",
"2444 122 CURVE",
"2452 122 LINE",
"2458 0 LINE",
"2518 0 LINE",
"2518 760 LINE SMOOTH",
"2518 1012 OFFCURVE",
"2400 1096 OFFCURVE",
"2190 1096 CURVE SMOOTH",
"2110 1096 OFFCURVE",
"2008 1080 OFFCURVE",
"1936 1052 CURVE",
"1936 984 LINE",
"2026 1016 OFFCURVE",
"2118 1030 OFFCURVE",
"2188 1030 CURVE SMOOTH",
"2356 1030 OFFCURVE",
"2450 972 OFFCURVE",
"2450 762 CURVE SMOOTH",
"2450 222 LINE",
"2372 90 OFFCURVE",
"2264 50 OFFCURVE",
"2172 50 CURVE SMOOTH",
"2034 50 OFFCURVE",
"1956 120 OFFCURVE",
"1956 274 CURVE SMOOTH",
"1956 414 OFFCURVE",
"2034 490 OFFCURVE",
"2208 510 CURVE SMOOTH",
"2496 542 LINE",
"2486 608 LINE",
"2210 576 LINE SMOOTH",
"1988 550 OFFCURVE",
"1882 450 OFFCURVE",
"1882 266 CURVE SMOOTH",
"1882 80 OFFCURVE",
"1998 -16 OFFCURVE",
"2166 -16 CURVE SMOOTH"
);
},
{
closed = 1;
nodes = (
"2924 -18 OFFCURVE",
"2996 -8 OFFCURVE",
"3082 22 CURVE",
"3082 90 LINE",
"2988 60 OFFCURVE",
"2920 48 OFFCURVE",
"2858 48 CURVE SMOOTH",
"2632 48 OFFCURVE",
"2518 162 OFFCURVE",
"2518 544 CURVE SMOOTH",
"2518 934 OFFCURVE",
"2634 1030 OFFCURVE",
"2792 1030 CURVE SMOOTH",
"2950 1030 OFFCURVE",
"3058 934 OFFCURVE",
"3058 540 CURVE",
"3074 576 LINE",
"2490 576 LINE",
"2490 510 LINE",
"3130 510 LINE",
"3130 540 LINE SMOOTH",
"3130 962 OFFCURVE",
"2998 1096 OFFCURVE",
"2792 1096 CURVE SMOOTH",
"2590 1096 OFFCURVE",
"2446 962 OFFCURVE",
"2446 540 CURVE SMOOTH",
"2446 126 OFFCURVE",
"2590 -18 OFFCURVE",
"2854 -18 CURVE SMOOTH"
);
},
{
closed = 1;
nodes = (
"1124 -18 OFFCURVE",
"1196 -8 OFFCURVE",
"1282 22 CURVE",
"1282 90 LINE",
"1188 60 OFFCURVE",
"1120 48 OFFCURVE",
"1058 48 CURVE SMOOTH",
"834 48 OFFCURVE",
"718 164 OFFCURVE",
"718 534 CURVE SMOOTH",
"718 552 LINE SMOOTH",
"718 928 OFFCURVE",
"840 1030 OFFCURVE",
"996 1030 CURVE SMOOTH",
"1150 1030 OFFCURVE",
"1258 928 OFFCURVE",
"1258 552 CURVE",
"1274 576 LINE",
"690 576 LINE",
"690 510 LINE",
"1330 510 LINE",
"1330 540 LINE SMOOTH",
"1330 958 OFFCURVE",
"1198 1096 OFFCURVE",
"996 1096 CURVE SMOOTH",
"796 1096 OFFCURVE",
"646 954 OFFCURVE",
"646 540 CURVE SMOOTH",
"646 126 OFFCURVE",
"790 -18 OFFCURVE",
"1054 -18 CURVE SMOOTH"
);
}
);
};
color = -1;
layerId = "ECFF4977-BDCC-4836-B4AC-1801CF0EB460";
paths = (
{
closed = 1;
nodes = (
"1116 -18 OFFCURVE",
"1188 -8 OFFCURVE",
"1274 22 CURVE",
"1274 90 LINE",
"1180 60 OFFCURVE",
"1112 48 OFFCURVE",
"1054 48 CURVE SMOOTH",
"834 48 OFFCURVE",
"718 164 OFFCURVE",
"718 534 CURVE SMOOTH",
"718 552 LINE SMOOTH",
"718 928 OFFCURVE",
"834 1032 OFFCURVE",
"988 1032 CURVE SMOOTH",
"1142 1032 OFFCURVE",
"1250 934 OFFCURVE",
"1250 540 CURVE",
"1266 576 LINE",
"690 576 LINE",
"690 510 LINE",
"1322 510 LINE",
"1322 540 LINE SMOOTH",
"1322 962 OFFCURVE",
"1190 1098 OFFCURVE",
"988 1098 CURVE SMOOTH",
"792 1098 OFFCURVE",
"656 960 OFFCURVE",
"656 550 CURVE",
"650 540 LINE",
"650 126 OFFCURVE",
"790 -18 OFFCURVE",
"1050 -18 CURVE SMOOTH"
);
},
{
closed = 1;
nodes = (
"500 -16 OFFCURVE",
"628 38 OFFCURVE",
"720 222 CURVE",
"682 286 LINE",
"610 106 OFFCURVE",
"490 50 OFFCURVE",
"374 50 CURVE SMOOTH",
"238 50 OFFCURVE",
"156 120 OFFCURVE",
"156 270 CURVE SMOOTH",
"156 410 OFFCURVE",
"230 510 OFFCURVE",
"440 510 CURVE SMOOTH",
"686 510 LINE",
"686 576 LINE",
"442 576 LINE SMOOTH",
"180 576 OFFCURVE",
"82 446 OFFCURVE",
"82 262 CURVE SMOOTH",
"82 80 OFFCURVE",
"202 -16 OFFCURVE",
"368 -16 CURVE SMOOTH"
);
},
{
closed = 1;
nodes = (
"712 530 LINE",
"712 760 LINE SMOOTH",
"712 1012 OFFCURVE",
"598 1096 OFFCURVE",
"390 1096 CURVE SMOOTH",
"310 1096 OFFCURVE",
"208 1080 OFFCURVE",
"136 1052 CURVE",
"136 984 LINE",
"226 1016 OFFCURVE",
"318 1030 OFFCURVE",
"388 1030 CURVE SMOOTH",
"556 1030 OFFCURVE",
"650 972 OFFCURVE",
"650 762 CURVE SMOOTH",
"650 540 LINE"
);
}
);
width = 1398;
},
{
anchors = (
{
name = bottom;
position = "{752, 0}";
},
{
name = top;
position = "{752, 1200}";
}
);
background = {
paths = (
{
closed = 1;
nodes = (
"3014 -22 OFFCURVE",
"3102 -10 OFFCURVE",
"3210 14 CURVE",
"3210 318 LINE",
"3126 298 OFFCURVE",
"3042 284 OFFCURVE",
"2960 284 CURVE SMOOTH",
"2780 284 OFFCURVE",
"2734 328 OFFCURVE",
"2734 472 CURVE SMOOTH",
"2734 636 LINE SMOOTH",
"2734 820 OFFCURVE",
"2760 860 OFFCURVE",
"2822 860 CURVE SMOOTH",
"2882 860 OFFCURVE",
"2906 820 OFFCURVE",
"2906 636 CURVE",
"2960 652 LINE",
"2708 652 LINE",
"2708 434 LINE",
"3264 434 LINE",
"3264 544 LINE SMOOTH",
"3264 924 OFFCURVE",
"3100 1118 OFFCURVE",
"2844 1118 CURVE SMOOTH",
"2574 1118 OFFCURVE",
"2442 902 OFFCURVE",
"2442 594 CURVE",
"2368 556 LINE",
"2368 150 OFFCURVE",
"2518 -22 OFFCURVE",
"2914 -22 CURVE SMOOTH"
);
},
{
closed = 1;
nodes = (
"2310 -22 OFFCURVE",
"2420 14 OFFCURVE",
"2506 148 CURVE",
"2416 326 LINE",
"2374 276 OFFCURVE",
"2336 262 OFFCURVE",
"2292 262 CURVE SMOOTH",
"2238 262 OFFCURVE",
"2204 292 OFFCURVE",
"2204 348 CURVE SMOOTH",
"2204 408 OFFCURVE",
"2240 448 OFFCURVE",
"2316 448 CURVE SMOOTH",
"2432 448 LINE",
"2432 652 LINE",
"2268 652 LINE SMOOTH",
"1958 652 OFFCURVE",
"1830 510 OFFCURVE",
"1830 308 CURVE SMOOTH",
"1830 104 OFFCURVE",
"1958 -22 OFFCURVE",
"2184 -22 CURVE SMOOTH"
);
},
{
closed = 1;
nodes = (
"2662 556 LINE",
"2662 670 LINE SMOOTH",
"2662 960 OFFCURVE",
"2550 1118 OFFCURVE",
"2234 1118 CURVE SMOOTH",
"2136 1118 OFFCURVE",
"2036 1108 OFFCURVE",
"1918 1080 CURVE",
"1918 776 LINE",
"2002 800 OFFCURVE",
"2098 812 OFFCURVE",
"2170 812 CURVE SMOOTH",
"2310 812 OFFCURVE",
"2368 774 OFFCURVE",
"2368 658 CURVE SMOOTH",
"2368 556 LINE"
);
},
{
closed = 1;
nodes = (
"446 -22 OFFCURVE",
"532 14 OFFCURVE",
"578 112 CURVE",
"594 112 LINE",
"622 0 LINE",
"934 0 LINE",
"934 646 LINE SMOOTH",
"934 996 OFFCURVE",
"790 1118 OFFCURVE",
"452 1118 CURVE SMOOTH",
"344 1118 OFFCURVE",
"216 1104 OFFCURVE",
"116 1080 CURVE",
"116 776 LINE",
"200 800 OFFCURVE",
"296 812 OFFCURVE",
"374 812 CURVE SMOOTH",
"520 812 OFFCURVE",
"560 772 OFFCURVE",
"560 664 CURVE SMOOTH",
"560 284 LINE",
"536 266 OFFCURVE",
"510 260 OFFCURVE",
"486 260 CURVE SMOOTH",
"438 260 OFFCURVE",
"404 290 OFFCURVE",
"404 350 CURVE SMOOTH",
"404 414 OFFCURVE",
"442 452 OFFCURVE",
"514 456 CURVE SMOOTH",
"650 464 LINE",
"598 678 LINE",
"466 670 LINE SMOOTH",
"152 650 OFFCURVE",
"30 524 OFFCURVE",
"30 306 CURVE SMOOTH",
"30 108 OFFCURVE",
"158 -22 OFFCURVE",
"344 -22 CURVE SMOOTH"
);
}
);
};
color = -1;
layerId = "C8FFBC04-9D7C-494A-A42D-BACB8E26599D";
paths = (
{
closed = 1;
nodes = (
"1214 -22 OFFCURVE",
"1302 -10 OFFCURVE",
"1410 14 CURVE",
"1410 318 LINE",
"1326 298 OFFCURVE",
"1242 284 OFFCURVE",
"1160 284 CURVE SMOOTH",
"980 284 OFFCURVE",
"934 328 OFFCURVE",
"934 472 CURVE SMOOTH",
"934 646 LINE SMOOTH",
"934 830 OFFCURVE",
"960 870 OFFCURVE",
"1022 870 CURVE SMOOTH",
"1082 870 OFFCURVE",
"1106 830 OFFCURVE",
"1106 646 CURVE",
"1160 662 LINE",
"908 662 LINE",
"908 434 LINE",
"1464 434 LINE",
"1464 544 LINE SMOOTH",
"1464 924 OFFCURVE",
"1300 1118 OFFCURVE",
"1044 1118 CURVE SMOOTH",
"774 1118 OFFCURVE",
"642 902 OFFCURVE",
"642 594 CURVE",
"568 556 LINE",
"568 150 OFFCURVE",
"718 -22 OFFCURVE",
"1114 -22 CURVE SMOOTH"
);
},
{
closed = 1;
nodes = (
"510 -22 OFFCURVE",
"620 14 OFFCURVE",
"706 148 CURVE",
"616 326 LINE",
"574 276 OFFCURVE",
"536 262 OFFCURVE",
"492 262 CURVE SMOOTH",
"438 262 OFFCURVE",
"404 292 OFFCURVE",
"404 346 CURVE SMOOTH",
"404 408 OFFCURVE",
"440 448 OFFCURVE",
"516 448 CURVE SMOOTH",
"632 448 LINE",
"632 662 LINE",
"468 662 LINE SMOOTH",
"158 662 OFFCURVE",
"30 518 OFFCURVE",
"30 312 CURVE SMOOTH",
"30 104 OFFCURVE",
"158 -22 OFFCURVE",
"384 -22 CURVE SMOOTH"
);
},
{
closed = 1;
nodes = (
"862 556 LINE",
"862 670 LINE SMOOTH",
"862 960 OFFCURVE",
"750 1118 OFFCURVE",
"434 1118 CURVE SMOOTH",
"336 1118 OFFCURVE",
"236 1108 OFFCURVE",
"118 1080 CURVE",
"118 776 LINE",
"202 800 OFFCURVE",
"298 812 OFFCURVE",
"370 812 CURVE SMOOTH",
"510 812 OFFCURVE",
"568 774 OFFCURVE",
"568 658 CURVE SMOOTH",
"568 556 LINE"
);
}
);
width = 1494;
}
);
leftKerningGroup = a;
rightKerningGroup = e;
unicode = 00E6;
},
{
glyphname = b;
layers = (
{
anchors = (
{
name = bottom;
position = "{460, 0}";
},
{
name = top;
position = "{178, 1616}";
}
);
background = {
paths = (
{
closed = 1;
nodes = (
"354 1096 OFFCURVE",
"266 1038 OFFCURVE",
"218 972 CURVE",
"210 972 LINE",
"204 1078 LINE",
"144 1078 LINE",
"144 -538 LINE",
"212 -538 LINE",
"212 -8 LINE",
"260 -14 OFFCURVE",
"318 -18 OFFCURVE",
"366 -18 CURVE SMOOTH",
"658 -18 OFFCURVE",
"826 154 OFFCURVE",
"826 560 CURVE SMOOTH",
"826 976 OFFCURVE",
"660 1096 OFFCURVE",
"468 1096 CURVE SMOOTH"
);
},
{
closed = 1;
nodes = (
"626 1030 OFFCURVE",
"754 942 OFFCURVE",
"754 552 CURVE SMOOTH",
"754 186 OFFCURVE",
"616 48 OFFCURVE",
"368 48 CURVE SMOOTH",
"318 48 OFFCURVE",
"252 54 OFFCURVE",
"212 62 CURVE",
"212 870 LINE",
"264 976 OFFCURVE",
"368 1030 OFFCURVE",
"466 1030 CURVE SMOOTH"
);
}
);
};
color = -1;
layerId = "ECFF4977-BDCC-4836-B4AC-1801CF0EB460";
paths = (
{
closed = 1;
nodes = (
"656 -18 OFFCURVE",
"826 154 OFFCURVE",
"826 560 CURVE SMOOTH",
"826 976 OFFCURVE",
"660 1096 OFFCURVE",
"472 1096 CURVE SMOOTH",
"354 1096 OFFCURVE",
"266 1038 OFFCURVE",
"218 978 CURVE",
"212 978 LINE",
"212 1616 LINE",
"144 1616 LINE",
"144 18 LINE",
"204 -4 OFFCURVE",
"296 -18 OFFCURVE",
"372 -18 CURVE SMOOTH"
);
},
{
closed = 1;
nodes = (
"318 48 OFFCURVE",
"252 58 OFFCURVE",
"212 70 CURVE",
"212 874 LINE",
"264 976 OFFCURVE",
"368 1030 OFFCURVE",
"468 1030 CURVE SMOOTH",
"626 1030 OFFCURVE",
"754 942 OFFCURVE",
"754 552 CURVE SMOOTH",
"754 186 OFFCURVE",
"616 48 OFFCURVE",
"372 48 CURVE SMOOTH"
);
}
);
width = 914;
},
{
anchors = (
{
name = bottom;
position = "{562, 0}";
},
{
name = top;
position = "{272, 1616}";
}
);
background = {
anchors = (
{
name = bottom;
position = "{562, 0}";
},
{
name = top;
position = "{562, 1100}";
}
);
paths = (
{
closed = 1;
nodes = (
"464 -440 LINE",
"464 -20 LINE",
"470 -20 OFFCURVE",
"474 -20 OFFCURVE",
"480 -20 CURVE SMOOTH",
"892 -20 OFFCURVE",
"1064 192 OFFCURVE",
"1064 568 CURVE SMOOTH",
"1064 950 OFFCURVE",
"878 1118 OFFCURVE",
"674 1118 CURVE SMOOTH",
"562 1118 OFFCURVE",
"486 1064 OFFCURVE",
"446 976 CURVE",
"430 976 LINE",
"404 1100 LINE",
"78 1100 LINE",
"78 -440 LINE"
);
},
{
closed = 1;
nodes = (
"502 272 OFFCURVE",
"480 274 OFFCURVE",
"464 276 CURVE",
"464 776 LINE",
"484 788 OFFCURVE",
"512 796 OFFCURVE",
"540 796 CURVE SMOOTH",
"620 796 OFFCURVE",
"670 750 OFFCURVE",
"670 534 CURVE SMOOTH",
"670 326 OFFCURVE",
"616 272 OFFCURVE",
"512 272 CURVE SMOOTH"
);
}
);
};
color = -1;
layerId = "C8FFBC04-9D7C-494A-A42D-BACB8E26599D";
paths = (
{
closed = 1;
nodes = (
"892 -22 OFFCURVE",
"1064 190 OFFCURVE",
"1064 566 CURVE SMOOTH",
"1064 948 OFFCURVE",
"894 1118 OFFCURVE",
"700 1118 CURVE SMOOTH",
"600 1118 OFFCURVE",
"524 1072 OFFCURVE",
"482 988 CURVE",
"464 988 LINE",
"464 1616 LINE",
"78 1616 LINE",
"78 46 LINE",
"196 2 OFFCURVE",
"346 -20 OFFCURVE",
"480 -20 CURVE SMOOTH"
);
},
{
closed = 1;
nodes = (
"496 272 OFFCURVE",
"480 274 OFFCURVE",
"464 278 CURVE",
"464 782 LINE",
"482 790 OFFCURVE",
"506 794 OFFCURVE",
"528 794 CURVE SMOOTH",
"620 794 OFFCURVE",
"670 748 OFFCURVE",
"670 532 CURVE SMOOTH",
"670 326 OFFCURVE",
"616 272 OFFCURVE",
"512 272 CURVE SMOOTH"
);
}
);
width = 1104;
}
);
leftKerningGroup = l;
rightKerningGroup = o;
unicode = 0062;
userData = {
com.typemytype.robofont.layerData = {
};
};
},
{
glyphname = c;
layers = (
{
anchors = (
{
name = bottom;
position = "{426, 0}";
},
{
name = top;
position = "{426, 1200}";
}
);
background = {
paths = (
{
closed = 1;
nodes = (
"1338 -18 OFFCURVE",
"1408 -6 OFFCURVE",
"1486 22 CURVE",
"1486 90 LINE",
"1402 60 OFFCURVE",
"1334 48 OFFCURVE",
"1276 48 CURVE SMOOTH",
"1068 48 OFFCURVE",
"960 162 OFFCURVE",
"960 544 CURVE SMOOTH",
"960 922 OFFCURVE",
"1078 1030 OFFCURVE",
"1312 1030 CURVE SMOOTH",
"1356 1030 OFFCURVE",
"1420 1024 OFFCURVE",
"1486 1006 CURVE",
"1486 1074 LINE",
"1428 1090 OFFCURVE",
"1366 1096 OFFCURVE",
"1316 1096 CURVE SMOOTH",
"1036 1096 OFFCURVE",
"888 954 OFFCURVE",
"888 540 CURVE SMOOTH",
"888 126 OFFCURVE",
"1024 -18 OFFCURVE",
"1268 -18 CURVE SMOOTH"
);
},
{
closed = 1;
nodes = (
"680 -18 OFFCURVE",
"824 132 OFFCURVE",
"824 540 CURVE SMOOTH",
"824 948 OFFCURVE",
"676 1096 OFFCURVE",
"456 1096 CURVE SMOOTH",
"232 1096 OFFCURVE",
"88 948 OFFCURVE",
"88 540 CURVE SMOOTH",
"88 132 OFFCURVE",
"236 -18 OFFCURVE",
"456 -18 CURVE SMOOTH"
);
},
{
closed = 1;
nodes = (
"276 48 OFFCURVE",
"160 160 OFFCURVE",
"160 544 CURVE SMOOTH",
"160 920 OFFCURVE",
"276 1030 OFFCURVE",
"456 1030 CURVE SMOOTH",
"636 1030 OFFCURVE",
"752 920 OFFCURVE",
"752 536 CURVE SMOOTH",
"752 160 OFFCURVE",
"636 48 OFFCURVE",
"456 48 CURVE SMOOTH"
);
}
);
};
color = -1;
layerId = "ECFF4977-BDCC-4836-B4AC-1801CF0EB460";
paths = (
{
closed = 1;
nodes = (
"538 -18 OFFCURVE",
"608 -6 OFFCURVE",
"686 22 CURVE",
"686 90 LINE",
"602 60 OFFCURVE",
"534 48 OFFCURVE",
"476 48 CURVE SMOOTH",
"268 48 OFFCURVE",
"160 162 OFFCURVE",
"160 544 CURVE SMOOTH",
"160 922 OFFCURVE",
"276 1030 OFFCURVE",
"518 1030 CURVE SMOOTH",
"556 1030 OFFCURVE",
"620 1024 OFFCURVE",
"686 1006 CURVE",
"686 1074 LINE",
"628 1090 OFFCURVE",
"566 1096 OFFCURVE",
"514 1096 CURVE SMOOTH",
"236 1096 OFFCURVE",
"88 954 OFFCURVE",
"88 540 CURVE SMOOTH",
"88 126 OFFCURVE",
"224 -18 OFFCURVE",
"468 -18 CURVE SMOOTH"
);
}
);
width = 702;
},
{
anchors = (
{
name = bottom;
position = "{478, 0}";
},
{
name = top;
position = "{458, 1200}";
}
);
background = {
anchors = (
{
name = bottom;
position = "{446, 0}";
},
{
name = top;
position = "{458, 1200}";
}
);
paths = (
{
closed = 1;
nodes = (
"850 -22 OFFCURVE",
"1028 158 OFFCURVE",
"1028 546 CURVE SMOOTH",
"1028 926 OFFCURVE",
"850 1118 OFFCURVE",
"534 1118 CURVE SMOOTH",
"218 1118 OFFCURVE",
"40 936 OFFCURVE",
"40 542 CURVE SMOOTH",
"40 158 OFFCURVE",
"218 -22 OFFCURVE",
"534 -22 CURVE SMOOTH"
);
},
{
closed = 1;
nodes = (
"466 262 OFFCURVE",
"434 302 OFFCURVE",
"434 546 CURVE SMOOTH",
"434 790 OFFCURVE",
"470 834 OFFCURVE",
"534 834 CURVE SMOOTH",
"598 834 OFFCURVE",
"634 790 OFFCURVE",
"634 542 CURVE SMOOTH",
"634 302 OFFCURVE",
"602 262 OFFCURVE",
"534 262 CURVE SMOOTH"
);
}
);
};
color = -1;
layerId = "C8FFBC04-9D7C-494A-A42D-BACB8E26599D";
paths = (
{
closed = 1;
nodes = (
"644 -22 OFFCURVE",
"732 -10 OFFCURVE",
"806 14 CURVE",
"806 326 LINE",
"750 308 OFFCURVE",
"700 298 OFFCURVE",
"654 298 CURVE SMOOTH",
"512 298 OFFCURVE",
"442 358 OFFCURVE",
"442 554 CURVE SMOOTH",
"442 730 OFFCURVE",
"512 798 OFFCURVE",
"678 798 CURVE SMOOTH",
"720 798 OFFCURVE",
"766 794 OFFCURVE",
"806 788 CURVE",
"806 1100 LINE",
"742 1112 OFFCURVE",
"676 1118 OFFCURVE",
"602 1118 CURVE SMOOTH",
"262 1118 OFFCURVE",
"40 952 OFFCURVE",
"40 548 CURVE SMOOTH",
"40 158 OFFCURVE",
"230 -22 OFFCURVE",
"566 -22 CURVE SMOOTH"
);
}
);
width = 844;
}
);
leftKerningGroup = o;
rightKerningGroup = c;
unicode = 0063;
userData = {
com.typemytype.robofont.layerData = {
};
};
},
{
glyphname = d;
layers = (
{
anchors = (
{
name = bottom;
position = "{454, 0}";
},
{
name = caronalt;
position = "{870, 1616}";
},
{
name = center;
position = "{454, 540}";
},
{
name = stroke;
position = "{770, 1356}";
},
{
name = top;
position = "{454, 1200}";
},
{
name = topright;
position = "{868, 1080}";
}
);
background = {
paths = (
{
closed = 1;
nodes = (
"1702 208 LINE",
"1650 102 OFFCURVE",
"1546 48 OFFCURVE",
"1448 48 CURVE SMOOTH",
"1288 48 OFFCURVE",
"1160 136 OFFCURVE",
"1160 526 CURVE SMOOTH",
"1160 892 OFFCURVE",
"1298 1030 OFFCURVE",
"1546 1030 CURVE SMOOTH",
"1596 1030 OFFCURVE",
"1662 1024 OFFCURVE",
"1714 1014 CURVE",
"1718 1084 LINE",
"1654 1092 OFFCURVE",
"1596 1096 OFFCURVE",
"1548 1096 CURVE SMOOTH",
"1256 1096 OFFCURVE",
"1088 924 OFFCURVE",
"1088 518 CURVE SMOOTH",
"1088 102 OFFCURVE",
"1254 -18 OFFCURVE",
"1446 -18 CURVE SMOOTH",
"1560 -18 OFFCURVE",
"1648 40 OFFCURVE",
"1696 106 CURVE",
"1704 106 LINE",
"1710 0 LINE",
"1770 0 LINE",
"1770 1616 LINE",
"1702 1616 LINE"
);
},
{
closed = 1;
nodes = (
"680 -18 OFFCURVE",
"824 132 OFFCURVE",
"824 540 CURVE SMOOTH",
"824 948 OFFCURVE",
"676 1096 OFFCURVE",
"456 1096 CURVE SMOOTH",
"232 1096 OFFCURVE",
"88 948 OFFCURVE",
"88 540 CURVE SMOOTH",
"88 132 OFFCURVE",
"236 -18 OFFCURVE",
"456 -18 CURVE SMOOTH"
);
},
{
closed = 1;
nodes = (
"276 48 OFFCURVE",
"160 160 OFFCURVE",
"160 544 CURVE SMOOTH",
"160 920 OFFCURVE",
"276 1030 OFFCURVE",
"456 1030 CURVE SMOOTH",
"636 1030 OFFCURVE",
"752 920 OFFCURVE",
"752 536 CURVE SMOOTH",
"752 160 OFFCURVE",
"636 48 OFFCURVE",
"456 48 CURVE SMOOTH"
);
}
);
};
color = -1;
layerId = "ECFF4977-BDCC-4836-B4AC-1801CF0EB460";
paths = (
{
closed = 1;
nodes = (
"560 -18 OFFCURVE",
"648 40 OFFCURVE",
"696 106 CURVE",
"704 106 LINE",
"710 0 LINE",
"770 0 LINE",
"770 1616 LINE",
"702 1616 LINE",
"702 1086 LINE",
"654 1092 OFFCURVE",
"596 1096 OFFCURVE",
"548 1096 CURVE SMOOTH",
"256 1096 OFFCURVE",
"88 924 OFFCURVE",
"88 518 CURVE SMOOTH",
"88 102 OFFCURVE",
"254 -18 OFFCURVE",
"446 -18 CURVE SMOOTH"
);
},
{
closed = 1;
nodes = (
"288 48 OFFCURVE",
"160 136 OFFCURVE",
"160 526 CURVE SMOOTH",
"160 892 OFFCURVE",
"298 1030 OFFCURVE",
"546 1030 CURVE SMOOTH",
"596 1030 OFFCURVE",
"662 1024 OFFCURVE",
"702 1016 CURVE",
"702 208 LINE",
"650 102 OFFCURVE",
"546 48 OFFCURVE",
"448 48 CURVE SMOOTH"
);
}
);
width = 914;
},
{
anchors = (
{
name = bottom;
position = "{562, 0}";
},
{
name = caronalt;
position = "{1106, 1616}";
},
{
name = center;
position = "{546, 540}";
},
{
name = stroke;
position = "{1026, 1350}";
},
{
name = top;
position = "{546, 1200}";
},
{
name = topright;
position = "{1064, 1100}";
}
);
background = {
anchors = (
{
name = bottom;
position = "{552, 0}";
},
{
name = caronalt;
position = "{1114, 1348}";
},
{
name = center;
position = "{546, 540}";
},
{
name = stroke;
position = "{1026, 1350}";
},
{
name = top;
position = "{546, 1080}";
},
{
name = topright;
position = "{1064, 1080}";
}
);
paths = (
{
closed = 1;
nodes = (
"2742 -20 OFFCURVE",
"2818 34 OFFCURVE",
"2858 122 CURVE",
"2874 122 LINE",
"2900 2 LINE",
"3226 2 LINE",
"3226 1618 LINE",
"2840 1618 LINE",
"2840 1118 LINE",
"2834 1118 OFFCURVE",
"2830 1118 OFFCURVE",
"2824 1118 CURVE SMOOTH",
"2412 1118 OFFCURVE",
"2240 906 OFFCURVE",
"2240 530 CURVE SMOOTH",
"2240 148 OFFCURVE",
"2426 -20 OFFCURVE",
"2630 -20 CURVE SMOOTH"
);
},
{
closed = 1;
nodes = (
"2684 302 OFFCURVE",
"2634 348 OFFCURVE",
"2634 564 CURVE SMOOTH",
"2634 772 OFFCURVE",
"2688 826 OFFCURVE",
"2792 826 CURVE SMOOTH",
"2802 826 OFFCURVE",
"2824 824 OFFCURVE",
"2840 822 CURVE",
"2840 322 LINE",
"2820 310 OFFCURVE",
"2792 302 OFFCURVE",
"2764 302 CURVE SMOOTH"
);
},
{
closed = 1;
nodes = (
"2050 -20 OFFCURVE",
"2228 160 OFFCURVE",
"2228 548 CURVE SMOOTH",
"2228 928 OFFCURVE",
"2050 1120 OFFCURVE",
"1734 1120 CURVE SMOOTH",
"1418 1120 OFFCURVE",
"1240 938 OFFCURVE",
"1240 544 CURVE SMOOTH",
"1240 160 OFFCURVE",
"1418 -20 OFFCURVE",
"1734 -20 CURVE SMOOTH"
);
},
{
closed = 1;
nodes = (
"1666 264 OFFCURVE",
"1634 304 OFFCURVE",
"1634 548 CURVE SMOOTH",
"1634 792 OFFCURVE",
"1670 836 OFFCURVE",
"1734 836 CURVE SMOOTH",
"1798 836 OFFCURVE",
"1834 792 OFFCURVE",
"1834 544 CURVE SMOOTH",
"1834 304 OFFCURVE",
"1802 264 OFFCURVE",
"1734 264 CURVE SMOOTH"
);
},
{
closed = 1;
nodes = (
"640 1100 LINE",
"640 364 LINE",
"618 340 OFFCURVE",
"582 324 OFFCURVE",
"544 324 CURVE SMOOTH",
"498 324 OFFCURVE",
"466 346 OFFCURVE",
"466 422 CURVE SMOOTH",
"466 1100 LINE",
"80 1100 LINE",
"80 392 LINE SMOOTH",
"80 92 OFFCURVE",
"218 -18 OFFCURVE",
"398 -18 CURVE SMOOTH",
"510 -18 OFFCURVE",
"598 26 OFFCURVE",
"662 112 CURVE",
"678 112 LINE",
"706 0 LINE",
"1026 0 LINE",
"1026 1100 LINE"
);
}
);
};
color = -1;
layerId = "C8FFBC04-9D7C-494A-A42D-BACB8E26599D";
paths = (
{
closed = 1;
nodes = (
"542 -22 OFFCURVE",
"618 32 OFFCURVE",
"658 120 CURVE",
"674 120 LINE",
"700 0 LINE",
"1026 0 LINE",
"1026 1616 LINE",
"640 1616 LINE",
"640 1116 LINE",
"634 1116 OFFCURVE",
"630 1116 OFFCURVE",
"624 1116 CURVE SMOOTH",
"212 1116 OFFCURVE",
"40 904 OFFCURVE",
"40 528 CURVE SMOOTH",
"40 146 OFFCURVE",
"226 -22 OFFCURVE",
"430 -22 CURVE SMOOTH"
);
},
{
closed = 1;
nodes = (
"484 300 OFFCURVE",
"434 346 OFFCURVE",
"434 562 CURVE SMOOTH",
"434 770 OFFCURVE",
"488 824 OFFCURVE",
"592 824 CURVE SMOOTH",
"602 824 OFFCURVE",
"624 822 OFFCURVE",
"640 820 CURVE",
"640 320 LINE",
"620 308 OFFCURVE",
"592 300 OFFCURVE",
"564 300 CURVE SMOOTH"
);
}
);
width = 1104;
}
);
leftKerningGroup = o;
rightKerningGroup = l;
unicode = 0064;
userData = {
com.typemytype.robofont.layerData = {
};
};
},
{
glyphname = eth;
layers = (
{
background = {
paths = (
{
closed = 1;
nodes = (
"680 -18 OFFCURVE",
"822 152 OFFCURVE",
"822 570 CURVE SMOOTH",
"822 974 OFFCURVE",
"620 1418 OFFCURVE",
"376 1616 CURVE",
"288 1616 LINE",
"522 1418 OFFCURVE",
"636 1176 OFFCURVE",
"696 954 CURVE",
"712 968 LINE",
"638 1070 OFFCURVE",
"550 1096 OFFCURVE",
"456 1096 CURVE SMOOTH",
"232 1096 OFFCURVE",
"88 948 OFFCURVE",
"88 540 CURVE SMOOTH",
"88 132 OFFCURVE",
"236 -18 OFFCURVE",
"458 -18 CURVE SMOOTH"
);
},
{
closed = 1;
nodes = (
"276 48 OFFCURVE",
"160 160 OFFCURVE",
"160 544 CURVE SMOOTH",
"160 920 OFFCURVE",
"276 1030 OFFCURVE",
"456 1030 CURVE SMOOTH",
"636 1030 OFFCURVE",
"752 920 OFFCURVE",
"752 536 CURVE SMOOTH",
"752 180 OFFCURVE",
"632 48 OFFCURVE",
"458 48 CURVE SMOOTH"
);
},
{
closed = 1;
nodes = (
"802 1364 LINE",
"792 1422 LINE",
"174 1318 LINE",
"184 1260 LINE"
);
}
);
};
color = -1;
guideLines = (
{
angle = 90;
position = "{88, 1118}";
},
{
angle = 90;
position = "{822, 1118}";
}
);
layerId = "ECFF4977-BDCC-4836-B4AC-1801CF0EB460";
paths = (
{
closed = 1;
nodes = (
"680 -18 OFFCURVE",
"822 152 OFFCURVE",
"822 570 CURVE SMOOTH",
"822 974 OFFCURVE",
"618 1418 OFFCURVE",
"376 1616 CURVE",
"288 1616 LINE",
"522 1418 OFFCURVE",
"636 1176 OFFCURVE",
"696 954 CURVE",
"712 968 LINE",
"638 1070 OFFCURVE",
"550 1096 OFFCURVE",
"456 1096 CURVE SMOOTH",
"232 1096 OFFCURVE",
"88 948 OFFCURVE",
"88 540 CURVE SMOOTH",
"88 132 OFFCURVE",
"236 -18 OFFCURVE",
"458 -18 CURVE SMOOTH"
);
},
{
closed = 1;
nodes = (
"276 48 OFFCURVE",
"160 160 OFFCURVE",
"160 544 CURVE SMOOTH",
"160 920 OFFCURVE",
"276 1030 OFFCURVE",
"456 1030 CURVE SMOOTH",
"636 1030 OFFCURVE",
"752 920 OFFCURVE",
"752 536 CURVE SMOOTH",
"752 180 OFFCURVE",
"632 48 OFFCURVE",
"458 48 CURVE SMOOTH"
);
},
{
closed = 1;
nodes = (
"802 1364 LINE",
"792 1422 LINE",
"174 1318 LINE",
"184 1260 LINE"
);
}
);
width = 912;
},
{
background = {
paths = (
{
closed = 1;
nodes = (
"850 -26 OFFCURVE",
"1028 154 OFFCURVE",
"1028 620 CURVE SMOOTH",
"1028 996 OFFCURVE",
"832 1400 OFFCURVE",
"584 1616 CURVE",
"170 1616 LINE",
"378 1426 OFFCURVE",
"566 1206 OFFCURVE",
"632 954 CURVE",
"716 1000 LINE",
"678 1068 OFFCURVE",
"576 1112 OFFCURVE",
"504 1112 CURVE SMOOTH",
"228 1112 OFFCURVE",
"40 940 OFFCURVE",
"40 542 CURVE SMOOTH",
"40 154 OFFCURVE",
"218 -26 OFFCURVE",
"534 -26 CURVE SMOOTH"
);
},
{
closed = 1;
nodes = (
"466 258 OFFCURVE",
"434 298 OFFCURVE",
"434 540 CURVE SMOOTH",
"434 784 OFFCURVE",
"470 828 OFFCURVE",
"534 828 CURVE SMOOTH",
"598 828 OFFCURVE",
"634 784 OFFCURVE",
"634 536 CURVE SMOOTH",
"634 298 OFFCURVE",
"602 258 OFFCURVE",
"534 258 CURVE SMOOTH"
);
},
{
closed = 1;
nodes = (
"1002 1366 LINE",
"954 1566 LINE",
"108 1376 LINE",
"156 1176 LINE"
);
}
);
};
color = -1;
layerId = "C8FFBC04-9D7C-494A-A42D-BACB8E26599D";
paths = (
{
closed = 1;
nodes = (
"850 -26 OFFCURVE",
"1028 154 OFFCURVE",
"1028 620 CURVE SMOOTH",
"1028 996 OFFCURVE",
"832 1400 OFFCURVE",
"584 1616 CURVE",
"170 1616 LINE",
"378 1426 OFFCURVE",
"566 1206 OFFCURVE",
"632 954 CURVE",
"716 1000 LINE",
"678 1068 OFFCURVE",
"576 1112 OFFCURVE",
"504 1112 CURVE SMOOTH",
"228 1112 OFFCURVE",
"40 940 OFFCURVE",
"40 542 CURVE SMOOTH",
"40 154 OFFCURVE",
"218 -26 OFFCURVE",
"534 -26 CURVE SMOOTH"
);
},
{
closed = 1;
nodes = (
"466 258 OFFCURVE",
"434 298 OFFCURVE",
"434 540 CURVE SMOOTH",
"434 784 OFFCURVE",
"470 828 OFFCURVE",
"534 828 CURVE SMOOTH",
"598 828 OFFCURVE",
"634 784 OFFCURVE",
"634 536 CURVE SMOOTH",
"634 298 OFFCURVE",
"602 258 OFFCURVE",
"534 258 CURVE SMOOTH"
);
},
{
closed = 1;
nodes = (
"1002 1360 LINE",
"954 1560 LINE",
"108 1370 LINE",
"156 1170 LINE"
);
}
);
width = 1068;
}
);
leftKerningGroup = o;
rightKerningGroup = o;
unicode = 00F0;
userData = {
com.typemytype.robofont.layerData = {
};
};
},
{
glyphname = dcroat;
layers = (
{
background = {
components = (
{
name = d;
}
);
paths = (
{
closed = 1;
nodes = (
"396 1320 LINE",
"916 1320 LINE",
"916 1366 LINE",
"396 1366 LINE"
);
}
);
};
color = -1;
components = (
{
name = d;
},
{
name = strokeshortcomb.d;
transform = "{1, 0, 0, 1, 170, 276}";
}
);
layerId = "ECFF4977-BDCC-4836-B4AC-1801CF0EB460";
width = 914;
},
{
background = {
components = (
{
name = d;
},
{
name = strokeshortcomb.d;
transform = "{1, 0, 0, 1, 213, 125}";
}
);
};
color = -1;
components = (
{
name = d;
},
{
name = strokeshortcomb.d;
transform = "{1, 0, 0, 1, 426, 250}";
}
);
layerId = "C8FFBC04-9D7C-494A-A42D-BACB8E26599D";
width = 1104;
}
);
leftKerningGroup = o;
rightKerningGroup = l;
unicode = 0111;
},
{
color = 9;
glyphname = e;
layers = (
{
anchors = (
{
name = bottom;
position = "{434, 0}";
},
{
name = ogonek;
position = "{650, 0}";
},
{
name = top;
position = "{434, 1200}";
}
);
background = {
paths = (
{
closed = 1;
nodes = (
"566 -18 OFFCURVE",
"638 -8 OFFCURVE",
"724 22 CURVE",
"724 90 LINE",
"630 60 OFFCURVE",
"562 48 OFFCURVE",
"500 48 CURVE SMOOTH",
"276 48 OFFCURVE",
"160 164 OFFCURVE",
"160 534 CURVE SMOOTH",
"160 552 LINE SMOOTH",
"160 928 OFFCURVE",
"282 1030 OFFCURVE",
"438 1030 CURVE SMOOTH",
"592 1030 OFFCURVE",
"700 928 OFFCURVE",
"700 552 CURVE",
"716 576 LINE",
"132 576 LINE",
"132 510 LINE",
"772 510 LINE",
"772 540 LINE SMOOTH",
"772 958 OFFCURVE",
"640 1096 OFFCURVE",
"438 1096 CURVE SMOOTH",
"238 1096 OFFCURVE",
"88 954 OFFCURVE",
"88 540 CURVE SMOOTH",
"88 126 OFFCURVE",
"232 -18 OFFCURVE",
"496 -18 CURVE SMOOTH"
);
}
);
};
color = -1;
layerId = "ECFF4977-BDCC-4836-B4AC-1801CF0EB460";
paths = (
{
closed = 1;
nodes = (
"566 -18 OFFCURVE",
"638 -8 OFFCURVE",
"724 22 CURVE",
"724 90 LINE",
"630 60 OFFCURVE",
"562 48 OFFCURVE",
"500 48 CURVE SMOOTH",
"276 48 OFFCURVE",
"160 164 OFFCURVE",
"160 534 CURVE SMOOTH",
"160 552 LINE SMOOTH",
"160 928 OFFCURVE",
"282 1030 OFFCURVE",
"438 1030 CURVE SMOOTH",
"592 1030 OFFCURVE",
"700 928 OFFCURVE",
"700 552 CURVE",
"716 576 LINE",
"132 576 LINE",
"132 510 LINE",
"772 510 LINE",
"772 540 LINE SMOOTH",
"772 958 OFFCURVE",
"640 1096 OFFCURVE",
"438 1096 CURVE SMOOTH",
"238 1096 OFFCURVE",
"88 954 OFFCURVE",
"88 540 CURVE SMOOTH",
"88 126 OFFCURVE",
"232 -18 OFFCURVE",
"496 -18 CURVE SMOOTH"
);
}
);
width = 848;
},
{
anchors = (
{
name = bottom;
position = "{514, 0}";
},
{
name = ogonek;
position = "{906, 0}";
},
{
name = top;
position = "{514, 1200}";
}
);
background = {
paths = (
{
closed = 1;
nodes = (
"718 -22 OFFCURVE",
"806 -10 OFFCURVE",
"914 14 CURVE",
"914 318 LINE",
"830 298 OFFCURVE",
"746 284 OFFCURVE",
"664 284 CURVE SMOOTH",
"476 284 OFFCURVE",
"430 328 OFFCURVE",
"430 472 CURVE SMOOTH",
"430 636 LINE SMOOTH",
"430 820 OFFCURVE",
"456 860 OFFCURVE",
"522 860 CURVE SMOOTH",
"586 860 OFFCURVE",
"610 820 OFFCURVE",
"610 636 CURVE",
"664 652 LINE",
"324 652 LINE",
"324 434 LINE",
"968 434 LINE",
"968 544 LINE SMOOTH",
"968 910 OFFCURVE",
"820 1118 OFFCURVE",
"524 1118 CURVE SMOOTH",
"208 1118 OFFCURVE",
"40 910 OFFCURVE",
"40 556 CURVE SMOOTH",
"40 150 OFFCURVE",
"206 -22 OFFCURVE",
"614 -22 CURVE SMOOTH"
);
}
);
};
color = -1;
layerId = "C8FFBC04-9D7C-494A-A42D-BACB8E26599D";
paths = (
{
closed = 1;
nodes = (
"718 -22 OFFCURVE",
"806 -10 OFFCURVE",
"914 14 CURVE",
"914 318 LINE",
"830 298 OFFCURVE",
"746 284 OFFCURVE",
"664 284 CURVE SMOOTH",
"476 284 OFFCURVE",
"430 328 OFFCURVE",
"430 472 CURVE SMOOTH",
"430 646 LINE SMOOTH",
"430 830 OFFCURVE",
"456 870 OFFCURVE",
"522 870 CURVE SMOOTH",
"586 870 OFFCURVE",
"610 830 OFFCURVE",
"610 646 CURVE",
"664 662 LINE",
"324 662 LINE",
"324 434 LINE",
"968 434 LINE",
"968 544 LINE SMOOTH",
"968 910 OFFCURVE",
"820 1118 OFFCURVE",
"524 1118 CURVE SMOOTH",
"208 1118 OFFCURVE",
"40 910 OFFCURVE",
"40 556 CURVE SMOOTH",
"40 150 OFFCURVE",
"206 -22 OFFCURVE",
"614 -22 CURVE SMOOTH"
);
}
);
width = 998;
}
);
leftKerningGroup = o;
rightKerningGroup = e;
unicode = 0065;
userData = {
com.typemytype.robofont.layerData = {
};
};
},
{
glyphname = eogonek;
layers = (
{
background = {
paths = (
{
closed = 1;
nodes = (
"638 -400 OFFCURVE",
"688 -386 OFFCURVE",
"724 -360 CURVE",
"724 -304 LINE",
"684 -332 OFFCURVE",
"638 -348 OFFCURVE",
"590 -348 CURVE SMOOTH",
"514 -348 OFFCURVE",
"470 -306 OFFCURVE",
"470 -228 CURVE SMOOTH",
"470 -148 OFFCURVE",
"516 -80 OFFCURVE",
"626 0 CURVE",
"598 46 LINE",
"470 -46 OFFCURVE",
"414 -132 OFFCURVE",
"414 -232 CURVE SMOOTH",
"414 -338 OFFCURVE",
"480 -400 OFFCURVE",
"592 -400 CURVE SMOOTH"
);
},
{
closed = 1;
nodes = (
"566 -18 OFFCURVE",
"638 -8 OFFCURVE",
"724 22 CURVE",
"724 90 LINE",
"630 60 OFFCURVE",
"562 48 OFFCURVE",
"500 48 CURVE SMOOTH",
"276 48 OFFCURVE",
"160 164 OFFCURVE",
"160 534 CURVE SMOOTH",
"160 552 LINE SMOOTH",
"160 928 OFFCURVE",
"282 1030 OFFCURVE",
"438 1030 CURVE SMOOTH",
"592 1030 OFFCURVE",
"700 928 OFFCURVE",
"700 552 CURVE",
"716 576 LINE",
"132 576 LINE",
"132 510 LINE",
"772 510 LINE",
"772 540 LINE SMOOTH",
"772 958 OFFCURVE",
"640 1096 OFFCURVE",
"438 1096 CURVE SMOOTH",
"238 1096 OFFCURVE",
"88 954 OFFCURVE",
"88 540 CURVE SMOOTH",
"88 126 OFFCURVE",
"232 -18 OFFCURVE",
"496 -18 CURVE SMOOTH"
);
}
);
};
color = -1;
layerId = "ECFF4977-BDCC-4836-B4AC-1801CF0EB460";
paths = (
{
closed = 1;
nodes = (
"638 -400 OFFCURVE",
"688 -386 OFFCURVE",
"724 -360 CURVE",
"724 -304 LINE",
"684 -332 OFFCURVE",
"638 -348 OFFCURVE",
"590 -348 CURVE SMOOTH",
"514 -348 OFFCURVE",
"470 -306 OFFCURVE",
"470 -228 CURVE SMOOTH",
"470 -148 OFFCURVE",
"512 -52 OFFCURVE",
"724 22 CURVE",
"724 90 LINE",
"630 60 OFFCURVE",
"562 48 OFFCURVE",
"500 48 CURVE SMOOTH",
"276 48 OFFCURVE",
"160 164 OFFCURVE",
"160 534 CURVE SMOOTH",
"160 552 LINE SMOOTH",
"160 928 OFFCURVE",
"282 1030 OFFCURVE",
"438 1030 CURVE SMOOTH",
"592 1030 OFFCURVE",
"700 928 OFFCURVE",
"700 552 CURVE",
"716 576 LINE",
"132 576 LINE",
"132 510 LINE",
"772 510 LINE",
"772 540 LINE SMOOTH",
"772 958 OFFCURVE",
"640 1096 OFFCURVE",
"438 1096 CURVE SMOOTH",
"238 1096 OFFCURVE",
"88 954 OFFCURVE",
"88 540 CURVE SMOOTH",
"88 126 OFFCURVE",
"232 -18 OFFCURVE",
"496 -18 CURVE SMOOTH",
"516 -18 OFFCURVE",
"538 -16 OFFCURVE",
"558 -14 CURVE",
"556 -4 LINE",
"456 -64 OFFCURVE",
"414 -144 OFFCURVE",
"414 -232 CURVE SMOOTH",
"414 -338 OFFCURVE",
"480 -400 OFFCURVE",
"592 -400 CURVE SMOOTH"
);
}
);
width = 848;
},
{
background = {
paths = (
{
closed = 1;
nodes = (
"718 -22 OFFCURVE",
"806 -10 OFFCURVE",
"914 14 CURVE",
"914 318 LINE",
"830 298 OFFCURVE",
"746 284 OFFCURVE",
"664 284 CURVE SMOOTH",
"476 284 OFFCURVE",
"430 328 OFFCURVE",
"430 472 CURVE SMOOTH",
"430 636 LINE SMOOTH",
"430 820 OFFCURVE",
"456 860 OFFCURVE",
"522 860 CURVE SMOOTH",
"586 860 OFFCURVE",
"610 820 OFFCURVE",
"610 636 CURVE",
"664 652 LINE",
"324 652 LINE",
"324 434 LINE",
"968 434 LINE",
"968 544 LINE SMOOTH",
"968 910 OFFCURVE",
"820 1118 OFFCURVE",
"524 1118 CURVE SMOOTH",
"208 1118 OFFCURVE",
"40 910 OFFCURVE",
"40 556 CURVE SMOOTH",
"40 150 OFFCURVE",
"206 -22 OFFCURVE",
"614 -22 CURVE SMOOTH"
);
},
{
closed = 1;
nodes = (
"818 -460 OFFCURVE",
"868 -446 OFFCURVE",
"914 -430 CURVE",
"914 -280 LINE",
"866 -298 OFFCURVE",
"828 -306 OFFCURVE",
"796 -306 CURVE SMOOTH",
"724 -306 OFFCURVE",
"688 -272 OFFCURVE",
"688 -216 CURVE SMOOTH",
"688 -144 OFFCURVE",
"726 -72 OFFCURVE",
"914 0 CURVE",
"802 86 LINE",
"548 -8 OFFCURVE",
"472 -104 OFFCURVE",
"472 -238 CURVE SMOOTH",
"472 -374 OFFCURVE",
"564 -460 OFFCURVE",
"744 -460 CURVE SMOOTH"
);
}
);
};
color = -1;
layerId = "C8FFBC04-9D7C-494A-A42D-BACB8E26599D";
paths = (
{
closed = 1;
nodes = (
"818 -460 OFFCURVE",
"868 -446 OFFCURVE",
"914 -430 CURVE",
"914 -280 LINE",
"866 -298 OFFCURVE",
"828 -306 OFFCURVE",
"796 -306 CURVE SMOOTH",
"724 -306 OFFCURVE",
"688 -272 OFFCURVE",
"688 -216 CURVE SMOOTH",
"688 -144 OFFCURVE",
"726 -66 OFFCURVE",
"914 14 CURVE",
"914 318 LINE",
"830 298 OFFCURVE",
"746 284 OFFCURVE",
"664 284 CURVE SMOOTH",
"476 284 OFFCURVE",
"430 328 OFFCURVE",
"430 472 CURVE SMOOTH",
"430 636 LINE SMOOTH",
"430 820 OFFCURVE",
"456 860 OFFCURVE",
"522 860 CURVE SMOOTH",
"586 860 OFFCURVE",
"610 820 OFFCURVE",
"610 636 CURVE",
"664 652 LINE",
"324 652 LINE",
"324 434 LINE",
"968 434 LINE",
"968 544 LINE SMOOTH",
"968 910 OFFCURVE",
"820 1118 OFFCURVE",
"524 1118 CURVE SMOOTH",
"208 1118 OFFCURVE",
"40 910 OFFCURVE",
"40 556 CURVE SMOOTH",
"40 150 OFFCURVE",
"206 -22 OFFCURVE",
"614 -22 CURVE SMOOTH",
"654 -22 OFFCURVE",
"698 -20 OFFCURVE",
"742 -16 CURVE",
"734 58 LINE",
"534 -24 OFFCURVE",
"472 -116 OFFCURVE",
"472 -238 CURVE SMOOTH",
"472 -374 OFFCURVE",
"564 -460 OFFCURVE",
"744 -460 CURVE SMOOTH"
);
}
);
width = 998;
}
);
leftKerningGroup = o;
rightKerningGroup = e;
unicode = 0119;
},
{
glyphname = schwa;
layers = (
{
background = {
paths = (
{
closed = 1;
nodes = (
"626 -18 OFFCURVE",
"760 188 OFFCURVE",
"760 564 CURVE SMOOTH",
"760 900 OFFCURVE",
"616 1098 OFFCURVE",
"370 1098 CURVE SMOOTH",
"282 1098 OFFCURVE",
"196 1076 OFFCURVE",
"124 1036 CURVE",
"134 966 LINE",
"218 1012 OFFCURVE",
"286 1030 OFFCURVE",
"370 1030 CURVE SMOOTH",
"572 1030 OFFCURVE",
"688 856 OFFCURVE",
"688 554 CURVE SMOOTH",
"688 234 OFFCURVE",
"576 50 OFFCURVE",
"382 50 CURVE SMOOTH",
"220 50 OFFCURVE",
"152 196 OFFCURVE",
"152 538 CURVE",
"136 500 LINE",
"716 500 LINE",
"716 568 LINE",
"88 568 LINE",
"82 526 OFFCURVE",
"80 490 OFFCURVE",
"80 426 CURVE SMOOTH",
"80 140 OFFCURVE",
"188 -18 OFFCURVE",
"382 -18 CURVE SMOOTH"
);
}
);
};
color = -1;
components = (
{
name = e;
transform = "{-1, 0, 0, -1, 848, 1080}";
}
);
layerId = "ECFF4977-BDCC-4836-B4AC-1801CF0EB460";
width = 848;
},
{
background = {
components = (
{
name = e;
transform = "{-1, 0, 0, -1, 499, 550}";
}
);
};
color = -1;
components = (
{
name = e;
transform = "{-1, 0, 0, -1, 998, 1100}";
}
);
layerId = "C8FFBC04-9D7C-494A-A42D-BACB8E26599D";
width = 998;
}
);
leftKerningGroup = o;
rightKerningGroup = o;
unicode = 0259;
userData = {
com.typemytype.robofont.layerData = {
};
};
},
{
glyphname = f;
layers = (
{
background = {
paths = (
{
closed = 1;
nodes = (
"576 1080 LINE",
"8 1080 LINE",
"8 1014 LINE",
"576 1014 LINE"
);
},
{
closed = 1;
nodes = (
"208 0 LINE",
"276 0 LINE",
"276 1328 LINE SMOOTH",
"276 1510 OFFCURVE",
"344 1568 OFFCURVE",
"480 1568 CURVE SMOOTH",
"516 1568 OFFCURVE",
"556 1564 OFFCURVE",
"596 1554 CURVE",
"596 1622 LINE",
"560 1630 OFFCURVE",
"514 1636 OFFCURVE",
"476 1636 CURVE SMOOTH",
"310 1636 OFFCURVE",
"208 1554 OFFCURVE",
"208 1340 CURVE SMOOTH"
);
}
);
};
color = -1;
layerId = "ECFF4977-BDCC-4836-B4AC-1801CF0EB460";
paths = (
{
closed = 1;
nodes = (
"276 0 LINE",
"276 1350 LINE SMOOTH",
"276 1508 OFFCURVE",
"350 1570 OFFCURVE",
"486 1570 CURVE SMOOTH",
"534 1570 OFFCURVE",
"568 1566 OFFCURVE",
"610 1558 CURVE",
"610 1626 LINE",
"570 1634 OFFCURVE",
"524 1636 OFFCURVE",
"490 1636 CURVE SMOOTH",
"304 1636 OFFCURVE",
"208 1540 OFFCURVE",
"208 1352 CURVE SMOOTH",
"208 0 LINE"
);
},
{
closed = 1;
nodes = (
"576 1016 LINE",
"576 1080 LINE",
"8 1080 LINE",
"8 1016 LINE"
);
}
);
width = 562;
},
{
background = {
paths = (
{
closed = 1;
nodes = (
"528 0 LINE",
"528 1174 LINE SMOOTH",
"528 1278 OFFCURVE",
"582 1326 OFFCURVE",
"714 1326 CURVE SMOOTH",
"742 1326 OFFCURVE",
"768 1324 OFFCURVE",
"800 1320 CURVE",
"800 1624 LINE",
"736 1634 OFFCURVE",
"682 1636 OFFCURVE",
"634 1636 CURVE SMOOTH",
"304 1636 OFFCURVE",
"148 1470 OFFCURVE",
"148 1174 CURVE SMOOTH",
"148 0 LINE"
);
},
{
closed = 1;
nodes = (
"758 800 LINE",
"758 1100 LINE",
"8 1100 LINE",
"8 800 LINE"
);
}
);
};
color = -1;
layerId = "C8FFBC04-9D7C-494A-A42D-BACB8E26599D";
paths = (
{
closed = 1;
nodes = (
"528 0 LINE",
"528 1168 LINE SMOOTH",
"528 1276 OFFCURVE",
"578 1326 OFFCURVE",
"716 1326 CURVE SMOOTH",
"742 1326 OFFCURVE",
"768 1324 OFFCURVE",
"800 1320 CURVE",
"800 1624 LINE",
"756 1632 OFFCURVE",
"702 1636 OFFCURVE",
"654 1636 CURVE SMOOTH",
"314 1636 OFFCURVE",
"148 1454 OFFCURVE",
"148 1142 CURVE SMOOTH",
"148 0 LINE"
);
},
{
closed = 1;
nodes = (
"758 800 LINE",
"758 1100 LINE",
"8 1100 LINE",
"8 800 LINE"
);
}
);
width = 740;
}
);
leftKerningGroup = t;
rightKerningGroup = f;
unicode = 0066;
userData = {
com.typemytype.robofont.layerData = {
};
};
},
{
glyphname = g;
layers = (
{
anchors = (
{
name = bottom;
position = "{476, -440}";
},
{
name = top;
position = "{476, 1200}";
}
);
background = {
paths = (
{
closed = 1;
nodes = (
"770 -440 LINE",
"770 1060 LINE",
"710 1082 OFFCURVE",
"618 1096 OFFCURVE",
"542 1096 CURVE SMOOTH",
"258 1096 OFFCURVE",
"88 924 OFFCURVE",
"88 518 CURVE SMOOTH",
"88 102 OFFCURVE",
"254 -18 OFFCURVE",
"442 -18 CURVE SMOOTH",
"560 -18 OFFCURVE",
"648 40 OFFCURVE",
"696 100 CURVE",
"702 100 LINE",
"702 -440 LINE"
);
},
{
closed = 1;
nodes = (
"288 48 OFFCURVE",
"160 136 OFFCURVE",
"160 526 CURVE SMOOTH",
"160 892 OFFCURVE",
"298 1030 OFFCURVE",
"542 1030 CURVE SMOOTH",
"596 1030 OFFCURVE",
"662 1020 OFFCURVE",
"702 1008 CURVE",
"702 204 LINE",
"650 102 OFFCURVE",
"546 48 OFFCURVE",
"446 48 CURVE SMOOTH"
);
}
);
};
color = -1;
layerId = "ECFF4977-BDCC-4836-B4AC-1801CF0EB460";
paths = (
{
closed = 1;
nodes = (
"638 -460 OFFCURVE",
"770 -346 OFFCURVE",
"770 -42 CURVE SMOOTH",
"770 1060 LINE",
"714 1080 OFFCURVE",
"618 1096 OFFCURVE",
"542 1096 CURVE SMOOTH",
"258 1096 OFFCURVE",
"88 924 OFFCURVE",
"88 518 CURVE SMOOTH",
"88 102 OFFCURVE",
"254 -18 OFFCURVE",
"442 -18 CURVE SMOOTH",
"560 -18 OFFCURVE",
"648 40 OFFCURVE",
"696 100 CURVE",
"702 100 LINE",
"702 -46 LINE SMOOTH",
"702 -306 OFFCURVE",
"596 -394 OFFCURVE",
"392 -394 CURVE SMOOTH",
"316 -394 OFFCURVE",
"236 -380 OFFCURVE",
"148 -348 CURVE",
"148 -416 LINE",
"216 -444 OFFCURVE",
"312 -460 OFFCURVE",
"392 -460 CURVE SMOOTH"
);
},
{
closed = 1;
nodes = (
"288 48 OFFCURVE",
"160 136 OFFCURVE",
"160 526 CURVE SMOOTH",
"160 892 OFFCURVE",
"298 1030 OFFCURVE",
"542 1030 CURVE SMOOTH",
"596 1030 OFFCURVE",
"662 1020 OFFCURVE",
"702 1010 CURVE",
"702 204 LINE",
"650 102 OFFCURVE",
"546 48 OFFCURVE",
"446 48 CURVE SMOOTH"
);
}
);
width = 914;
},
{
anchors = (
{
name = bottom;
position = "{552, -440}";
},
{
name = top;
position = "{572, 1200}";
}
);
background = {
paths = (
{
closed = 1;
nodes = (
"828 -460 OFFCURVE",
"1026 -286 OFFCURVE",
"1026 96 CURVE SMOOTH",
"1026 1052 LINE",
"908 1096 OFFCURVE",
"758 1118 OFFCURVE",
"626 1118 CURVE SMOOTH",
"212 1116 OFFCURVE",
"40 904 OFFCURVE",
"40 530 CURVE SMOOTH",
"40 152 OFFCURVE",
"224 -10 OFFCURVE",
"404 -10 CURVE SMOOTH",
"504 -10 OFFCURVE",
"580 36 OFFCURVE",
"622 120 CURVE",
"640 120 LINE",
"640 66 LINE SMOOTH",
"640 -94 OFFCURVE",
"560 -152 OFFCURVE",
"402 -152 CURVE SMOOTH",
"308 -152 OFFCURVE",
"214 -140 OFFCURVE",
"120 -116 CURVE",
"120 -426 LINE",
"222 -450 OFFCURVE",
"344 -460 OFFCURVE",
"438 -460 CURVE SMOOTH"
);
},
{
closed = 1;
nodes = (
"478 308 OFFCURVE",
"434 356 OFFCURVE",
"434 564 CURVE SMOOTH",
"434 770 OFFCURVE",
"492 824 OFFCURVE",
"590 824 CURVE SMOOTH",
"606 824 OFFCURVE",
"624 822 OFFCURVE",
"640 818 CURVE",
"640 320 LINE",
"622 312 OFFCURVE",
"598 308 OFFCURVE",
"576 308 CURVE SMOOTH"
);
}
);
};
color = -1;
layerId = "C8FFBC04-9D7C-494A-A42D-BACB8E26599D";
paths = (
{
closed = 1;
nodes = (
"828 -460 OFFCURVE",
"1026 -286 OFFCURVE",
"1026 136 CURVE SMOOTH",
"1026 1052 LINE",
"908 1096 OFFCURVE",
"758 1118 OFFCURVE",
"626 1118 CURVE SMOOTH",
"212 1116 OFFCURVE",
"40 904 OFFCURVE",
"40 530 CURVE SMOOTH",
"40 152 OFFCURVE",
"224 -10 OFFCURVE",
"404 -10 CURVE SMOOTH",
"504 -10 OFFCURVE",
"580 36 OFFCURVE",
"622 120 CURVE",
"640 120 LINE",
"640 66 LINE SMOOTH",
"640 -100 OFFCURVE",
"560 -158 OFFCURVE",
"402 -158 CURVE SMOOTH",
"308 -158 OFFCURVE",
"214 -146 OFFCURVE",
"120 -122 CURVE",
"120 -426 LINE",
"222 -450 OFFCURVE",
"344 -460 OFFCURVE",
"438 -460 CURVE SMOOTH"
);
},
{
closed = 1;
nodes = (
"478 308 OFFCURVE",
"434 356 OFFCURVE",
"434 564 CURVE SMOOTH",
"434 772 OFFCURVE",
"492 826 OFFCURVE",
"590 826 CURVE SMOOTH",
"606 826 OFFCURVE",
"624 824 OFFCURVE",
"640 822 CURVE",
"640 320 LINE",
"622 312 OFFCURVE",
"598 308 OFFCURVE",
"576 308 CURVE SMOOTH"
);
}
);
width = 1104;
}
);
leftKerningGroup = o;
rightKerningGroup = u;
unicode = 0067;
userData = {
com.typemytype.robofont.layerData = {
};
};
},
{
glyphname = gcommaaccent;
layers = (
{
background = {
components = (
{
name = g;
}
);
paths = (
{
closed = 1;
nodes = (
"652 1636 LINE",
"548 1336 LINE",
"608 1336 LINE",
"710 1636 LINE"
);
}
);
};
color = -1;
components = (
{
name = g;
},
{
name = commaturnedabovecomb;
transform = "{1, 0, 0, 1, 76, 0}";
}
);
layerId = "ECFF4977-BDCC-4836-B4AC-1801CF0EB460";
width = 914;
},
{
background = {
components = (
{
name = g;
},
{
name = commaturnedabovecomb;
}
);
};
color = -1;
components = (
{
name = g;
},
{
name = commaturnedabovecomb;
transform = "{1, 0, 0, 1, -28, 0}";
}
);
layerId = "C8FFBC04-9D7C-494A-A42D-BACB8E26599D";
width = 1104;
}
);
leftKerningGroup = o;
rightKerningGroup = u;
unicode = 0123;
},
